<?xml version="1.0" encoding="utf-8"?>
<!-- Generator: Adobe Illustrator 25.1.0, SVG Export Plug-In . SVG Version: 6.00 Build 0)  -->
<svg version="1.1" xmlns="http://www.w3.org/2000/svg" xmlns:xlink="http://www.w3.org/1999/xlink" x="0px" y="0px"
	 viewBox="0 0 406.55 127.76" style="enable-background:new 0 0 406.55 127.76;" xml:space="preserve">
<style type="text/css">
	.st0{display:none;}
	.st1{display:inline;fill:none;stroke:#2EA7E0;stroke-width:3;stroke-linecap:round;}
	.st2{fill:#FBE2DC;stroke:#727171;stroke-width:2;}
	.st3{fill:#FCFCE5;stroke:#727171;stroke-width:2;}
	.st4{fill:#D5EAD1;stroke:#727171;stroke-width:2;}
	.st5{fill:#C2E3DB;stroke:#727171;stroke-width:2;}
	.st6{fill:none;stroke:#727171;stroke-width:2;}
	.st7{display:inline;fill:#6BBF8E;}
	.st8{display:inline;fill:#F9D4E3;}
	.st9{fill:#EFD376;}
	.st10{fill:none;stroke:#F5CE1E;stroke-width:8;}
	.st11{fill:none;stroke:#E47A21;stroke-width:3;}
	.st12{fill:#FFFFFF;}
	.st13{fill:#FEF8EE;stroke:#FBDAB7;stroke-width:3;stroke-miterlimit:10;}
	.st14{fill:url(#SVGID_1_);}
	.st15{fill:#FFFEF8;}
	.st16{fill:url(#SVGID_2_);}
</style>
<g id="レイヤー_3" class="st0">
	<path class="st1" d="M31,82.36c0,0,0-13.61,92.15-13.61c35.93,0,97.28,6.13,125.13,8.43c21.2,1.75,84.88-9.21,110.47-8.43
		c39.48,1.21,38.22,13.61,38.22,13.61"/>
</g>
<g id="レイヤー_4" class="st0">
	<path class="st1" d="M40.95,1.97h338.99c9.79,0,17.72,7.94,17.72,17.72v49.13c0,9.79-7.94,17.72-17.72,17.72H40.95
		c-9.79,0-17.72-7.94-17.72-17.72V19.7C23.23,9.91,31.16,1.97,40.95,1.97z"/>
</g>
<g id="レイヤー_8">
</g>
<g id="レイヤー_7">
	<g>
		<path class="st2" d="M41.96,55.3c0,0-9.14,0.87-20.33,0.14s-16.93-2.4-16.93-2.4L20.4,85.77L41.96,55.3z"/>
		<path class="st3" d="M82.26,46.93c0,0-8.53,3.38-19.49,5.8c-10.95,2.41-16.93,2.41-16.93,2.41L70.03,82.2L82.26,46.93z"/>
		<path class="st4" d="M120.09,30.51c0,0-7.66,5.06-17.88,9.68s-16.07,5.84-16.07,5.84l29.24,21.52L120.09,30.51z"/>
		<path class="st5" d="M148.38,6.96c0,0-6.03,6.92-14.65,14.1c-8.62,7.17-13.93,9.91-13.93,9.91l33.92,12.94L148.38,6.96z"/>
		<path class="st6" d="M0,51.41c0,0,39.2,10.69,88.93-7.51S151.08,0,151.08,0"/>
	</g>
	<g>
		<path class="st2" d="M360.72,55.3c0,0,9.14,0.87,20.33,0.14c11.19-0.73,16.93-2.4,16.93-2.4l-15.69,32.73L360.72,55.3z"/>
		<path class="st3" d="M320.43,46.93c0,0,8.53,3.38,19.49,5.8c10.95,2.41,16.93,2.41,16.93,2.41L332.65,82.2L320.43,46.93z"/>
		<path class="st4" d="M282.6,30.51c0,0,7.66,5.06,17.88,9.68c10.22,4.61,16.07,5.84,16.07,5.84l-29.24,21.52L282.6,30.51z"/>
		<path class="st5" d="M254.3,6.96c0,0,6.03,6.92,14.65,14.1c8.62,7.17,13.93,9.91,13.93,9.91L248.97,43.9L254.3,6.96z"/>
		<path class="st6" d="M402.69,51.41c0,0-39.2,10.69-88.93-7.51S251.61,0,251.61,0"/>
	</g>
</g>
<g id="レイヤー_2" class="st0">
	<path class="st7" d="M238.93,79.85c0,0,33.69-31.54,32.9-12.27c-0.21,5.18-8.16,11.78-11.67,13.81
		C250.63,86.91,238.93,79.85,238.93,79.85z"/>
	<path class="st8" d="M210.44,6.1c-9.73,0-44.39,23.1-44.39,47.62c0,21.84,26.29,33.57,40.02,34.35c4.37,0.58,1.12-2.15,2.56-1.79
		c0,0,1.17,2,5.13,2c17.25,0,41.07-11.84,41.07-34.56C254.84,29.2,220.18,6.1,210.44,6.1z"/>
</g>
<g id="レイヤー_1">
	<g>
		<g>
			<path class="st9" d="M61.66,59.87c1.78-0.27,3.57-0.53,5.35-0.78c2.62-0.37,4.1,0.68,4.44,3.16c0.34,2.47-0.81,3.89-3.44,4.27
				c-0.2,0.03-0.51,0.06-0.93,0.1c-1.15,0.1-2.64,0.28-4.47,0.53c-0.53,0.08-0.99,0.14-1.39,0.18c-0.01,0.36-0.03,0.71-0.04,1.07
				c-0.02,0.89-0.04,1.78-0.07,2.67c-0.03,0.83-0.06,1.66-0.09,2.49c-0.03,0.71-0.05,1.42-0.08,2.13c-0.01,0.18-0.01,0.37-0.02,0.55
				c1.32-0.24,3.69-0.74,7.12-1.48c0.37-0.07,0.66-0.13,0.88-0.16c1.07-0.15,1.99,0.03,2.77,0.54c0.81,0.55,1.29,1.39,1.45,2.52
				c0.29,2.08-0.67,3.46-2.86,4.15c-1.43,0.46-4.48,1.08-9.15,1.9c0.04,2.16,0.16,3.8,0.33,4.93c0.86,5.5,3.98,7.82,9.37,7.04
				c7.58-1.09,10.9-5.25,9.94-12.62c-0.23-1.76-0.73-3.77-1.49-6.01c-0.22-0.63-0.35-1.15-0.4-1.55c-0.15-1.13,0.2-2.01,1.05-2.64
				c0.53-0.39,1.09-0.62,1.71-0.7c1.4-0.18,2.63,0.55,3.7,2.19c1.77,2.68,2.86,5.74,3.28,9.19c0.76,6.26-0.97,11.12-5.12,14.63
				c-2.89,2.45-6.8,4.01-11.75,4.73c-4.43,0.64-8.17,0.08-11.27-1.73c-3.72-2.15-6.02-5.76-6.85-10.86
				c-0.19-1.19-0.34-2.92-0.42-5.21c-3.14,0.51-5.16,0.81-6.06,0.85c-2.37,0.1-3.74-0.89-4.11-2.99c-0.19-1.08-0.01-2,0.53-2.73
				c0.54-0.74,1.33-1.2,2.38-1.37c0.2-0.03,0.5-0.07,0.92-0.12c1.21-0.12,3.23-0.42,6.08-0.88c-0.02-2.57,0.04-5.61,0.17-9.13
				c-0.2,0.03-0.39,0.06-0.59,0.1c-3.65,0.7-5.82,1.14-6.54,1.3c-0.3,0.07-0.52,0.12-0.65,0.14c-1.01,0.17-1.95,0.07-2.82-0.29
				c-1.1-0.48-1.75-1.31-1.96-2.49c-0.23-1.33,0.15-2.44,1.16-3.32c0.53-0.48,1.26-0.83,2.17-1.05c1.42-0.33,3.72-0.81,6.91-1.43
				c0.86-0.16,1.72-0.33,2.57-0.51c0.08-1.94,0.25-4.67,0.52-8.18c0.19-2.3,1.37-3.62,3.55-3.95c0.56-0.09,1.06-0.11,1.5-0.07
				c1.91,0.18,2.99,1.17,3.25,2.95c0.06,0.42,0.06,1-0.02,1.74C61.85,57.23,61.69,59.31,61.66,59.87z"/>
			<path class="st9" d="M133.8,53.93c0.39,1.06,0.63,2.33,0.73,3.83c0.21,3.12-0.48,7.3-2.04,12.52
				c-3.72,12.57-8.6,19.1-14.92,19.67c-2.54,0.23-4.94-0.77-7.21-2.99c-3.06-2.99-4.88-7.03-5.41-12.12
				c-0.56-5.43,1.11-10.61,5.11-15.5c2.78-3.37,6.29-6.1,10.52-8.17c4.23-2.07,8.72-3.27,13.42-3.59
				c6.38-0.43,11.87,0.94,16.39,4.09c5.47,3.8,8.29,9.16,8.57,16.03c0.25,6-1.44,11.23-4.97,15.69c-2.66,3.37-6.2,6.03-10.62,8.01
				c-1.13,0.49-2.06,0.76-2.81,0.81c-1.26,0.08-2.22-0.4-2.89-1.43c-0.26-0.43-0.41-0.85-0.44-1.27c-0.07-1.08,0.66-2.1,2.22-3.07
				c7.67-4.86,11.41-10.96,11.03-18.44c-0.25-4.94-2.19-8.76-5.85-11.41c-2.85-2.06-6.19-2.97-9.97-2.72
				C134.38,53.89,134.09,53.91,133.8,53.93z M126.38,55.9c-4.79,2.15-8.43,5.01-10.9,8.52c-2.16,3.08-3.07,6.23-2.77,9.43
				c0.27,2.82,1.01,5.1,2.21,6.84c0.85,1.2,1.67,1.76,2.47,1.69c1.85-0.17,3.72-2.71,5.66-7.62c1.51-3.73,2.61-7.35,3.29-10.87
				c0.46-2.39,0.64-4.22,0.54-5.48c-0.03-0.44-0.13-1.02-0.3-1.73c-0.07-0.33-0.12-0.52-0.14-0.56c0-0.02,0-0.04,0-0.06
				C126.42,56.04,126.4,55.98,126.38,55.9z"/>
			<path class="st9" d="M192.57,54.59c0.46,0,0.91,0,1.37,0c7.61-0.01,11.37,3.22,11.3,9.57c-0.04,4.27-0.98,9.3-2.75,15.08
				c-1.55,4.98-3.21,8.59-5.01,10.83c-1.6,1.99-3.45,2.98-5.56,2.99c-2.28,0.01-4.72-1.51-7.37-4.57c-1.13-1.3-1.7-2.35-1.72-3.15
				c-0.01-0.53,0.18-1.02,0.56-1.47c0.44-0.53,1.02-0.81,1.73-0.82c0.62-0.01,1.32,0.27,2.07,0.83c1.39,1.02,2.35,1.54,2.91,1.53
				c0.82-0.01,1.74-1.09,2.79-3.25c1.2-2.48,2.23-5.62,3.1-9.43c0.7-3.05,1.05-5.62,1.05-7.71c0-2.24-1.23-3.37-3.7-3.36
				c-0.6,0-1.23,0.03-1.92,0.07c-0.68,0.05-1.22,0.07-1.62,0.07c-2.97,7.62-6.07,14.46-9.32,20.52c-0.73,1.33-1.19,2.14-1.37,2.44
				c-0.86,1.29-1.98,1.94-3.37,1.98c-0.79,0.02-1.52-0.21-2.17-0.68c-1.16-0.84-1.76-1.88-1.79-3.13c-0.02-0.68,0.38-1.77,1.21-3.27
				c2.99-5.37,5.7-11.02,8.11-16.97c-2.81,0.39-4.78,0.68-5.89,0.88c-0.46,0.1-0.82,0.15-1.09,0.15c-0.9,0.02-1.65-0.28-2.24-0.9
				c-0.61-0.68-0.94-1.57-0.97-2.67c-0.06-2.16,1.21-3.42,3.82-3.78c3.41-0.46,6.48-0.84,9.23-1.15c1.58-4.46,2.87-8.34,3.83-11.63
				c0.57-1.99,1.86-3,3.86-3.01c0.95,0,1.83,0.2,2.64,0.63c1.2,0.63,1.79,1.53,1.79,2.7C196.1,44.96,194.9,48.51,192.57,54.59z
				 M213.2,52.84c1.65,0.03,4.13,1.89,7.4,5.6c4.77,5.38,7.04,9.32,6.96,11.74c-0.05,1.46-0.8,2.58-2.24,3.35
				c-0.78,0.42-1.59,0.62-2.43,0.59c-1.37-0.04-2.45-0.59-3.25-1.65c-0.19-0.26-0.49-0.85-0.9-1.77c-1.76-3.81-4.4-8.04-7.98-12.67
				c-0.56-0.73-0.84-1.48-0.83-2.27c0.01-0.91,0.36-1.63,1.03-2.17C211.6,53.08,212.35,52.83,213.2,52.84z M217.75,44.18
				c1.28,0.03,3.28,1.27,5.96,3.72c2.29,2.08,3.4,3.71,3.36,4.87c-0.03,0.82-0.43,1.52-1.21,2.09c-0.62,0.45-1.3,0.66-2.05,0.63
				c-1.02-0.03-1.87-0.61-2.55-1.73c-1.23-2.04-2.77-4.01-4.61-5.89c-0.61-0.63-0.91-1.27-0.9-1.92
				C215.78,44.74,216.44,44.15,217.75,44.18z M223.9,39.2c1.36,0.04,3.27,1.11,5.72,3.21c2.3,1.95,3.41,3.58,3.35,4.89
				c-0.04,0.91-0.43,1.61-1.19,2.11c-0.55,0.36-1.16,0.53-1.83,0.5c-0.94-0.04-1.76-0.59-2.46-1.68c-1.19-1.8-2.74-3.62-4.64-5.45
				c-0.7-0.68-1.04-1.32-1.03-1.93c0.01-0.42,0.2-0.81,0.57-1.16C222.77,39.35,223.27,39.18,223.9,39.2z"/>
			<path class="st9" d="M255.59,53.37c1.14-3.11,2.12-5.93,2.93-8.49c0.61-1.95,1.99-2.85,4.16-2.7c2.98,0.22,4.38,1.44,4.2,3.66
				c-0.08,1.08-0.88,3.47-2.37,7.17c2.77-0.19,5.03-0.4,6.78-0.64c0.57-0.08,1.11-0.1,1.62-0.06c1.4,0.12,2.34,0.75,2.8,1.9
				c0.3,0.71,0.41,1.43,0.35,2.17c-0.16,1.79-1.29,2.85-3.39,3.18c-2.64,0.41-6.37,0.73-11.18,1c-0.09,0.22-0.19,0.43-0.28,0.65
				c-0.49,1.14-0.98,2.28-1.47,3.43c-5.2,12.21-8.9,20.53-11.33,24.92c-0.55,1.01-0.9,1.61-1.04,1.81
				c-0.87,1.24-2.08,1.82-3.66,1.73c-0.83-0.05-1.6-0.31-2.3-0.79c-1.16-0.78-1.7-1.8-1.64-3.07c0.03-0.68,0.47-1.77,1.33-3.27
				c2.29-4.01,4.91-9.43,7.91-16.25c0.6-1.32,1.13-2.56,1.58-3.72c1.11-2.69,1.82-4.4,2.11-5.15c-3.55,0.09-5.92,0.12-7.11,0.06
				c-1.28-0.07-2.23-0.57-2.84-1.52c-0.41-0.61-0.59-1.39-0.55-2.32c0.12-2.43,1.59-3.63,4.4-3.58
				C248.55,53.54,251.56,53.48,255.59,53.37z M266.99,81.73c1.01,0.08,1.88,0.6,2.61,1.55c2.25,2.93,6.7,4.68,13.38,5.34
				c0.45,0.04,0.84,0.07,1.16,0.09c0.45,0.03,0.71,0.04,0.77,0.05c1.05,0.11,1.89,0.46,2.52,1.06c0.86,0.84,1.23,1.89,1.09,3.15
				c-0.12,1.14-0.58,2.04-1.38,2.72c-0.87,0.76-2.13,1.05-3.76,0.89c-4.6-0.47-8.71-1.59-12.35-3.39c-3.29-1.6-5.53-3.68-6.71-6.25
				c-0.43-0.9-0.61-1.71-0.56-2.43c0.06-0.82,0.43-1.52,1.1-2.08C265.48,81.9,266.19,81.67,266.99,81.73z M282.62,65.79
				c3.12,0.3,5.09,0.65,5.92,1.01c1.8,0.78,2.61,2.09,2.41,3.92c-0.1,0.95-0.5,1.68-1.19,2.2c-0.79,0.62-1.79,0.87-2.98,0.74
				c-0.17-0.02-0.46-0.07-0.84-0.15c-1.97-0.35-3.54-0.58-4.72-0.69c-2.75-0.26-6.3-0.16-10.64,0.35c-0.49,0.06-0.92,0.08-1.29,0.05
				c-1.46-0.12-2.41-0.77-2.87-1.95c-0.18-0.48-0.25-1-0.21-1.54c0.1-1.27,0.96-2.21,2.57-2.82c1.68-0.63,3.97-1.04,6.87-1.23
				C278.06,65.53,280.38,65.57,282.62,65.79z"/>
			<path class="st9" d="M324.77,73.25c0.78-1.19,1.88-2.46,3.31-3.81c0.57-0.56,1.17-0.79,1.78-0.7c0.44,0.07,0.83,0.24,1.17,0.53
				c0.6,0.48,0.85,1.06,0.74,1.75c-0.08,0.54-0.47,1.27-1.17,2.17c-1.9,2.54-3.52,4.97-4.86,7.3c-1.13,1.97-2.56,2.83-4.28,2.59
				c-1.19-0.17-2.18-0.97-3-2.41c-1.56-2.74-1.97-6.9-1.21-12.5c0.74-5.45,1.93-10.61,3.6-15.46c0.75-2.14,2.25-3.06,4.48-2.74
				c1.39,0.2,2.41,0.73,3.06,1.59c0.51,0.7,0.7,1.51,0.56,2.46c-0.05,0.34-0.22,0.93-0.5,1.79c-1.66,4.82-2.77,9.22-3.34,13.18
				C324.84,70.9,324.72,72.33,324.77,73.25z M348.52,53.66c2.16,0.36,3.35,1.63,3.55,3.79c0.32,3.45-0.11,8.51-1.27,15.18
				c-2.3,13.11-7.01,22.34-13.96,27.8c-3.81,3-6.65,4.36-8.57,4.07c-0.95-0.15-1.62-0.62-2.01-1.43c-0.28-0.58-0.38-1.15-0.29-1.71
				c0.14-0.92,0.79-1.81,1.96-2.65c2.9-2.1,5.16-4.16,6.76-6.2c3.58-4.59,6.21-11.76,7.82-21.53c0.89-5.41,1.36-10.02,1.39-13.83
				c-0.01-0.37,0.01-0.68,0.05-0.96C344.3,54.05,345.82,53.2,348.52,53.66z"/>
		</g>
		<g>
			<path class="st10" d="M61.66,59.87c1.78-0.27,3.57-0.53,5.35-0.78c2.62-0.37,4.1,0.68,4.44,3.16c0.34,2.47-0.81,3.89-3.44,4.27
				c-0.2,0.03-0.51,0.06-0.93,0.1c-1.15,0.1-2.64,0.28-4.47,0.53c-0.53,0.08-0.99,0.14-1.39,0.18c-0.01,0.36-0.03,0.71-0.04,1.07
				c-0.02,0.89-0.04,1.78-0.07,2.67c-0.03,0.83-0.06,1.66-0.09,2.49c-0.03,0.71-0.05,1.42-0.08,2.13c-0.01,0.18-0.01,0.37-0.02,0.55
				c1.32-0.24,3.69-0.74,7.12-1.48c0.37-0.07,0.66-0.13,0.88-0.16c1.07-0.15,1.99,0.03,2.77,0.54c0.81,0.55,1.29,1.39,1.45,2.52
				c0.29,2.08-0.67,3.46-2.86,4.15c-1.43,0.46-4.48,1.08-9.15,1.9c0.04,2.16,0.16,3.8,0.33,4.93c0.86,5.5,3.98,7.82,9.37,7.04
				c7.58-1.09,10.9-5.25,9.94-12.62c-0.23-1.76-0.73-3.77-1.49-6.01c-0.22-0.63-0.35-1.15-0.4-1.55c-0.15-1.13,0.2-2.01,1.05-2.64
				c0.53-0.39,1.09-0.62,1.71-0.7c1.4-0.18,2.63,0.55,3.7,2.19c1.77,2.68,2.86,5.74,3.28,9.19c0.76,6.26-0.97,11.12-5.12,14.63
				c-2.89,2.45-6.8,4.01-11.75,4.73c-4.43,0.64-8.17,0.08-11.27-1.73c-3.72-2.15-6.02-5.76-6.85-10.86
				c-0.19-1.19-0.34-2.92-0.42-5.21c-3.14,0.51-5.16,0.81-6.06,0.85c-2.37,0.1-3.74-0.89-4.11-2.99c-0.19-1.08-0.01-2,0.53-2.73
				c0.54-0.74,1.33-1.2,2.38-1.37c0.2-0.03,0.5-0.07,0.92-0.12c1.21-0.12,3.23-0.42,6.08-0.88c-0.02-2.57,0.04-5.61,0.17-9.13
				c-0.2,0.03-0.39,0.06-0.59,0.1c-3.65,0.7-5.82,1.14-6.54,1.3c-0.3,0.07-0.52,0.12-0.65,0.14c-1.01,0.17-1.95,0.07-2.82-0.29
				c-1.1-0.48-1.75-1.31-1.96-2.49c-0.23-1.33,0.15-2.44,1.16-3.32c0.53-0.48,1.26-0.83,2.17-1.05c1.42-0.33,3.72-0.81,6.91-1.43
				c0.86-0.16,1.72-0.33,2.57-0.51c0.08-1.94,0.25-4.67,0.52-8.18c0.19-2.3,1.37-3.62,3.55-3.95c0.56-0.09,1.06-0.11,1.5-0.07
				c1.91,0.18,2.99,1.17,3.25,2.95c0.06,0.42,0.06,1-0.02,1.74C61.85,57.23,61.69,59.31,61.66,59.87z"/>
			<path class="st10" d="M133.8,53.93c0.39,1.06,0.63,2.33,0.73,3.83c0.21,3.12-0.48,7.3-2.04,12.52
				c-3.72,12.57-8.6,19.1-14.92,19.67c-2.54,0.23-4.94-0.77-7.21-2.99c-3.06-2.99-4.88-7.03-5.41-12.12
				c-0.56-5.43,1.11-10.61,5.11-15.5c2.78-3.37,6.29-6.1,10.52-8.17c4.23-2.07,8.72-3.27,13.42-3.59
				c6.38-0.43,11.87,0.94,16.39,4.09c5.47,3.8,8.29,9.16,8.57,16.03c0.25,6-1.44,11.23-4.97,15.69c-2.66,3.37-6.2,6.03-10.62,8.01
				c-1.13,0.49-2.06,0.76-2.81,0.81c-1.26,0.08-2.22-0.4-2.89-1.43c-0.26-0.43-0.41-0.85-0.44-1.27c-0.07-1.08,0.66-2.1,2.22-3.07
				c7.67-4.86,11.41-10.96,11.03-18.44c-0.25-4.94-2.19-8.76-5.85-11.41c-2.85-2.06-6.19-2.97-9.97-2.72
				C134.38,53.89,134.09,53.91,133.8,53.93z M126.38,55.9c-4.79,2.15-8.43,5.01-10.9,8.52c-2.16,3.08-3.07,6.23-2.77,9.43
				c0.27,2.82,1.01,5.1,2.21,6.84c0.85,1.2,1.67,1.76,2.47,1.69c1.85-0.17,3.72-2.71,5.66-7.62c1.51-3.73,2.61-7.35,3.29-10.87
				c0.46-2.39,0.64-4.22,0.54-5.48c-0.03-0.44-0.13-1.02-0.3-1.73c-0.07-0.33-0.12-0.52-0.14-0.56c0-0.02,0-0.04,0-0.06
				C126.42,56.04,126.4,55.98,126.38,55.9z"/>
			<path class="st10" d="M192.57,54.59c0.46,0,0.91,0,1.37,0c7.61-0.01,11.37,3.22,11.3,9.57c-0.04,4.27-0.98,9.3-2.75,15.08
				c-1.55,4.98-3.21,8.59-5.01,10.83c-1.6,1.99-3.45,2.98-5.56,2.99c-2.28,0.01-4.72-1.51-7.37-4.57c-1.13-1.3-1.7-2.35-1.72-3.15
				c-0.01-0.53,0.18-1.02,0.56-1.47c0.44-0.53,1.02-0.81,1.73-0.82c0.62-0.01,1.32,0.27,2.07,0.83c1.39,1.02,2.35,1.54,2.91,1.53
				c0.82-0.01,1.74-1.09,2.79-3.25c1.2-2.48,2.23-5.62,3.1-9.43c0.7-3.05,1.05-5.62,1.05-7.71c0-2.24-1.23-3.37-3.7-3.36
				c-0.6,0-1.23,0.03-1.92,0.07c-0.68,0.05-1.22,0.07-1.62,0.07c-2.97,7.62-6.07,14.46-9.32,20.52c-0.73,1.33-1.19,2.14-1.37,2.44
				c-0.86,1.29-1.98,1.94-3.37,1.98c-0.79,0.02-1.52-0.21-2.17-0.68c-1.16-0.84-1.76-1.88-1.79-3.13c-0.02-0.68,0.38-1.77,1.21-3.27
				c2.99-5.37,5.7-11.02,8.11-16.97c-2.81,0.39-4.78,0.68-5.89,0.88c-0.46,0.1-0.82,0.15-1.09,0.15c-0.9,0.02-1.65-0.28-2.24-0.9
				c-0.61-0.68-0.94-1.57-0.97-2.67c-0.06-2.16,1.21-3.42,3.82-3.78c3.41-0.46,6.48-0.84,9.23-1.15c1.58-4.46,2.87-8.34,3.83-11.63
				c0.57-1.99,1.86-3,3.86-3.01c0.95,0,1.83,0.2,2.64,0.63c1.2,0.63,1.79,1.53,1.79,2.7C196.1,44.96,194.9,48.51,192.57,54.59z
				 M213.2,52.84c1.65,0.03,4.13,1.89,7.4,5.6c4.77,5.38,7.04,9.32,6.96,11.74c-0.05,1.46-0.8,2.58-2.24,3.35
				c-0.78,0.42-1.59,0.62-2.43,0.59c-1.37-0.04-2.45-0.59-3.25-1.65c-0.19-0.26-0.49-0.85-0.9-1.77c-1.76-3.81-4.4-8.04-7.98-12.67
				c-0.56-0.73-0.84-1.48-0.83-2.27c0.01-0.91,0.36-1.63,1.03-2.17C211.6,53.08,212.35,52.83,213.2,52.84z M217.75,44.18
				c1.28,0.03,3.28,1.27,5.96,3.72c2.29,2.08,3.4,3.71,3.36,4.87c-0.03,0.82-0.43,1.52-1.21,2.09c-0.62,0.45-1.3,0.66-2.05,0.63
				c-1.02-0.03-1.87-0.61-2.55-1.73c-1.23-2.04-2.77-4.01-4.61-5.89c-0.61-0.63-0.91-1.27-0.9-1.92
				C215.78,44.74,216.44,44.15,217.75,44.18z M223.9,39.2c1.36,0.04,3.27,1.11,5.72,3.21c2.3,1.95,3.41,3.58,3.35,4.89
				c-0.04,0.91-0.43,1.61-1.19,2.11c-0.55,0.36-1.16,0.53-1.83,0.5c-0.94-0.04-1.76-0.59-2.46-1.68c-1.19-1.8-2.74-3.62-4.64-5.45
				c-0.7-0.68-1.04-1.32-1.03-1.93c0.01-0.42,0.2-0.81,0.57-1.16C222.77,39.35,223.27,39.18,223.9,39.2z"/>
			<path class="st10" d="M255.59,53.37c1.14-3.11,2.12-5.93,2.93-8.49c0.61-1.95,1.99-2.85,4.16-2.7c2.98,0.22,4.38,1.44,4.2,3.66
				c-0.08,1.08-0.88,3.47-2.37,7.17c2.77-0.19,5.03-0.4,6.78-0.64c0.57-0.08,1.11-0.1,1.62-0.06c1.4,0.12,2.34,0.75,2.8,1.9
				c0.3,0.71,0.41,1.43,0.35,2.17c-0.16,1.79-1.29,2.85-3.39,3.18c-2.64,0.41-6.37,0.73-11.18,1c-0.09,0.22-0.19,0.43-0.28,0.65
				c-0.49,1.14-0.98,2.28-1.47,3.43c-5.2,12.21-8.9,20.53-11.33,24.92c-0.55,1.01-0.9,1.61-1.04,1.81
				c-0.87,1.24-2.08,1.82-3.66,1.73c-0.83-0.05-1.6-0.31-2.3-0.79c-1.16-0.78-1.7-1.8-1.64-3.07c0.03-0.68,0.47-1.77,1.33-3.27
				c2.29-4.01,4.91-9.43,7.91-16.25c0.6-1.32,1.13-2.56,1.58-3.72c1.11-2.69,1.82-4.4,2.11-5.15c-3.55,0.09-5.92,0.12-7.11,0.06
				c-1.28-0.07-2.23-0.57-2.84-1.52c-0.41-0.61-0.59-1.39-0.55-2.32c0.12-2.43,1.59-3.63,4.4-3.58
				C248.55,53.54,251.56,53.48,255.59,53.37z M266.99,81.73c1.01,0.08,1.88,0.6,2.61,1.55c2.25,2.93,6.7,4.68,13.38,5.34
				c0.45,0.04,0.84,0.07,1.16,0.09c0.45,0.03,0.71,0.04,0.77,0.05c1.05,0.11,1.89,0.46,2.52,1.06c0.86,0.84,1.23,1.89,1.09,3.15
				c-0.12,1.14-0.58,2.04-1.38,2.72c-0.87,0.76-2.13,1.05-3.76,0.89c-4.6-0.47-8.71-1.59-12.35-3.39c-3.29-1.6-5.53-3.68-6.71-6.25
				c-0.43-0.9-0.61-1.71-0.56-2.43c0.06-0.82,0.43-1.52,1.1-2.08C265.48,81.9,266.19,81.67,266.99,81.73z M282.62,65.79
				c3.12,0.3,5.09,0.65,5.92,1.01c1.8,0.78,2.61,2.09,2.41,3.92c-0.1,0.95-0.5,1.68-1.19,2.2c-0.79,0.62-1.79,0.87-2.98,0.74
				c-0.17-0.02-0.46-0.07-0.84-0.15c-1.97-0.35-3.54-0.58-4.72-0.69c-2.75-0.26-6.3-0.16-10.64,0.35c-0.49,0.06-0.92,0.08-1.29,0.05
				c-1.46-0.12-2.41-0.77-2.87-1.95c-0.18-0.48-0.25-1-0.21-1.54c0.1-1.27,0.96-2.21,2.57-2.82c1.68-0.63,3.97-1.04,6.87-1.23
				C278.06,65.53,280.38,65.57,282.62,65.79z"/>
			<path class="st10" d="M324.77,73.25c0.78-1.19,1.88-2.46,3.31-3.81c0.57-0.56,1.17-0.79,1.78-0.7c0.44,0.07,0.83,0.24,1.17,0.53
				c0.6,0.48,0.85,1.06,0.74,1.75c-0.08,0.54-0.47,1.27-1.17,2.17c-1.9,2.54-3.52,4.97-4.86,7.3c-1.13,1.97-2.56,2.83-4.28,2.59
				c-1.19-0.17-2.18-0.97-3-2.41c-1.56-2.74-1.97-6.9-1.21-12.5c0.74-5.45,1.93-10.61,3.6-15.46c0.75-2.14,2.25-3.06,4.48-2.74
				c1.39,0.2,2.41,0.73,3.06,1.59c0.51,0.7,0.7,1.51,0.56,2.46c-0.05,0.34-0.22,0.93-0.5,1.79c-1.66,4.82-2.77,9.22-3.34,13.18
				C324.84,70.9,324.72,72.33,324.77,73.25z M348.52,53.66c2.16,0.36,3.35,1.63,3.55,3.79c0.32,3.45-0.11,8.51-1.27,15.18
				c-2.3,13.11-7.01,22.34-13.96,27.8c-3.81,3-6.65,4.36-8.57,4.07c-0.95-0.15-1.62-0.62-2.01-1.43c-0.28-0.58-0.38-1.15-0.29-1.71
				c0.14-0.92,0.79-1.81,1.96-2.65c2.9-2.1,5.16-4.16,6.76-6.2c3.58-4.59,6.21-11.76,7.82-21.53c0.89-5.41,1.36-10.02,1.39-13.83
				c-0.01-0.37,0.01-0.68,0.05-0.96C344.3,54.05,345.82,53.2,348.52,53.66z"/>
		</g>
		<g>
			<path class="st11" d="M61.66,59.87c1.78-0.27,3.57-0.53,5.35-0.78c2.62-0.37,4.1,0.68,4.44,3.16c0.34,2.47-0.81,3.89-3.44,4.27
				c-0.2,0.03-0.51,0.06-0.93,0.1c-1.15,0.1-2.64,0.28-4.47,0.53c-0.53,0.08-0.99,0.14-1.39,0.18c-0.01,0.36-0.03,0.71-0.04,1.07
				c-0.02,0.89-0.04,1.78-0.07,2.67c-0.03,0.83-0.06,1.66-0.09,2.49c-0.03,0.71-0.05,1.42-0.08,2.13c-0.01,0.18-0.01,0.37-0.02,0.55
				c1.32-0.24,3.69-0.74,7.12-1.48c0.37-0.07,0.66-0.13,0.88-0.16c1.07-0.15,1.99,0.03,2.77,0.54c0.81,0.55,1.29,1.39,1.45,2.52
				c0.29,2.08-0.67,3.46-2.86,4.15c-1.43,0.46-4.48,1.08-9.15,1.9c0.04,2.16,0.16,3.8,0.33,4.93c0.86,5.5,3.98,7.82,9.37,7.04
				c7.58-1.09,10.9-5.25,9.94-12.62c-0.23-1.76-0.73-3.77-1.49-6.01c-0.22-0.63-0.35-1.15-0.4-1.55c-0.15-1.13,0.2-2.01,1.05-2.64
				c0.53-0.39,1.09-0.62,1.71-0.7c1.4-0.18,2.63,0.55,3.7,2.19c1.77,2.68,2.86,5.74,3.28,9.19c0.76,6.26-0.97,11.12-5.12,14.63
				c-2.89,2.45-6.8,4.01-11.75,4.73c-4.43,0.64-8.17,0.08-11.27-1.73c-3.72-2.15-6.02-5.76-6.85-10.86
				c-0.19-1.19-0.34-2.92-0.42-5.21c-3.14,0.51-5.16,0.81-6.06,0.85c-2.37,0.1-3.74-0.89-4.11-2.99c-0.19-1.08-0.01-2,0.53-2.73
				c0.54-0.74,1.33-1.2,2.38-1.37c0.2-0.03,0.5-0.07,0.92-0.12c1.21-0.12,3.23-0.42,6.08-0.88c-0.02-2.57,0.04-5.61,0.17-9.13
				c-0.2,0.03-0.39,0.06-0.59,0.1c-3.65,0.7-5.82,1.14-6.54,1.3c-0.3,0.07-0.52,0.12-0.65,0.14c-1.01,0.17-1.95,0.07-2.82-0.29
				c-1.1-0.48-1.75-1.31-1.96-2.49c-0.23-1.33,0.15-2.44,1.16-3.32c0.53-0.48,1.26-0.83,2.17-1.05c1.42-0.33,3.72-0.81,6.91-1.43
				c0.86-0.16,1.72-0.33,2.57-0.51c0.08-1.94,0.25-4.67,0.52-8.18c0.19-2.3,1.37-3.62,3.55-3.95c0.56-0.09,1.06-0.11,1.5-0.07
				c1.91,0.18,2.99,1.17,3.25,2.95c0.06,0.42,0.06,1-0.02,1.74C61.85,57.23,61.69,59.31,61.66,59.87z"/>
			<path class="st11" d="M133.8,53.93c0.39,1.06,0.63,2.33,0.73,3.83c0.21,3.12-0.48,7.3-2.04,12.52
				c-3.72,12.57-8.6,19.1-14.92,19.67c-2.54,0.23-4.94-0.77-7.21-2.99c-3.06-2.99-4.88-7.03-5.41-12.12
				c-0.56-5.43,1.11-10.61,5.11-15.5c2.78-3.37,6.29-6.1,10.52-8.17c4.23-2.07,8.72-3.27,13.42-3.59
				c6.38-0.43,11.87,0.94,16.39,4.09c5.47,3.8,8.29,9.16,8.57,16.03c0.25,6-1.44,11.23-4.97,15.69c-2.66,3.37-6.2,6.03-10.62,8.01
				c-1.13,0.49-2.06,0.76-2.81,0.81c-1.26,0.08-2.22-0.4-2.89-1.43c-0.26-0.43-0.41-0.85-0.44-1.27c-0.07-1.08,0.66-2.1,2.22-3.07
				c7.67-4.86,11.41-10.96,11.03-18.44c-0.25-4.94-2.19-8.76-5.85-11.41c-2.85-2.06-6.19-2.97-9.97-2.72
				C134.38,53.89,134.09,53.91,133.8,53.93z M126.38,55.9c-4.79,2.15-8.43,5.01-10.9,8.52c-2.16,3.08-3.07,6.23-2.77,9.43
				c0.27,2.82,1.01,5.1,2.21,6.84c0.85,1.2,1.67,1.76,2.47,1.69c1.85-0.17,3.72-2.71,5.66-7.62c1.51-3.73,2.61-7.35,3.29-10.87
				c0.46-2.39,0.64-4.22,0.54-5.48c-0.03-0.44-0.13-1.02-0.3-1.73c-0.07-0.33-0.12-0.52-0.14-0.56c0-0.02,0-0.04,0-0.06
				C126.42,56.04,126.4,55.98,126.38,55.9z"/>
			<path class="st11" d="M192.57,54.59c0.46,0,0.91,0,1.37,0c7.61-0.01,11.37,3.22,11.3,9.57c-0.04,4.27-0.98,9.3-2.75,15.08
				c-1.55,4.98-3.21,8.59-5.01,10.83c-1.6,1.99-3.45,2.98-5.56,2.99c-2.28,0.01-4.72-1.51-7.37-4.57c-1.13-1.3-1.7-2.35-1.72-3.15
				c-0.01-0.53,0.18-1.02,0.56-1.47c0.44-0.53,1.02-0.81,1.73-0.82c0.62-0.01,1.32,0.27,2.07,0.83c1.39,1.02,2.35,1.54,2.91,1.53
				c0.82-0.01,1.74-1.09,2.79-3.25c1.2-2.48,2.23-5.62,3.1-9.43c0.7-3.05,1.05-5.62,1.05-7.71c0-2.24-1.23-3.37-3.7-3.36
				c-0.6,0-1.23,0.03-1.92,0.07c-0.68,0.05-1.22,0.07-1.62,0.07c-2.97,7.62-6.07,14.46-9.32,20.52c-0.73,1.33-1.19,2.14-1.37,2.44
				c-0.86,1.29-1.98,1.94-3.37,1.98c-0.79,0.02-1.52-0.21-2.17-0.68c-1.16-0.84-1.76-1.88-1.79-3.13c-0.02-0.68,0.38-1.77,1.21-3.27
				c2.99-5.37,5.7-11.02,8.11-16.97c-2.81,0.39-4.78,0.68-5.89,0.88c-0.46,0.1-0.82,0.15-1.09,0.15c-0.9,0.02-1.65-0.28-2.24-0.9
				c-0.61-0.68-0.94-1.57-0.97-2.67c-0.06-2.16,1.21-3.42,3.82-3.78c3.41-0.46,6.48-0.84,9.23-1.15c1.58-4.46,2.87-8.34,3.83-11.63
				c0.57-1.99,1.86-3,3.86-3.01c0.95,0,1.83,0.2,2.64,0.63c1.2,0.63,1.79,1.53,1.79,2.7C196.1,44.96,194.9,48.51,192.57,54.59z
				 M213.2,52.84c1.65,0.03,4.13,1.89,7.4,5.6c4.77,5.38,7.04,9.32,6.96,11.74c-0.05,1.46-0.8,2.58-2.24,3.35
				c-0.78,0.42-1.59,0.62-2.43,0.59c-1.37-0.04-2.45-0.59-3.25-1.65c-0.19-0.26-0.49-0.85-0.9-1.77c-1.76-3.81-4.4-8.04-7.98-12.67
				c-0.56-0.73-0.84-1.48-0.83-2.27c0.01-0.91,0.36-1.63,1.03-2.17C211.6,53.08,212.35,52.83,213.2,52.84z M217.75,44.18
				c1.28,0.03,3.28,1.27,5.96,3.72c2.29,2.08,3.4,3.71,3.36,4.87c-0.03,0.82-0.43,1.52-1.21,2.09c-0.62,0.45-1.3,0.66-2.05,0.63
				c-1.02-0.03-1.87-0.61-2.55-1.73c-1.23-2.04-2.77-4.01-4.61-5.89c-0.61-0.63-0.91-1.27-0.9-1.92
				C215.78,44.74,216.44,44.15,217.75,44.18z M223.9,39.2c1.36,0.04,3.27,1.11,5.72,3.21c2.3,1.95,3.41,3.58,3.35,4.89
				c-0.04,0.91-0.43,1.61-1.19,2.11c-0.55,0.36-1.16,0.53-1.83,0.5c-0.94-0.04-1.76-0.59-2.46-1.68c-1.19-1.8-2.74-3.62-4.64-5.45
				c-0.7-0.68-1.04-1.32-1.03-1.93c0.01-0.42,0.2-0.81,0.57-1.16C222.77,39.35,223.27,39.18,223.9,39.2z"/>
			<path class="st11" d="M255.59,53.37c1.14-3.11,2.12-5.93,2.93-8.49c0.61-1.95,1.99-2.85,4.16-2.7c2.98,0.22,4.38,1.44,4.2,3.66
				c-0.08,1.08-0.88,3.47-2.37,7.17c2.77-0.19,5.03-0.4,6.78-0.64c0.57-0.08,1.11-0.1,1.62-0.06c1.4,0.12,2.34,0.75,2.8,1.9
				c0.3,0.71,0.41,1.43,0.35,2.17c-0.16,1.79-1.29,2.85-3.39,3.18c-2.64,0.41-6.37,0.73-11.18,1c-0.09,0.22-0.19,0.43-0.28,0.65
				c-0.49,1.14-0.98,2.28-1.47,3.43c-5.2,12.21-8.9,20.53-11.33,24.92c-0.55,1.01-0.9,1.61-1.04,1.81
				c-0.87,1.24-2.08,1.82-3.66,1.73c-0.83-0.05-1.6-0.31-2.3-0.79c-1.16-0.78-1.7-1.8-1.64-3.07c0.03-0.68,0.47-1.77,1.33-3.27
				c2.29-4.01,4.91-9.43,7.91-16.25c0.6-1.32,1.13-2.56,1.58-3.72c1.11-2.69,1.82-4.4,2.11-5.15c-3.55,0.09-5.92,0.12-7.11,0.06
				c-1.28-0.07-2.23-0.57-2.84-1.52c-0.41-0.61-0.59-1.39-0.55-2.32c0.12-2.43,1.59-3.63,4.4-3.58
				C248.55,53.54,251.56,53.48,255.59,53.37z M266.99,81.73c1.01,0.08,1.88,0.6,2.61,1.55c2.25,2.93,6.7,4.68,13.38,5.34
				c0.45,0.04,0.84,0.07,1.16,0.09c0.45,0.03,0.71,0.04,0.77,0.05c1.05,0.11,1.89,0.46,2.52,1.06c0.86,0.84,1.23,1.89,1.09,3.15
				c-0.12,1.14-0.58,2.04-1.38,2.72c-0.87,0.76-2.13,1.05-3.76,0.89c-4.6-0.47-8.71-1.59-12.35-3.39c-3.29-1.6-5.53-3.68-6.71-6.25
				c-0.43-0.9-0.61-1.71-0.56-2.43c0.06-0.82,0.43-1.52,1.1-2.08C265.48,81.9,266.19,81.67,266.99,81.73z M282.62,65.79
				c3.12,0.3,5.09,0.65,5.92,1.01c1.8,0.78,2.61,2.09,2.41,3.92c-0.1,0.95-0.5,1.68-1.19,2.2c-0.79,0.62-1.79,0.87-2.98,0.74
				c-0.17-0.02-0.46-0.07-0.84-0.15c-1.97-0.35-3.54-0.58-4.72-0.69c-2.75-0.26-6.3-0.16-10.64,0.35c-0.49,0.06-0.92,0.08-1.29,0.05
				c-1.46-0.12-2.41-0.77-2.87-1.95c-0.18-0.48-0.25-1-0.21-1.54c0.1-1.27,0.96-2.21,2.57-2.82c1.68-0.63,3.97-1.04,6.87-1.23
				C278.06,65.53,280.38,65.57,282.62,65.79z"/>
			<path class="st11" d="M324.77,73.25c0.78-1.19,1.88-2.46,3.31-3.81c0.57-0.56,1.17-0.79,1.78-0.7c0.44,0.07,0.83,0.24,1.17,0.53
				c0.6,0.48,0.85,1.06,0.74,1.75c-0.08,0.54-0.47,1.27-1.17,2.17c-1.9,2.54-3.52,4.97-4.86,7.3c-1.13,1.97-2.56,2.83-4.28,2.59
				c-1.19-0.17-2.18-0.97-3-2.41c-1.56-2.74-1.97-6.9-1.21-12.5c0.74-5.45,1.93-10.61,3.6-15.46c0.75-2.14,2.25-3.06,4.48-2.74
				c1.39,0.2,2.41,0.73,3.06,1.59c0.51,0.7,0.7,1.51,0.56,2.46c-0.05,0.34-0.22,0.93-0.5,1.79c-1.66,4.82-2.77,9.22-3.34,13.18
				C324.84,70.9,324.72,72.33,324.77,73.25z M348.52,53.66c2.16,0.36,3.35,1.63,3.55,3.79c0.32,3.45-0.11,8.51-1.27,15.18
				c-2.3,13.11-7.01,22.34-13.96,27.8c-3.81,3-6.65,4.36-8.57,4.07c-0.95-0.15-1.62-0.62-2.01-1.43c-0.28-0.58-0.38-1.15-0.29-1.71
				c0.14-0.92,0.79-1.81,1.96-2.65c2.9-2.1,5.16-4.16,6.76-6.2c3.58-4.59,6.21-11.76,7.82-21.53c0.89-5.41,1.36-10.02,1.39-13.83
				c-0.01-0.37,0.01-0.68,0.05-0.96C344.3,54.05,345.82,53.2,348.52,53.66z"/>
		</g>
		<g>
			<path class="st12" d="M61.66,59.87c1.78-0.27,3.57-0.53,5.35-0.78c2.62-0.37,4.1,0.68,4.44,3.16c0.34,2.47-0.81,3.89-3.44,4.27
				c-0.2,0.03-0.51,0.06-0.93,0.1c-1.15,0.1-2.64,0.28-4.47,0.53c-0.53,0.08-0.99,0.14-1.39,0.18c-0.01,0.36-0.03,0.71-0.04,1.07
				c-0.02,0.89-0.04,1.78-0.07,2.67c-0.03,0.83-0.06,1.66-0.09,2.49c-0.03,0.71-0.05,1.42-0.08,2.13c-0.01,0.18-0.01,0.37-0.02,0.55
				c1.32-0.24,3.69-0.74,7.12-1.48c0.37-0.07,0.66-0.13,0.88-0.16c1.07-0.15,1.99,0.03,2.77,0.54c0.81,0.55,1.29,1.39,1.45,2.52
				c0.29,2.08-0.67,3.46-2.86,4.15c-1.43,0.46-4.48,1.08-9.15,1.9c0.04,2.16,0.16,3.8,0.33,4.93c0.86,5.5,3.98,7.82,9.37,7.04
				c7.58-1.09,10.9-5.25,9.94-12.62c-0.23-1.76-0.73-3.77-1.49-6.01c-0.22-0.63-0.35-1.15-0.4-1.55c-0.15-1.13,0.2-2.01,1.05-2.64
				c0.53-0.39,1.09-0.62,1.71-0.7c1.4-0.18,2.63,0.55,3.7,2.19c1.77,2.68,2.86,5.74,3.28,9.19c0.76,6.26-0.97,11.12-5.12,14.63
				c-2.89,2.45-6.8,4.01-11.75,4.73c-4.43,0.64-8.17,0.08-11.27-1.73c-3.72-2.15-6.02-5.76-6.85-10.86
				c-0.19-1.19-0.34-2.92-0.42-5.21c-3.14,0.51-5.16,0.81-6.06,0.85c-2.37,0.1-3.74-0.89-4.11-2.99c-0.19-1.08-0.01-2,0.53-2.73
				c0.54-0.74,1.33-1.2,2.38-1.37c0.2-0.03,0.5-0.07,0.92-0.12c1.21-0.12,3.23-0.42,6.08-0.88c-0.02-2.57,0.04-5.61,0.17-9.13
				c-0.2,0.03-0.39,0.06-0.59,0.1c-3.65,0.7-5.82,1.14-6.54,1.3c-0.3,0.07-0.52,0.12-0.65,0.14c-1.01,0.17-1.95,0.07-2.82-0.29
				c-1.1-0.48-1.75-1.31-1.96-2.49c-0.23-1.33,0.15-2.44,1.16-3.32c0.53-0.48,1.26-0.83,2.17-1.05c1.42-0.33,3.72-0.81,6.91-1.43
				c0.86-0.16,1.72-0.33,2.57-0.51c0.08-1.94,0.25-4.67,0.52-8.18c0.19-2.3,1.37-3.62,3.55-3.95c0.56-0.09,1.06-0.11,1.5-0.07
				c1.91,0.18,2.99,1.17,3.25,2.95c0.06,0.42,0.06,1-0.02,1.74C61.85,57.23,61.69,59.31,61.66,59.87z"/>
			<path class="st12" d="M133.8,53.93c0.39,1.06,0.63,2.33,0.73,3.83c0.21,3.12-0.48,7.3-2.04,12.52
				c-3.72,12.57-8.6,19.1-14.92,19.67c-2.54,0.23-4.94-0.77-7.21-2.99c-3.06-2.99-4.88-7.03-5.41-12.12
				c-0.56-5.43,1.11-10.61,5.11-15.5c2.78-3.37,6.29-6.1,10.52-8.17c4.23-2.07,8.72-3.27,13.42-3.59
				c6.38-0.43,11.87,0.94,16.39,4.09c5.47,3.8,8.29,9.16,8.57,16.03c0.25,6-1.44,11.23-4.97,15.69c-2.66,3.37-6.2,6.03-10.62,8.01
				c-1.13,0.49-2.06,0.76-2.81,0.81c-1.26,0.08-2.22-0.4-2.89-1.43c-0.26-0.43-0.41-0.85-0.44-1.27c-0.07-1.08,0.66-2.1,2.22-3.07
				c7.67-4.86,11.41-10.96,11.03-18.44c-0.25-4.94-2.19-8.76-5.85-11.41c-2.85-2.06-6.19-2.97-9.97-2.72
				C134.38,53.89,134.09,53.91,133.8,53.93z M126.38,55.9c-4.79,2.15-8.43,5.01-10.9,8.52c-2.16,3.08-3.07,6.23-2.77,9.43
				c0.27,2.82,1.01,5.1,2.21,6.84c0.85,1.2,1.67,1.76,2.47,1.69c1.85-0.17,3.72-2.71,5.66-7.62c1.51-3.73,2.61-7.35,3.29-10.87
				c0.46-2.39,0.64-4.22,0.54-5.48c-0.03-0.44-0.13-1.02-0.3-1.73c-0.07-0.33-0.12-0.52-0.14-0.56c0-0.02,0-0.04,0-0.06
				C126.42,56.04,126.4,55.98,126.38,55.9z"/>
			<path class="st12" d="M192.57,54.59c0.46,0,0.91,0,1.37,0c7.61-0.01,11.37,3.22,11.3,9.57c-0.04,4.27-0.98,9.3-2.75,15.08
				c-1.55,4.98-3.21,8.59-5.01,10.83c-1.6,1.99-3.45,2.98-5.56,2.99c-2.28,0.01-4.72-1.51-7.37-4.57c-1.13-1.3-1.7-2.35-1.72-3.15
				c-0.01-0.53,0.18-1.02,0.56-1.47c0.44-0.53,1.02-0.81,1.73-0.82c0.62-0.01,1.32,0.27,2.07,0.83c1.39,1.02,2.35,1.54,2.91,1.53
				c0.82-0.01,1.74-1.09,2.79-3.25c1.2-2.48,2.23-5.62,3.1-9.43c0.7-3.05,1.05-5.62,1.05-7.71c0-2.24-1.23-3.37-3.7-3.36
				c-0.6,0-1.23,0.03-1.92,0.07c-0.68,0.05-1.22,0.07-1.62,0.07c-2.97,7.62-6.07,14.46-9.32,20.52c-0.73,1.33-1.19,2.14-1.37,2.44
				c-0.86,1.29-1.98,1.94-3.37,1.98c-0.79,0.02-1.52-0.21-2.17-0.68c-1.16-0.84-1.76-1.88-1.79-3.13c-0.02-0.68,0.38-1.77,1.21-3.27
				c2.99-5.37,5.7-11.02,8.11-16.97c-2.81,0.39-4.78,0.68-5.89,0.88c-0.46,0.1-0.82,0.15-1.09,0.15c-0.9,0.02-1.65-0.28-2.24-0.9
				c-0.61-0.68-0.94-1.57-0.97-2.67c-0.06-2.16,1.21-3.42,3.82-3.78c3.41-0.46,6.48-0.84,9.23-1.15c1.58-4.46,2.87-8.34,3.83-11.63
				c0.57-1.99,1.86-3,3.86-3.01c0.95,0,1.83,0.2,2.64,0.63c1.2,0.63,1.79,1.53,1.79,2.7C196.1,44.96,194.9,48.51,192.57,54.59z
				 M213.2,52.84c1.65,0.03,4.13,1.89,7.4,5.6c4.77,5.38,7.04,9.32,6.96,11.74c-0.05,1.46-0.8,2.58-2.24,3.35
				c-0.78,0.42-1.59,0.62-2.43,0.59c-1.37-0.04-2.45-0.59-3.25-1.65c-0.19-0.26-0.49-0.85-0.9-1.77c-1.76-3.81-4.4-8.04-7.98-12.67
				c-0.56-0.73-0.84-1.48-0.83-2.27c0.01-0.91,0.36-1.63,1.03-2.17C211.6,53.08,212.35,52.83,213.2,52.84z M217.75,44.18
				c1.28,0.03,3.28,1.27,5.96,3.72c2.29,2.08,3.4,3.71,3.36,4.87c-0.03,0.82-0.43,1.52-1.21,2.09c-0.62,0.45-1.3,0.66-2.05,0.63
				c-1.02-0.03-1.87-0.61-2.55-1.73c-1.23-2.04-2.77-4.01-4.61-5.89c-0.61-0.63-0.91-1.27-0.9-1.92
				C215.78,44.74,216.44,44.15,217.75,44.18z M223.9,39.2c1.36,0.04,3.27,1.11,5.72,3.21c2.3,1.95,3.41,3.58,3.35,4.89
				c-0.04,0.91-0.43,1.61-1.19,2.11c-0.55,0.36-1.16,0.53-1.83,0.5c-0.94-0.04-1.76-0.59-2.46-1.68c-1.19-1.8-2.74-3.62-4.64-5.45
				c-0.7-0.68-1.04-1.32-1.03-1.93c0.01-0.42,0.2-0.81,0.57-1.16C222.77,39.35,223.27,39.18,223.9,39.2z"/>
			<path class="st12" d="M255.59,53.37c1.14-3.11,2.12-5.93,2.93-8.49c0.61-1.95,1.99-2.85,4.16-2.7c2.98,0.22,4.38,1.44,4.2,3.66
				c-0.08,1.08-0.88,3.47-2.37,7.17c2.77-0.19,5.03-0.4,6.78-0.64c0.57-0.08,1.11-0.1,1.62-0.06c1.4,0.12,2.34,0.75,2.8,1.9
				c0.3,0.71,0.41,1.43,0.35,2.17c-0.16,1.79-1.29,2.85-3.39,3.18c-2.64,0.41-6.37,0.73-11.18,1c-0.09,0.22-0.19,0.43-0.28,0.65
				c-0.49,1.14-0.98,2.28-1.47,3.43c-5.2,12.21-8.9,20.53-11.33,24.92c-0.55,1.01-0.9,1.61-1.04,1.81
				c-0.87,1.24-2.08,1.82-3.66,1.73c-0.83-0.05-1.6-0.31-2.3-0.79c-1.16-0.78-1.7-1.8-1.64-3.07c0.03-0.68,0.47-1.77,1.33-3.27
				c2.29-4.01,4.91-9.43,7.91-16.25c0.6-1.32,1.13-2.56,1.58-3.72c1.11-2.69,1.82-4.4,2.11-5.15c-3.55,0.09-5.92,0.12-7.11,0.06
				c-1.28-0.07-2.23-0.57-2.84-1.52c-0.41-0.61-0.59-1.39-0.55-2.32c0.12-2.43,1.59-3.63,4.4-3.58
				C248.55,53.54,251.56,53.48,255.59,53.37z M266.99,81.73c1.01,0.08,1.88,0.6,2.61,1.55c2.25,2.93,6.7,4.68,13.38,5.34
				c0.45,0.04,0.84,0.07,1.16,0.09c0.45,0.03,0.71,0.04,0.77,0.05c1.05,0.11,1.89,0.46,2.52,1.06c0.86,0.84,1.23,1.89,1.09,3.15
				c-0.12,1.14-0.58,2.04-1.38,2.72c-0.87,0.76-2.13,1.05-3.76,0.89c-4.6-0.47-8.71-1.59-12.35-3.39c-3.29-1.6-5.53-3.68-6.71-6.25
				c-0.43-0.9-0.61-1.71-0.56-2.43c0.06-0.82,0.43-1.52,1.1-2.08C265.48,81.9,266.19,81.67,266.99,81.73z M282.62,65.79
				c3.12,0.3,5.09,0.65,5.92,1.01c1.8,0.78,2.61,2.09,2.41,3.92c-0.1,0.95-0.5,1.68-1.19,2.2c-0.79,0.62-1.79,0.87-2.98,0.74
				c-0.17-0.02-0.46-0.07-0.84-0.15c-1.97-0.35-3.54-0.58-4.72-0.69c-2.75-0.26-6.3-0.16-10.64,0.35c-0.49,0.06-0.92,0.08-1.29,0.05
				c-1.46-0.12-2.41-0.77-2.87-1.95c-0.18-0.48-0.25-1-0.21-1.54c0.1-1.27,0.96-2.21,2.57-2.82c1.68-0.63,3.97-1.04,6.87-1.23
				C278.06,65.53,280.38,65.57,282.62,65.79z"/>
			<path class="st12" d="M324.77,73.25c0.78-1.19,1.88-2.46,3.31-3.81c0.57-0.56,1.17-0.79,1.78-0.7c0.44,0.07,0.83,0.24,1.17,0.53
				c0.6,0.48,0.85,1.06,0.74,1.75c-0.08,0.54-0.47,1.27-1.17,2.17c-1.9,2.54-3.52,4.97-4.86,7.3c-1.13,1.97-2.56,2.83-4.28,2.59
				c-1.19-0.17-2.18-0.97-3-2.41c-1.56-2.74-1.97-6.9-1.21-12.5c0.74-5.45,1.93-10.61,3.6-15.46c0.75-2.14,2.25-3.06,4.48-2.74
				c1.39,0.2,2.41,0.73,3.06,1.59c0.51,0.7,0.7,1.51,0.56,2.46c-0.05,0.34-0.22,0.93-0.5,1.79c-1.66,4.82-2.77,9.22-3.34,13.18
				C324.84,70.9,324.72,72.33,324.77,73.25z M348.52,53.66c2.16,0.36,3.35,1.63,3.55,3.79c0.32,3.45-0.11,8.51-1.27,15.18
				c-2.3,13.11-7.01,22.34-13.96,27.8c-3.81,3-6.65,4.36-8.57,4.07c-0.95-0.15-1.62-0.62-2.01-1.43c-0.28-0.58-0.38-1.15-0.29-1.71
				c0.14-0.92,0.79-1.81,1.96-2.65c2.9-2.1,5.16-4.16,6.76-6.2c3.58-4.59,6.21-11.76,7.82-21.53c0.89-5.41,1.36-10.02,1.39-13.83
				c-0.01-0.37,0.01-0.68,0.05-0.96C344.3,54.05,345.82,53.2,348.52,53.66z"/>
		</g>
	</g>
</g>
<g id="レイヤー_6">
	<path class="st13" d="M377.71,120.43c-3.74,7.54-10.26,5.32-17.79,1.58c-7.54-3.74-13.24-7.59-9.5-15.13
		c3.74-7.54,12.88-10.61,20.42-6.87C378.37,103.76,381.45,112.9,377.71,120.43z"/>
	
		<radialGradient id="SVGID_1_" cx="349.0865" cy="78.5596" r="10.1994" gradientTransform="matrix(0.9975 0.4951 -0.549 1.106 64.5276 -157.9113)" gradientUnits="userSpaceOnUse">
		<stop  offset="0.4514" style="stop-color:#FFF5CE;stop-opacity:0.5"/>
		<stop  offset="1" style="stop-color:#FCFDFD;stop-opacity:0"/>
	</radialGradient>
	<path class="st14" d="M356.35,102.63c1.88-3.78,8.58-5.15,14.55-2.18s8.93,9.12,7.06,12.91s-8.23,4.45-14.2,1.49
		S354.48,106.41,356.35,102.63z"/>
	<path class="st15" d="M376.27,110.99c-0.13-0.19-0.28-0.36-0.45-0.5c1.36-1.06,1.62-3.12,0.55-4.72c-1.11-1.66-3.25-2.17-4.76-1.15
		c-1.51,1.02-1.84,3.19-0.72,4.84c0.49,0.72,1.16,1.23,1.9,1.48c-0.37,0.67-0.34,1.56,0.15,2.29c0.68,1.01,1.97,1.32,2.89,0.7
		C376.76,113.31,376.95,111.99,376.27,110.99z"/>
	<g>
		<path class="st13" d="M403.91,111.08c-0.32,4.24-3.79,4.44-8.03,4.11c-4.24-0.32-7.64-1.05-7.31-5.29
			c0.32-4.24,4.02-7.41,8.26-7.09C401.06,103.14,404.23,106.84,403.91,111.08z"/>
		
			<radialGradient id="SVGID_2_" cx="369.3394" cy="75.8495" r="5.1532" gradientTransform="matrix(1.1104 0.0848 -0.0941 1.2312 -6.3819 -20.8273)" gradientUnits="userSpaceOnUse">
			<stop  offset="0.4514" style="stop-color:#FFF5CE;stop-opacity:0.5"/>
			<stop  offset="1" style="stop-color:#FCFDFD;stop-opacity:0"/>
		</radialGradient>
		<path class="st16" d="M390.53,106.79c0.16-2.13,3.04-4.04,6.4-3.78s5.91,2.58,5.75,4.71c-0.16,2.13-3.01,3.64-6.37,3.39
			S390.37,108.91,390.53,106.79z"/>
		<path class="st15" d="M401.44,106.92c-0.1-0.07-0.2-0.12-0.31-0.15c0.44-0.76,0.17-1.77-0.63-2.31c-0.84-0.56-1.93-0.4-2.45,0.36
			c-0.52,0.76-0.26,1.84,0.58,2.4c0.36,0.25,0.78,0.35,1.17,0.33c-0.04,0.38,0.14,0.79,0.51,1.04c0.51,0.34,1.17,0.24,1.49-0.22
			C402.11,107.92,401.95,107.27,401.44,106.92z"/>
	</g>
</g>
</svg>
