<?xml version="1.0" encoding="utf-8"?>
<!-- Generator: Adobe Illustrator 25.1.0, SVG Export Plug-In . SVG Version: 6.00 Build 0)  -->
<svg version="1.1" xmlns="http://www.w3.org/2000/svg" xmlns:xlink="http://www.w3.org/1999/xlink" x="0px" y="0px"
	 viewBox="0 0 406.55 127.76" style="enable-background:new 0 0 406.55 127.76;" xml:space="preserve">
<style type="text/css">
	.st0{display:none;}
	.st1{display:inline;fill:none;stroke:#2EA7E0;stroke-width:3;stroke-linecap:round;}
	.st2{fill:#FBE2DC;stroke:#727171;stroke-width:2;}
	.st3{fill:#FCFCE5;stroke:#727171;stroke-width:2;}
	.st4{fill:#D5EAD1;stroke:#727171;stroke-width:2;}
	.st5{fill:#C2E3DB;stroke:#727171;stroke-width:2;}
	.st6{fill:none;stroke:#727171;stroke-width:2;}
	.st7{display:inline;fill:#6BBF8E;}
	.st8{display:inline;fill:#F9D4E3;}
	.st9{fill:#EFD376;}
	.st10{fill:none;stroke:#F5CE1E;stroke-width:8;}
	.st11{fill:none;stroke:#E47A21;stroke-width:3;}
	.st12{fill:#FFFFFF;}
	.st13{fill:#FEF8EE;stroke:#FBDAB7;stroke-width:3;stroke-miterlimit:10;}
	.st14{fill:url(#SVGID_1_);}
	.st15{fill:#FFFEF8;}
	.st16{fill:url(#SVGID_2_);}
</style>
<g id="レイヤー_3" class="st0">
	<path class="st1" d="M31,82.36c0,0,0-13.61,92.15-13.61c35.93,0,97.28,6.13,125.13,8.43c21.2,1.75,84.88-9.21,110.47-8.43
		c39.48,1.21,38.22,13.61,38.22,13.61"/>
</g>
<g id="レイヤー_4" class="st0">
	<path class="st1" d="M40.95,1.97h338.99c9.79,0,17.72,7.94,17.72,17.72v49.13c0,9.79-7.94,17.72-17.72,17.72H40.95
		c-9.79,0-17.72-7.94-17.72-17.72V19.7C23.23,9.91,31.16,1.97,40.95,1.97z"/>
</g>
<g id="レイヤー_8">
</g>
<g id="レイヤー_7">
	<g>
		<path class="st2" d="M41.96,55.3c0,0-9.14,0.87-20.33,0.14s-16.93-2.4-16.93-2.4L20.4,85.77L41.96,55.3z"/>
		<path class="st3" d="M82.26,46.93c0,0-8.53,3.38-19.49,5.8c-10.95,2.41-16.93,2.41-16.93,2.41L70.03,82.2L82.26,46.93z"/>
		<path class="st4" d="M120.09,30.51c0,0-7.66,5.06-17.88,9.68s-16.07,5.84-16.07,5.84l29.24,21.52L120.09,30.51z"/>
		<path class="st5" d="M148.38,6.96c0,0-6.03,6.92-14.65,14.1c-8.62,7.17-13.93,9.91-13.93,9.91l33.92,12.94L148.38,6.96z"/>
		<path class="st6" d="M0,51.41c0,0,39.2,10.69,88.93-7.51S151.08,0,151.08,0"/>
	</g>
	<g>
		<path class="st2" d="M360.72,55.3c0,0,9.14,0.87,20.33,0.14c11.19-0.73,16.93-2.4,16.93-2.4l-15.69,32.73L360.72,55.3z"/>
		<path class="st3" d="M320.43,46.93c0,0,8.53,3.38,19.49,5.8c10.95,2.41,16.93,2.41,16.93,2.41L332.65,82.2L320.43,46.93z"/>
		<path class="st4" d="M282.6,30.51c0,0,7.66,5.06,17.88,9.68c10.22,4.61,16.07,5.84,16.07,5.84l-29.24,21.52L282.6,30.51z"/>
		<path class="st5" d="M254.3,6.96c0,0,6.03,6.92,14.65,14.1c8.62,7.17,13.93,9.91,13.93,9.91L248.97,43.9L254.3,6.96z"/>
		<path class="st6" d="M402.69,51.41c0,0-39.2,10.69-88.93-7.51S251.61,0,251.61,0"/>
	</g>
</g>
<g id="レイヤー_2" class="st0">
	<path class="st7" d="M238.93,79.85c0,0,33.69-31.54,32.9-12.27c-0.21,5.18-8.16,11.78-11.67,13.81
		C250.63,86.91,238.93,79.85,238.93,79.85z"/>
	<path class="st8" d="M210.44,6.1c-9.73,0-44.39,23.1-44.39,47.62c0,21.84,26.29,33.57,40.02,34.35c4.37,0.58,1.12-2.15,2.56-1.79
		c0,0,1.17,2,5.13,2c17.25,0,41.07-11.84,41.07-34.56C254.84,29.2,220.18,6.1,210.44,6.1z"/>
</g>
<g id="レイヤー_1">
	<g>
		<g>
			<path class="st9" d="M32.66,54.65c4.14-0.79,8.29-1.56,12.45-2.31c0.31-0.04,0.48-0.07,0.53-0.07c4.08-0.57,6.34,0.81,6.79,4.12
				c0.14,1.01,0.06,2.44-0.22,4.29c-2.32,14.93-9.42,27.6-21.03,38.31c-4.54,4.16-7.69,6.41-9.54,6.72
				c-0.95,0.16-1.78-0.14-2.49-0.89c-0.48-0.5-0.76-1.02-0.85-1.56c-0.13-0.75,0.1-1.52,0.68-2.31c0.23-0.3,0.94-0.97,2.14-2.01
				c5.33-4.62,10.01-9.86,14.04-15.74c-3.25-2.43-6.4-4.46-9.43-6.09c-1.33-0.68-2.07-1.47-2.21-2.37c-0.09-0.52,0.01-1.06,0.3-1.63
				c0.46-0.87,1.2-1.38,2.22-1.55c0.85-0.14,1.88-0.03,3.12,0.31c3.78,1.01,7.15,2.39,10.1,4.13c2.18-4.73,3.6-9.25,4.23-13.55
				c0.15-0.98,0.2-1.61,0.16-1.88c-0.07-0.5-0.52-0.67-1.35-0.51c-4.03,0.78-8.06,1.57-12.09,2.39c-3.62,6.5-7.51,11.67-11.71,15.53
				c-1.34,1.24-2.51,1.94-3.5,2.11c-0.9,0.16-1.65-0.07-2.25-0.67c-0.4-0.4-0.65-0.87-0.75-1.42c-0.13-0.73,0.06-1.52,0.55-2.38
				c0.17-0.29,0.74-1.02,1.69-2.19c3.18-3.94,5.93-8.52,8.24-13.77c0.62-1.43,1.16-2.8,1.6-4.12c0.64-1.92,1.89-3.03,3.74-3.32
				c1.32-0.21,2.49,0.05,3.51,0.77C31.9,53.39,32.35,53.95,32.66,54.65z M50.81,46.48c1.26-0.17,3.42,0.73,6.44,2.73
				c2.58,1.71,3.94,3.15,4.08,4.31c0.1,0.82-0.18,1.57-0.85,2.25c-0.53,0.54-1.17,0.85-1.92,0.95c-1.01,0.13-1.94-0.3-2.78-1.3
				c-1.57-1.86-3.39-3.57-5.46-5.13c-0.7-0.52-1.1-1.11-1.19-1.76C48.97,47.34,49.53,46.66,50.81,46.48z M56.07,40.63
				c1.31-0.17,3.36,0.58,6.12,2.26c2.56,1.56,3.92,2.99,4.08,4.29c0.11,0.9-0.17,1.66-0.83,2.28c-0.48,0.44-1.06,0.71-1.72,0.79
				c-0.93,0.12-1.83-0.3-2.71-1.26c-1.44-1.61-3.24-3.16-5.39-4.65c-0.8-0.56-1.23-1.14-1.31-1.75c-0.06-0.42,0.07-0.83,0.38-1.24
				C54.98,40.95,55.44,40.71,56.07,40.63z"/>
			<path class="st9" d="M96.82,52.31c-0.27-2.78-0.53-5.56-0.8-8.34c-0.11-1.16,0.17-2.12,0.83-2.88c0.73-0.81,1.73-1.28,3-1.4
				c1.74-0.16,3.03,0.36,3.87,1.56c0.38,0.54,0.61,1.19,0.68,1.95c0.23,2.63,0.47,5.27,0.7,7.9c0.35-0.05,0.7-0.1,1.05-0.16
				c7.73-1.16,12.06-1.75,12.96-1.89c0.48-0.08,0.86-0.13,1.12-0.15c1.94-0.15,3.51,0.36,4.7,1.5c1.16,1.11,1.81,2.66,1.95,4.67
				c0.12,1.67-0.08,3.99-0.57,6.98c-1.19,7.15-3.68,13.36-7.45,18.66c-2.94,4.11-6.6,7.79-10.97,11.05
				c-2.93,2.21-5.06,3.39-6.41,3.52c-1.12,0.11-1.97-0.18-2.55-0.87c-0.48-0.55-0.76-1.16-0.82-1.83c-0.09-0.97,0.23-1.82,0.97-2.55
				c0.22-0.21,0.82-0.69,1.83-1.42c4.28-3.15,8.01-7.06,11.22-11.74c2.14-3.17,3.72-6.77,4.74-10.8c0.85-3.4,1.19-6.22,1.02-8.45
				c-0.06-0.76-0.48-1.11-1.27-1.05c-0.5,0.04-1.14,0.12-1.9,0.25c-4.67,0.83-14.15,2.17-28.35,4.39c0.69,3.28,1.37,6.56,2.06,9.84
				c0.04,0.21,0.07,0.38,0.09,0.5c0.26,1.7-0.47,2.93-2.2,3.71c-0.54,0.25-1.12,0.41-1.75,0.48c-1.34,0.15-2.41-0.22-3.23-1.11
				c-0.42-0.46-0.7-1.02-0.84-1.66c-1.1-5.05-2.21-10.1-3.33-15.15c-0.08-0.35-0.13-0.59-0.15-0.72c-0.28-2.48,1.03-3.89,3.93-4.21
				c1.67-0.18,2.89,0.27,3.65,1.36c0.24-0.04,0.48-0.07,0.72-0.11c1.13-0.18,2.25-0.36,3.38-0.54
				C93.02,52.9,95.73,52.48,96.82,52.31z"/>
			<path class="st9" d="M150.37,43.57c0.91-0.04,2.49,0.26,4.74,0.93c4.2,1.21,7.68,2.73,10.44,4.54c1.45,0.94,2.19,2.16,2.24,3.64
				c0.03,0.82-0.22,1.66-0.74,2.5c-0.79,1.26-1.89,1.91-3.29,1.96c-1.2,0.04-2.55-0.44-4.04-1.46c-3.77-2.64-7.22-4.71-10.32-6.21
				c-1.56-0.75-2.37-1.68-2.43-2.8C146.86,44.72,148,43.68,150.37,43.57z M193.24,52.47c0.75-0.01,1.46,0.23,2.15,0.71
				c0.91,0.63,1.36,1.48,1.37,2.56c0.01,0.89-0.35,1.85-1.06,2.9c-4.97,7.32-11.45,13.71-19.41,19.25c-6.63,4.6-13.43,8-20.45,10.22
				c-0.74,0.22-1.38,0.35-1.93,0.38c-1.81,0.08-3.14-0.68-3.99-2.29c-0.38-0.72-0.59-1.42-0.62-2.1c-0.08-1.54,0.64-2.74,2.17-3.57
				c0.31-0.16,1.72-0.68,4.22-1.53c9.11-3.08,17.57-8.15,25.49-15.26c3.03-2.73,5.91-5.82,8.62-9.26
				C190.84,53.15,191.99,52.48,193.24,52.47z"/>
			<path class="st9" d="M219.82,46.66c0.75-0.05,1.5-0.11,2.26-0.16c19.49-1.08,30.01-1.23,31.47-1.2c1.99,0.08,3.62,0.78,4.89,2.09
				c1.18,1.22,1.73,2.73,1.64,4.53c-0.06,1.23-1.64,8.01-4.62,20.37c-0.13,0.52-0.26,1.05-0.4,1.57c1.44,0.66,2.11,1.97,2.02,3.94
				c-0.09,1.9-1.12,3.01-3.09,3.32c-0.37,0.07-1.3,0.06-2.8-0.02c-11.16-0.46-20.22-0.37-27.15,0.13c-0.61,1.79-2.05,2.66-4.31,2.63
				c-1.65-0.02-2.75-0.86-3.31-2.51c-0.12-0.38-0.27-1.5-0.45-3.34c-0.39-3.83-1.39-11.62-3.06-23.35c-0.48-3.35-0.73-5.18-0.72-5.5
				c0.01-1.71,0.79-2.87,2.34-3.47c0.73-0.29,1.51-0.43,2.33-0.42C218.07,45.27,219.06,45.74,219.82,46.66z M247.4,73.42
				c1.26-6.01,2.49-12.21,3.67-18.6c0.08-0.38,0.13-0.67,0.13-0.88c0.03-0.72-0.4-1.1-1.27-1.13c-1.36-0.04-8.53,0.13-21.46,0.85
				c-2.42,0.14-4.84,0.28-7.25,0.41c0.77,7.61,1.5,14.25,2.21,19.94c0.7-0.03,1.4-0.06,2.1-0.09
				C234.92,73.54,242.21,73.42,247.4,73.42z"/>
			<path class="st9" d="M324.31,62.92c1.37,0.15,2.41,0.67,3.1,1.58c0.6,0.75,0.84,1.69,0.71,2.82c-0.23,2.12-1.4,3.27-3.5,3.45
				c-0.56,0.08-7.9-0.4-22.04-1.06c-6.5-0.29-13.39-0.51-20.65-0.62c-0.26,0-0.51,0-0.75-0.02c-1.21-0.08-2.21-0.5-2.99-1.25
				c-0.8-0.79-1.16-1.79-1.08-3c0.11-1.73,0.98-2.87,2.62-3.42c0.67-0.21,2.23-0.28,4.68-0.19c2.16,0.09,7.65,0.23,16.45,0.55
				c3.75,0.13,8.87,0.35,15.38,0.71c2.19,0.13,3.92,0.22,5.19,0.27C323.05,62.83,324,62.89,324.31,62.92z"/>
			<path class="st9" d="M368.54,74.02c-1.21,8.21-2.41,16.41-3.62,24.62c-0.17,1.17-0.68,2.02-1.54,2.53
				c-0.81,0.5-1.8,0.67-2.98,0.5c-2.7-0.39-3.88-1.78-3.54-4.19c2.18-15.66,4.37-31.33,6.55-46.99c0.33-2.39,1.92-3.39,4.75-2.98
				c1.84,0.26,3,1.04,3.49,2.33c0.21,0.57,0.27,1.18,0.17,1.85c-0.76,5.15-1.51,10.3-2.27,15.45c7.48,3.09,13.12,6.39,16.94,9.82
				c1.69,1.48,2.38,3.06,2.1,4.75c-0.18,1.11-0.73,1.99-1.63,2.66c-0.96,0.72-2.03,0.98-3.23,0.79c-1.03-0.17-2.22-0.88-3.58-2.15
				C376.95,80.07,373.08,77.06,368.54,74.02z M385.73,56.84c1.25,0.2,3.04,1.69,5.35,4.47c1.97,2.36,2.85,4.12,2.65,5.27
				c-0.14,0.83-0.63,1.47-1.46,1.91c-0.68,0.36-1.39,0.48-2.1,0.36c-1-0.17-1.76-0.85-2.28-2.05c-0.94-2.19-2.18-4.34-3.73-6.45
				c-0.52-0.7-0.72-1.38-0.62-2.03C383.72,57.14,384.45,56.64,385.73,56.84z M393.39,53.05c1.32,0.22,3.06,1.53,5.21,3.94
				c1.99,2.23,2.87,4,2.64,5.29c-0.16,0.9-0.64,1.54-1.45,1.94c-0.59,0.28-1.21,0.37-1.87,0.26c-0.94-0.16-1.68-0.82-2.22-1.99
				c-0.91-1.93-2.18-3.94-3.83-6.02c-0.6-0.76-0.85-1.45-0.75-2.05c0.07-0.42,0.31-0.77,0.72-1.07
				C392.26,53.04,392.78,52.94,393.39,53.05z"/>
		</g>
		<g>
			<path class="st10" d="M32.66,54.65c4.14-0.79,8.29-1.56,12.45-2.31c0.31-0.04,0.48-0.07,0.53-0.07c4.08-0.57,6.34,0.81,6.79,4.12
				c0.14,1.01,0.06,2.44-0.22,4.29c-2.32,14.93-9.42,27.6-21.03,38.31c-4.54,4.16-7.69,6.41-9.54,6.72
				c-0.95,0.16-1.78-0.14-2.49-0.89c-0.48-0.5-0.76-1.02-0.85-1.56c-0.13-0.75,0.1-1.52,0.68-2.31c0.23-0.3,0.94-0.97,2.14-2.01
				c5.33-4.62,10.01-9.86,14.04-15.74c-3.25-2.43-6.4-4.46-9.43-6.09c-1.33-0.68-2.07-1.47-2.21-2.37c-0.09-0.52,0.01-1.06,0.3-1.63
				c0.46-0.87,1.2-1.38,2.22-1.55c0.85-0.14,1.88-0.03,3.12,0.31c3.78,1.01,7.15,2.39,10.1,4.13c2.18-4.73,3.6-9.25,4.23-13.55
				c0.15-0.98,0.2-1.61,0.16-1.88c-0.07-0.5-0.52-0.67-1.35-0.51c-4.03,0.78-8.06,1.57-12.09,2.39c-3.62,6.5-7.51,11.67-11.71,15.53
				c-1.34,1.24-2.51,1.94-3.5,2.11c-0.9,0.16-1.65-0.07-2.25-0.67c-0.4-0.4-0.65-0.87-0.75-1.42c-0.13-0.73,0.06-1.52,0.55-2.38
				c0.17-0.29,0.74-1.02,1.69-2.19c3.18-3.94,5.93-8.52,8.24-13.77c0.62-1.43,1.16-2.8,1.6-4.12c0.64-1.92,1.89-3.03,3.74-3.32
				c1.32-0.21,2.49,0.05,3.51,0.77C31.9,53.39,32.35,53.95,32.66,54.65z M50.81,46.48c1.26-0.17,3.42,0.73,6.44,2.73
				c2.58,1.71,3.94,3.15,4.08,4.31c0.1,0.82-0.18,1.57-0.85,2.25c-0.53,0.54-1.17,0.85-1.92,0.95c-1.01,0.13-1.94-0.3-2.78-1.3
				c-1.57-1.86-3.39-3.57-5.46-5.13c-0.7-0.52-1.1-1.11-1.19-1.76C48.97,47.34,49.53,46.66,50.81,46.48z M56.07,40.63
				c1.31-0.17,3.36,0.58,6.12,2.26c2.56,1.56,3.92,2.99,4.08,4.29c0.11,0.9-0.17,1.66-0.83,2.28c-0.48,0.44-1.06,0.71-1.72,0.79
				c-0.93,0.12-1.83-0.3-2.71-1.26c-1.44-1.61-3.24-3.16-5.39-4.65c-0.8-0.56-1.23-1.14-1.31-1.75c-0.06-0.42,0.07-0.83,0.38-1.24
				C54.98,40.95,55.44,40.71,56.07,40.63z"/>
			<path class="st10" d="M96.82,52.31c-0.27-2.78-0.53-5.56-0.8-8.34c-0.11-1.16,0.17-2.12,0.83-2.88c0.73-0.81,1.73-1.28,3-1.4
				c1.74-0.16,3.03,0.36,3.87,1.56c0.38,0.54,0.61,1.19,0.68,1.95c0.23,2.63,0.47,5.27,0.7,7.9c0.35-0.05,0.7-0.1,1.05-0.16
				c7.73-1.16,12.06-1.75,12.96-1.89c0.48-0.08,0.86-0.13,1.12-0.15c1.94-0.15,3.51,0.36,4.7,1.5c1.16,1.11,1.81,2.66,1.95,4.67
				c0.12,1.67-0.08,3.99-0.57,6.98c-1.19,7.15-3.68,13.36-7.45,18.66c-2.94,4.11-6.6,7.79-10.97,11.05
				c-2.93,2.21-5.06,3.39-6.41,3.52c-1.12,0.11-1.97-0.18-2.55-0.87c-0.48-0.55-0.76-1.16-0.82-1.83c-0.09-0.97,0.23-1.82,0.97-2.55
				c0.22-0.21,0.82-0.69,1.83-1.42c4.28-3.15,8.01-7.06,11.22-11.74c2.14-3.17,3.72-6.77,4.74-10.8c0.85-3.4,1.19-6.22,1.02-8.45
				c-0.06-0.76-0.48-1.11-1.27-1.05c-0.5,0.04-1.14,0.12-1.9,0.25c-4.67,0.83-14.15,2.17-28.35,4.39c0.69,3.28,1.37,6.56,2.06,9.84
				c0.04,0.21,0.07,0.38,0.09,0.5c0.26,1.7-0.47,2.93-2.2,3.71c-0.54,0.25-1.12,0.41-1.75,0.48c-1.34,0.15-2.41-0.22-3.23-1.11
				c-0.42-0.46-0.7-1.02-0.84-1.66c-1.1-5.05-2.21-10.1-3.33-15.15c-0.08-0.35-0.13-0.59-0.15-0.72c-0.28-2.48,1.03-3.89,3.93-4.21
				c1.67-0.18,2.89,0.27,3.65,1.36c0.24-0.04,0.48-0.07,0.72-0.11c1.13-0.18,2.25-0.36,3.38-0.54
				C93.02,52.9,95.73,52.48,96.82,52.31z"/>
			<path class="st10" d="M150.37,43.57c0.91-0.04,2.49,0.26,4.74,0.93c4.2,1.21,7.68,2.73,10.44,4.54c1.45,0.94,2.19,2.16,2.24,3.64
				c0.03,0.82-0.22,1.66-0.74,2.5c-0.79,1.26-1.89,1.91-3.29,1.96c-1.2,0.04-2.55-0.44-4.04-1.46c-3.77-2.64-7.22-4.71-10.32-6.21
				c-1.56-0.75-2.37-1.68-2.43-2.8C146.86,44.72,148,43.68,150.37,43.57z M193.24,52.47c0.75-0.01,1.46,0.23,2.15,0.71
				c0.91,0.63,1.36,1.48,1.37,2.56c0.01,0.89-0.35,1.85-1.06,2.9c-4.97,7.32-11.45,13.71-19.41,19.25c-6.63,4.6-13.43,8-20.45,10.22
				c-0.74,0.22-1.38,0.35-1.93,0.38c-1.81,0.08-3.14-0.68-3.99-2.29c-0.38-0.72-0.59-1.42-0.62-2.1c-0.08-1.54,0.64-2.74,2.17-3.57
				c0.31-0.16,1.72-0.68,4.22-1.53c9.11-3.08,17.57-8.15,25.49-15.26c3.03-2.73,5.91-5.82,8.62-9.26
				C190.84,53.15,191.99,52.48,193.24,52.47z"/>
			<path class="st10" d="M219.82,46.66c0.75-0.05,1.5-0.11,2.26-0.16c19.49-1.08,30.01-1.23,31.47-1.2
				c1.99,0.08,3.62,0.78,4.89,2.09c1.18,1.22,1.73,2.73,1.64,4.53c-0.06,1.23-1.64,8.01-4.62,20.37c-0.13,0.52-0.26,1.05-0.4,1.57
				c1.44,0.66,2.11,1.97,2.02,3.94c-0.09,1.9-1.12,3.01-3.09,3.32c-0.37,0.07-1.3,0.06-2.8-0.02c-11.16-0.46-20.22-0.37-27.15,0.13
				c-0.61,1.79-2.05,2.66-4.31,2.63c-1.65-0.02-2.75-0.86-3.31-2.51c-0.12-0.38-0.27-1.5-0.45-3.34
				c-0.39-3.83-1.39-11.62-3.06-23.35c-0.48-3.35-0.73-5.18-0.72-5.5c0.01-1.71,0.79-2.87,2.34-3.47c0.73-0.29,1.51-0.43,2.33-0.42
				C218.07,45.27,219.06,45.74,219.82,46.66z M247.4,73.42c1.26-6.01,2.49-12.21,3.67-18.6c0.08-0.38,0.13-0.67,0.13-0.88
				c0.03-0.72-0.4-1.1-1.27-1.13c-1.36-0.04-8.53,0.13-21.46,0.85c-2.42,0.14-4.84,0.28-7.25,0.41c0.77,7.61,1.5,14.25,2.21,19.94
				c0.7-0.03,1.4-0.06,2.1-0.09C234.92,73.54,242.21,73.42,247.4,73.42z"/>
			<path class="st10" d="M324.31,62.92c1.37,0.15,2.41,0.67,3.1,1.58c0.6,0.75,0.84,1.69,0.71,2.82c-0.23,2.12-1.4,3.27-3.5,3.45
				c-0.56,0.08-7.9-0.4-22.04-1.06c-6.5-0.29-13.39-0.51-20.65-0.62c-0.26,0-0.51,0-0.75-0.02c-1.21-0.08-2.21-0.5-2.99-1.25
				c-0.8-0.79-1.16-1.79-1.08-3c0.11-1.73,0.98-2.87,2.62-3.42c0.67-0.21,2.23-0.28,4.68-0.19c2.16,0.09,7.65,0.23,16.45,0.55
				c3.75,0.13,8.87,0.35,15.38,0.71c2.19,0.13,3.92,0.22,5.19,0.27C323.05,62.83,324,62.89,324.31,62.92z"/>
			<path class="st10" d="M368.54,74.02c-1.21,8.21-2.41,16.41-3.62,24.62c-0.17,1.17-0.68,2.02-1.54,2.53
				c-0.81,0.5-1.8,0.67-2.98,0.5c-2.7-0.39-3.88-1.78-3.54-4.19c2.18-15.66,4.37-31.33,6.55-46.99c0.33-2.39,1.92-3.39,4.75-2.98
				c1.84,0.26,3,1.04,3.49,2.33c0.21,0.57,0.27,1.18,0.17,1.85c-0.76,5.15-1.51,10.3-2.27,15.45c7.48,3.09,13.12,6.39,16.94,9.82
				c1.69,1.48,2.38,3.06,2.1,4.75c-0.18,1.11-0.73,1.99-1.63,2.66c-0.96,0.72-2.03,0.98-3.23,0.79c-1.03-0.17-2.22-0.88-3.58-2.15
				C376.95,80.07,373.08,77.06,368.54,74.02z M385.73,56.84c1.25,0.2,3.04,1.69,5.35,4.47c1.97,2.36,2.85,4.12,2.65,5.27
				c-0.14,0.83-0.63,1.47-1.46,1.91c-0.68,0.36-1.39,0.48-2.1,0.36c-1-0.17-1.76-0.85-2.28-2.05c-0.94-2.19-2.18-4.34-3.73-6.45
				c-0.52-0.7-0.72-1.38-0.62-2.03C383.72,57.14,384.45,56.64,385.73,56.84z M393.39,53.05c1.32,0.22,3.06,1.53,5.21,3.94
				c1.99,2.23,2.87,4,2.64,5.29c-0.16,0.9-0.64,1.54-1.45,1.94c-0.59,0.28-1.21,0.37-1.87,0.26c-0.94-0.16-1.68-0.82-2.22-1.99
				c-0.91-1.93-2.18-3.94-3.83-6.02c-0.6-0.76-0.85-1.45-0.75-2.05c0.07-0.42,0.31-0.77,0.72-1.07
				C392.26,53.04,392.78,52.94,393.39,53.05z"/>
		</g>
		<g>
			<path class="st11" d="M32.66,54.65c4.14-0.79,8.29-1.56,12.45-2.31c0.31-0.04,0.48-0.07,0.53-0.07c4.08-0.57,6.34,0.81,6.79,4.12
				c0.14,1.01,0.06,2.44-0.22,4.29c-2.32,14.93-9.42,27.6-21.03,38.31c-4.54,4.16-7.69,6.41-9.54,6.72
				c-0.95,0.16-1.78-0.14-2.49-0.89c-0.48-0.5-0.76-1.02-0.85-1.56c-0.13-0.75,0.1-1.52,0.68-2.31c0.23-0.3,0.94-0.97,2.14-2.01
				c5.33-4.62,10.01-9.86,14.04-15.74c-3.25-2.43-6.4-4.46-9.43-6.09c-1.33-0.68-2.07-1.47-2.21-2.37c-0.09-0.52,0.01-1.06,0.3-1.63
				c0.46-0.87,1.2-1.38,2.22-1.55c0.85-0.14,1.88-0.03,3.12,0.31c3.78,1.01,7.15,2.39,10.1,4.13c2.18-4.73,3.6-9.25,4.23-13.55
				c0.15-0.98,0.2-1.61,0.16-1.88c-0.07-0.5-0.52-0.67-1.35-0.51c-4.03,0.78-8.06,1.57-12.09,2.39c-3.62,6.5-7.51,11.67-11.71,15.53
				c-1.34,1.24-2.51,1.94-3.5,2.11c-0.9,0.16-1.65-0.07-2.25-0.67c-0.4-0.4-0.65-0.87-0.75-1.42c-0.13-0.73,0.06-1.52,0.55-2.38
				c0.17-0.29,0.74-1.02,1.69-2.19c3.18-3.94,5.93-8.52,8.24-13.77c0.62-1.43,1.16-2.8,1.6-4.12c0.64-1.92,1.89-3.03,3.74-3.32
				c1.32-0.21,2.49,0.05,3.51,0.77C31.9,53.39,32.35,53.95,32.66,54.65z M50.81,46.48c1.26-0.17,3.42,0.73,6.44,2.73
				c2.58,1.71,3.94,3.15,4.08,4.31c0.1,0.82-0.18,1.57-0.85,2.25c-0.53,0.54-1.17,0.85-1.92,0.95c-1.01,0.13-1.94-0.3-2.78-1.3
				c-1.57-1.86-3.39-3.57-5.46-5.13c-0.7-0.52-1.1-1.11-1.19-1.76C48.97,47.34,49.53,46.66,50.81,46.48z M56.07,40.63
				c1.31-0.17,3.36,0.58,6.12,2.26c2.56,1.56,3.92,2.99,4.08,4.29c0.11,0.9-0.17,1.66-0.83,2.28c-0.48,0.44-1.06,0.71-1.72,0.79
				c-0.93,0.12-1.83-0.3-2.71-1.26c-1.44-1.61-3.24-3.16-5.39-4.65c-0.8-0.56-1.23-1.14-1.31-1.75c-0.06-0.42,0.07-0.83,0.38-1.24
				C54.98,40.95,55.44,40.71,56.07,40.63z"/>
			<path class="st11" d="M96.82,52.31c-0.27-2.78-0.53-5.56-0.8-8.34c-0.11-1.16,0.17-2.12,0.83-2.88c0.73-0.81,1.73-1.28,3-1.4
				c1.74-0.16,3.03,0.36,3.87,1.56c0.38,0.54,0.61,1.19,0.68,1.95c0.23,2.63,0.47,5.27,0.7,7.9c0.35-0.05,0.7-0.1,1.05-0.16
				c7.73-1.16,12.06-1.75,12.96-1.89c0.48-0.08,0.86-0.13,1.12-0.15c1.94-0.15,3.51,0.36,4.7,1.5c1.16,1.11,1.81,2.66,1.95,4.67
				c0.12,1.67-0.08,3.99-0.57,6.98c-1.19,7.15-3.68,13.36-7.45,18.66c-2.94,4.11-6.6,7.79-10.97,11.05
				c-2.93,2.21-5.06,3.39-6.41,3.52c-1.12,0.11-1.97-0.18-2.55-0.87c-0.48-0.55-0.76-1.16-0.82-1.83c-0.09-0.97,0.23-1.82,0.97-2.55
				c0.22-0.21,0.82-0.69,1.83-1.42c4.28-3.15,8.01-7.06,11.22-11.74c2.14-3.17,3.72-6.77,4.74-10.8c0.85-3.4,1.19-6.22,1.02-8.45
				c-0.06-0.76-0.48-1.11-1.27-1.05c-0.5,0.04-1.14,0.12-1.9,0.25c-4.67,0.83-14.15,2.17-28.35,4.39c0.69,3.28,1.37,6.56,2.06,9.84
				c0.04,0.21,0.07,0.38,0.09,0.5c0.26,1.7-0.47,2.93-2.2,3.71c-0.54,0.25-1.12,0.41-1.75,0.48c-1.34,0.15-2.41-0.22-3.23-1.11
				c-0.42-0.46-0.7-1.02-0.84-1.66c-1.1-5.05-2.21-10.1-3.33-15.15c-0.08-0.35-0.13-0.59-0.15-0.72c-0.28-2.48,1.03-3.89,3.93-4.21
				c1.67-0.18,2.89,0.27,3.65,1.36c0.24-0.04,0.48-0.07,0.72-0.11c1.13-0.18,2.25-0.36,3.38-0.54
				C93.02,52.9,95.73,52.48,96.82,52.31z"/>
			<path class="st11" d="M150.37,43.57c0.91-0.04,2.49,0.26,4.74,0.93c4.2,1.21,7.68,2.73,10.44,4.54c1.45,0.94,2.19,2.16,2.24,3.64
				c0.03,0.82-0.22,1.66-0.74,2.5c-0.79,1.26-1.89,1.91-3.29,1.96c-1.2,0.04-2.55-0.44-4.04-1.46c-3.77-2.64-7.22-4.71-10.32-6.21
				c-1.56-0.75-2.37-1.68-2.43-2.8C146.86,44.72,148,43.68,150.37,43.57z M193.24,52.47c0.75-0.01,1.46,0.23,2.15,0.71
				c0.91,0.63,1.36,1.48,1.37,2.56c0.01,0.89-0.35,1.85-1.06,2.9c-4.97,7.32-11.45,13.71-19.41,19.25c-6.63,4.6-13.43,8-20.45,10.22
				c-0.74,0.22-1.38,0.35-1.93,0.38c-1.81,0.08-3.14-0.68-3.99-2.29c-0.38-0.72-0.59-1.42-0.62-2.1c-0.08-1.54,0.64-2.74,2.17-3.57
				c0.31-0.16,1.72-0.68,4.22-1.53c9.11-3.08,17.57-8.15,25.49-15.26c3.03-2.73,5.91-5.82,8.62-9.26
				C190.84,53.15,191.99,52.48,193.24,52.47z"/>
			<path class="st11" d="M219.82,46.66c0.75-0.05,1.5-0.11,2.26-0.16c19.49-1.08,30.01-1.23,31.47-1.2
				c1.99,0.08,3.62,0.78,4.89,2.09c1.18,1.22,1.73,2.73,1.64,4.53c-0.06,1.23-1.64,8.01-4.62,20.37c-0.13,0.52-0.26,1.05-0.4,1.57
				c1.44,0.66,2.11,1.97,2.02,3.94c-0.09,1.9-1.12,3.01-3.09,3.32c-0.37,0.07-1.3,0.06-2.8-0.02c-11.16-0.46-20.22-0.37-27.15,0.13
				c-0.61,1.79-2.05,2.66-4.31,2.63c-1.65-0.02-2.75-0.86-3.31-2.51c-0.12-0.38-0.27-1.5-0.45-3.34
				c-0.39-3.83-1.39-11.62-3.06-23.35c-0.48-3.35-0.73-5.18-0.72-5.5c0.01-1.71,0.79-2.87,2.34-3.47c0.73-0.29,1.51-0.43,2.33-0.42
				C218.07,45.27,219.06,45.74,219.82,46.66z M247.4,73.42c1.26-6.01,2.49-12.21,3.67-18.6c0.08-0.38,0.13-0.67,0.13-0.88
				c0.03-0.72-0.4-1.1-1.27-1.13c-1.36-0.04-8.53,0.13-21.46,0.85c-2.42,0.14-4.84,0.28-7.25,0.41c0.77,7.61,1.5,14.25,2.21,19.94
				c0.7-0.03,1.4-0.06,2.1-0.09C234.92,73.54,242.21,73.42,247.4,73.42z"/>
			<path class="st11" d="M324.31,62.92c1.37,0.15,2.41,0.67,3.1,1.58c0.6,0.75,0.84,1.69,0.71,2.82c-0.23,2.12-1.4,3.27-3.5,3.45
				c-0.56,0.08-7.9-0.4-22.04-1.06c-6.5-0.29-13.39-0.51-20.65-0.62c-0.26,0-0.51,0-0.75-0.02c-1.21-0.08-2.21-0.5-2.99-1.25
				c-0.8-0.79-1.16-1.79-1.08-3c0.11-1.73,0.98-2.87,2.62-3.42c0.67-0.21,2.23-0.28,4.68-0.19c2.16,0.09,7.65,0.23,16.45,0.55
				c3.75,0.13,8.87,0.35,15.38,0.71c2.19,0.13,3.92,0.22,5.19,0.27C323.05,62.83,324,62.89,324.31,62.92z"/>
			<path class="st11" d="M368.54,74.02c-1.21,8.21-2.41,16.41-3.62,24.62c-0.17,1.17-0.68,2.02-1.54,2.53
				c-0.81,0.5-1.8,0.67-2.98,0.5c-2.7-0.39-3.88-1.78-3.54-4.19c2.18-15.66,4.37-31.33,6.55-46.99c0.33-2.39,1.92-3.39,4.75-2.98
				c1.84,0.26,3,1.04,3.49,2.33c0.21,0.57,0.27,1.18,0.17,1.85c-0.76,5.15-1.51,10.3-2.27,15.45c7.48,3.09,13.12,6.39,16.94,9.82
				c1.69,1.48,2.38,3.06,2.1,4.75c-0.18,1.11-0.73,1.99-1.63,2.66c-0.96,0.72-2.03,0.98-3.23,0.79c-1.03-0.17-2.22-0.88-3.58-2.15
				C376.95,80.07,373.08,77.06,368.54,74.02z M385.73,56.84c1.25,0.2,3.04,1.69,5.35,4.47c1.97,2.36,2.85,4.12,2.65,5.27
				c-0.14,0.83-0.63,1.47-1.46,1.91c-0.68,0.36-1.39,0.48-2.1,0.36c-1-0.17-1.76-0.85-2.28-2.05c-0.94-2.19-2.18-4.34-3.73-6.45
				c-0.52-0.7-0.72-1.38-0.62-2.03C383.72,57.14,384.45,56.64,385.73,56.84z M393.39,53.05c1.32,0.22,3.06,1.53,5.21,3.94
				c1.99,2.23,2.87,4,2.64,5.29c-0.16,0.9-0.64,1.54-1.45,1.94c-0.59,0.28-1.21,0.37-1.87,0.26c-0.94-0.16-1.68-0.82-2.22-1.99
				c-0.91-1.93-2.18-3.94-3.83-6.02c-0.6-0.76-0.85-1.45-0.75-2.05c0.07-0.42,0.31-0.77,0.72-1.07
				C392.26,53.04,392.78,52.94,393.39,53.05z"/>
		</g>
		<g>
			<path class="st12" d="M32.66,54.65c4.14-0.79,8.29-1.56,12.45-2.31c0.31-0.04,0.48-0.07,0.53-0.07c4.08-0.57,6.34,0.81,6.79,4.12
				c0.14,1.01,0.06,2.44-0.22,4.29c-2.32,14.93-9.42,27.6-21.03,38.31c-4.54,4.16-7.69,6.41-9.54,6.72
				c-0.95,0.16-1.78-0.14-2.49-0.89c-0.48-0.5-0.76-1.02-0.85-1.56c-0.13-0.75,0.1-1.52,0.68-2.31c0.23-0.3,0.94-0.97,2.14-2.01
				c5.33-4.62,10.01-9.86,14.04-15.74c-3.25-2.43-6.4-4.46-9.43-6.09c-1.33-0.68-2.07-1.47-2.21-2.37c-0.09-0.52,0.01-1.06,0.3-1.63
				c0.46-0.87,1.2-1.38,2.22-1.55c0.85-0.14,1.88-0.03,3.12,0.31c3.78,1.01,7.15,2.39,10.1,4.13c2.18-4.73,3.6-9.25,4.23-13.55
				c0.15-0.98,0.2-1.61,0.16-1.88c-0.07-0.5-0.52-0.67-1.35-0.51c-4.03,0.78-8.06,1.57-12.09,2.39c-3.62,6.5-7.51,11.67-11.71,15.53
				c-1.34,1.24-2.51,1.94-3.5,2.11c-0.9,0.16-1.65-0.07-2.25-0.67c-0.4-0.4-0.65-0.87-0.75-1.42c-0.13-0.73,0.06-1.52,0.55-2.38
				c0.17-0.29,0.74-1.02,1.69-2.19c3.18-3.94,5.93-8.52,8.24-13.77c0.62-1.43,1.16-2.8,1.6-4.12c0.64-1.92,1.89-3.03,3.74-3.32
				c1.32-0.21,2.49,0.05,3.51,0.77C31.9,53.39,32.35,53.95,32.66,54.65z M50.81,46.48c1.26-0.17,3.42,0.73,6.44,2.73
				c2.58,1.71,3.94,3.15,4.08,4.31c0.1,0.82-0.18,1.57-0.85,2.25c-0.53,0.54-1.17,0.85-1.92,0.95c-1.01,0.13-1.94-0.3-2.78-1.3
				c-1.57-1.86-3.39-3.57-5.46-5.13c-0.7-0.52-1.1-1.11-1.19-1.76C48.97,47.34,49.53,46.66,50.81,46.48z M56.07,40.63
				c1.31-0.17,3.36,0.58,6.12,2.26c2.56,1.56,3.92,2.99,4.08,4.29c0.11,0.9-0.17,1.66-0.83,2.28c-0.48,0.44-1.06,0.71-1.72,0.79
				c-0.93,0.12-1.83-0.3-2.71-1.26c-1.44-1.61-3.24-3.16-5.39-4.65c-0.8-0.56-1.23-1.14-1.31-1.75c-0.06-0.42,0.07-0.83,0.38-1.24
				C54.98,40.95,55.44,40.71,56.07,40.63z"/>
			<path class="st12" d="M96.82,52.31c-0.27-2.78-0.53-5.56-0.8-8.34c-0.11-1.16,0.17-2.12,0.83-2.88c0.73-0.81,1.73-1.28,3-1.4
				c1.74-0.16,3.03,0.36,3.87,1.56c0.38,0.54,0.61,1.19,0.68,1.95c0.23,2.63,0.47,5.27,0.7,7.9c0.35-0.05,0.7-0.1,1.05-0.16
				c7.73-1.16,12.06-1.75,12.96-1.89c0.48-0.08,0.86-0.13,1.12-0.15c1.94-0.15,3.51,0.36,4.7,1.5c1.16,1.11,1.81,2.66,1.95,4.67
				c0.12,1.67-0.08,3.99-0.57,6.98c-1.19,7.15-3.68,13.36-7.45,18.66c-2.94,4.11-6.6,7.79-10.97,11.05
				c-2.93,2.21-5.06,3.39-6.41,3.52c-1.12,0.11-1.97-0.18-2.55-0.87c-0.48-0.55-0.76-1.16-0.82-1.83c-0.09-0.97,0.23-1.82,0.97-2.55
				c0.22-0.21,0.82-0.69,1.83-1.42c4.28-3.15,8.01-7.06,11.22-11.74c2.14-3.17,3.72-6.77,4.74-10.8c0.85-3.4,1.19-6.22,1.02-8.45
				c-0.06-0.76-0.48-1.11-1.27-1.05c-0.5,0.04-1.14,0.12-1.9,0.25c-4.67,0.83-14.15,2.17-28.35,4.39c0.69,3.28,1.37,6.56,2.06,9.84
				c0.04,0.21,0.07,0.38,0.09,0.5c0.26,1.7-0.47,2.93-2.2,3.71c-0.54,0.25-1.12,0.41-1.75,0.48c-1.34,0.15-2.41-0.22-3.23-1.11
				c-0.42-0.46-0.7-1.02-0.84-1.66c-1.1-5.05-2.21-10.1-3.33-15.15c-0.08-0.35-0.13-0.59-0.15-0.72c-0.28-2.48,1.03-3.89,3.93-4.21
				c1.67-0.18,2.89,0.27,3.65,1.36c0.24-0.04,0.48-0.07,0.72-0.11c1.13-0.18,2.25-0.36,3.38-0.54
				C93.02,52.9,95.73,52.48,96.82,52.31z"/>
			<path class="st12" d="M150.37,43.57c0.91-0.04,2.49,0.26,4.74,0.93c4.2,1.21,7.68,2.73,10.44,4.54c1.45,0.94,2.19,2.16,2.24,3.64
				c0.03,0.82-0.22,1.66-0.74,2.5c-0.79,1.26-1.89,1.91-3.29,1.96c-1.2,0.04-2.55-0.44-4.04-1.46c-3.77-2.64-7.22-4.71-10.32-6.21
				c-1.56-0.75-2.37-1.68-2.43-2.8C146.86,44.72,148,43.68,150.37,43.57z M193.24,52.47c0.75-0.01,1.46,0.23,2.15,0.71
				c0.91,0.63,1.36,1.48,1.37,2.56c0.01,0.89-0.35,1.85-1.06,2.9c-4.97,7.32-11.45,13.71-19.41,19.25c-6.63,4.6-13.43,8-20.45,10.22
				c-0.74,0.22-1.38,0.35-1.93,0.38c-1.81,0.08-3.14-0.68-3.99-2.29c-0.38-0.72-0.59-1.42-0.62-2.1c-0.08-1.54,0.64-2.74,2.17-3.57
				c0.31-0.16,1.72-0.68,4.22-1.53c9.11-3.08,17.57-8.15,25.49-15.26c3.03-2.73,5.91-5.82,8.62-9.26
				C190.84,53.15,191.99,52.48,193.24,52.47z"/>
			<path class="st12" d="M219.82,46.66c0.75-0.05,1.5-0.11,2.26-0.16c19.49-1.08,30.01-1.23,31.47-1.2
				c1.99,0.08,3.62,0.78,4.89,2.09c1.18,1.22,1.73,2.73,1.64,4.53c-0.06,1.23-1.64,8.01-4.62,20.37c-0.13,0.52-0.26,1.05-0.4,1.57
				c1.44,0.66,2.11,1.97,2.02,3.94c-0.09,1.9-1.12,3.01-3.09,3.32c-0.37,0.07-1.3,0.06-2.8-0.02c-11.16-0.46-20.22-0.37-27.15,0.13
				c-0.61,1.79-2.05,2.66-4.31,2.63c-1.65-0.02-2.75-0.86-3.31-2.51c-0.12-0.38-0.27-1.5-0.45-3.34
				c-0.39-3.83-1.39-11.62-3.06-23.35c-0.48-3.35-0.73-5.18-0.72-5.5c0.01-1.71,0.79-2.87,2.34-3.47c0.73-0.29,1.51-0.43,2.33-0.42
				C218.07,45.27,219.06,45.74,219.82,46.66z M247.4,73.42c1.26-6.01,2.49-12.21,3.67-18.6c0.08-0.38,0.13-0.67,0.13-0.88
				c0.03-0.72-0.4-1.1-1.27-1.13c-1.36-0.04-8.53,0.13-21.46,0.85c-2.42,0.14-4.84,0.28-7.25,0.41c0.77,7.61,1.5,14.25,2.21,19.94
				c0.7-0.03,1.4-0.06,2.1-0.09C234.92,73.54,242.21,73.42,247.4,73.42z"/>
			<path class="st12" d="M324.31,62.92c1.37,0.15,2.41,0.67,3.1,1.58c0.6,0.75,0.84,1.69,0.71,2.82c-0.23,2.12-1.4,3.27-3.5,3.45
				c-0.56,0.08-7.9-0.4-22.04-1.06c-6.5-0.29-13.39-0.51-20.65-0.62c-0.26,0-0.51,0-0.75-0.02c-1.21-0.08-2.21-0.5-2.99-1.25
				c-0.8-0.79-1.16-1.79-1.08-3c0.11-1.73,0.98-2.87,2.62-3.42c0.67-0.21,2.23-0.28,4.68-0.19c2.16,0.09,7.65,0.23,16.45,0.55
				c3.75,0.13,8.87,0.35,15.38,0.71c2.19,0.13,3.92,0.22,5.19,0.27C323.05,62.83,324,62.89,324.31,62.92z"/>
			<path class="st12" d="M368.54,74.02c-1.21,8.21-2.41,16.41-3.62,24.62c-0.17,1.17-0.68,2.02-1.54,2.53
				c-0.81,0.5-1.8,0.67-2.98,0.5c-2.7-0.39-3.88-1.78-3.54-4.19c2.18-15.66,4.37-31.33,6.55-46.99c0.33-2.39,1.92-3.39,4.75-2.98
				c1.84,0.26,3,1.04,3.49,2.33c0.21,0.57,0.27,1.18,0.17,1.85c-0.76,5.15-1.51,10.3-2.27,15.45c7.48,3.09,13.12,6.39,16.94,9.82
				c1.69,1.48,2.38,3.06,2.1,4.75c-0.18,1.11-0.73,1.99-1.63,2.66c-0.96,0.72-2.03,0.98-3.23,0.79c-1.03-0.17-2.22-0.88-3.58-2.15
				C376.95,80.07,373.08,77.06,368.54,74.02z M385.73,56.84c1.25,0.2,3.04,1.69,5.35,4.47c1.97,2.36,2.85,4.12,2.65,5.27
				c-0.14,0.83-0.63,1.47-1.46,1.91c-0.68,0.36-1.39,0.48-2.1,0.36c-1-0.17-1.76-0.85-2.28-2.05c-0.94-2.19-2.18-4.34-3.73-6.45
				c-0.52-0.7-0.72-1.38-0.62-2.03C383.72,57.14,384.45,56.64,385.73,56.84z M393.39,53.05c1.32,0.22,3.06,1.53,5.21,3.94
				c1.99,2.23,2.87,4,2.64,5.29c-0.16,0.9-0.64,1.54-1.45,1.94c-0.59,0.28-1.21,0.37-1.87,0.26c-0.94-0.16-1.68-0.82-2.22-1.99
				c-0.91-1.93-2.18-3.94-3.83-6.02c-0.6-0.76-0.85-1.45-0.75-2.05c0.07-0.42,0.31-0.77,0.72-1.07
				C392.26,53.04,392.78,52.94,393.39,53.05z"/>
		</g>
	</g>
</g>
<g id="レイヤー_6">
	<path class="st13" d="M357.71,120.43c-3.74,7.54-10.26,5.32-17.79,1.58c-7.54-3.74-13.24-7.59-9.5-15.13
		c3.74-7.54,12.88-10.61,20.42-6.87C358.37,103.76,361.45,112.9,357.71,120.43z"/>
	
		<radialGradient id="SVGID_1_" cx="332.9993" cy="85.7612" r="10.1994" gradientTransform="matrix(0.9975 0.4951 -0.549 1.106 64.5276 -157.9113)" gradientUnits="userSpaceOnUse">
		<stop  offset="0.4514" style="stop-color:#FFF5CE;stop-opacity:0.5"/>
		<stop  offset="1" style="stop-color:#FCFDFD;stop-opacity:0"/>
	</radialGradient>
	<path class="st14" d="M336.35,102.63c1.88-3.78,8.58-5.15,14.55-2.18s8.93,9.12,7.06,12.91s-8.23,4.45-14.2,1.49
		S334.48,106.41,336.35,102.63z"/>
	<path class="st15" d="M356.27,110.99c-0.13-0.19-0.28-0.36-0.45-0.5c1.36-1.06,1.62-3.12,0.55-4.72c-1.11-1.66-3.25-2.17-4.76-1.15
		c-1.51,1.02-1.84,3.19-0.72,4.84c0.49,0.72,1.16,1.23,1.9,1.48c-0.37,0.67-0.34,1.56,0.15,2.29c0.68,1.01,1.97,1.32,2.89,0.7
		C356.76,113.31,356.95,111.99,356.27,110.99z"/>
	<g>
		<path class="st13" d="M383.91,111.08c-0.32,4.24-3.79,4.44-8.03,4.11c-4.24-0.32-7.64-1.05-7.31-5.29
			c0.32-4.24,4.02-7.41,8.26-7.09C381.06,103.14,384.23,106.84,383.91,111.08z"/>
		
			<radialGradient id="SVGID_2_" cx="351.4317" cy="77.0835" r="5.1532" gradientTransform="matrix(1.1104 0.0848 -0.0941 1.2312 -6.3819 -20.8273)" gradientUnits="userSpaceOnUse">
			<stop  offset="0.4514" style="stop-color:#FFF5CE;stop-opacity:0.5"/>
			<stop  offset="1" style="stop-color:#FCFDFD;stop-opacity:0"/>
		</radialGradient>
		<path class="st16" d="M370.53,106.79c0.16-2.13,3.04-4.04,6.4-3.78s5.91,2.58,5.75,4.71c-0.16,2.13-3.01,3.64-6.37,3.39
			S370.37,108.91,370.53,106.79z"/>
		<path class="st15" d="M381.44,106.92c-0.1-0.07-0.2-0.12-0.31-0.15c0.44-0.76,0.17-1.77-0.63-2.31c-0.84-0.56-1.93-0.4-2.45,0.36
			c-0.52,0.76-0.26,1.84,0.58,2.4c0.36,0.25,0.78,0.35,1.17,0.33c-0.04,0.38,0.14,0.79,0.51,1.04c0.51,0.34,1.17,0.24,1.49-0.22
			C382.11,107.92,381.95,107.27,381.44,106.92z"/>
	</g>
</g>
</svg>
