<?xml version="1.0" encoding="utf-8"?>
<!-- Generator: Adobe Illustrator 25.1.0, SVG Export Plug-In . SVG Version: 6.00 Build 0)  -->
<svg version="1.1" xmlns="http://www.w3.org/2000/svg" xmlns:xlink="http://www.w3.org/1999/xlink" x="0px" y="0px"
	 viewBox="0 0 406.55 127.76" style="enable-background:new 0 0 406.55 127.76;" xml:space="preserve">
<style type="text/css">
	.st0{display:none;}
	.st1{display:inline;fill:none;stroke:#2EA7E0;stroke-width:3;stroke-linecap:round;}
	.st2{fill:#FBE2DC;stroke:#727171;stroke-width:2;}
	.st3{fill:#FCFCE5;stroke:#727171;stroke-width:2;}
	.st4{fill:#D5EAD1;stroke:#727171;stroke-width:2;}
	.st5{fill:#C2E3DB;stroke:#727171;stroke-width:2;}
	.st6{fill:none;stroke:#727171;stroke-width:2;}
	.st7{display:inline;fill:#6BBF8E;}
	.st8{display:inline;fill:#F9D4E3;}
	.st9{fill:#EFD376;}
	.st10{fill:none;stroke:#F5CE1E;stroke-width:8;}
	.st11{fill:none;stroke:#E47A21;stroke-width:3;}
	.st12{fill:#FFFFFF;}
	.st13{fill:#FEF8EE;stroke:#FBDAB7;stroke-width:3;stroke-miterlimit:10;}
	.st14{fill:url(#SVGID_1_);}
	.st15{fill:#FFFEF8;}
	.st16{fill:url(#SVGID_2_);}
</style>
<g id="レイヤー_3" class="st0">
	<path class="st1" d="M31,82.36c0,0,0-13.61,92.15-13.61c35.93,0,97.28,6.13,125.13,8.43c21.2,1.75,84.88-9.21,110.47-8.43
		c39.48,1.21,38.22,13.61,38.22,13.61"/>
</g>
<g id="レイヤー_4" class="st0">
	<path class="st1" d="M40.95,1.97h338.99c9.79,0,17.72,7.94,17.72,17.72v49.13c0,9.79-7.94,17.72-17.72,17.72H40.95
		c-9.79,0-17.72-7.94-17.72-17.72V19.7C23.23,9.91,31.16,1.97,40.95,1.97z"/>
</g>
<g id="レイヤー_8">
</g>
<g id="レイヤー_7">
	<g>
		<path class="st2" d="M41.96,55.3c0,0-9.14,0.87-20.33,0.14s-16.93-2.4-16.93-2.4L20.4,85.77L41.96,55.3z"/>
		<path class="st3" d="M82.26,46.93c0,0-8.53,3.38-19.49,5.8c-10.95,2.41-16.93,2.41-16.93,2.41L70.03,82.2L82.26,46.93z"/>
		<path class="st4" d="M120.09,30.51c0,0-7.66,5.06-17.88,9.68s-16.07,5.84-16.07,5.84l29.24,21.52L120.09,30.51z"/>
		<path class="st5" d="M148.38,6.96c0,0-6.03,6.92-14.65,14.1c-8.62,7.17-13.93,9.91-13.93,9.91l33.92,12.94L148.38,6.96z"/>
		<path class="st6" d="M0,51.41c0,0,39.2,10.69,88.93-7.51S151.08,0,151.08,0"/>
	</g>
	<g>
		<path class="st2" d="M360.72,55.3c0,0,9.14,0.87,20.33,0.14c11.19-0.73,16.93-2.4,16.93-2.4l-15.69,32.73L360.72,55.3z"/>
		<path class="st3" d="M320.43,46.93c0,0,8.53,3.38,19.49,5.8c10.95,2.41,16.93,2.41,16.93,2.41L332.65,82.2L320.43,46.93z"/>
		<path class="st4" d="M282.6,30.51c0,0,7.66,5.06,17.88,9.68c10.22,4.61,16.07,5.84,16.07,5.84l-29.24,21.52L282.6,30.51z"/>
		<path class="st5" d="M254.3,6.96c0,0,6.03,6.92,14.65,14.1c8.62,7.17,13.93,9.91,13.93,9.91L248.97,43.9L254.3,6.96z"/>
		<path class="st6" d="M402.69,51.41c0,0-39.2,10.69-88.93-7.51S251.61,0,251.61,0"/>
	</g>
</g>
<g id="レイヤー_2" class="st0">
	<path class="st7" d="M238.93,79.85c0,0,33.69-31.54,32.9-12.27c-0.21,5.18-8.16,11.78-11.67,13.81
		C250.63,86.91,238.93,79.85,238.93,79.85z"/>
	<path class="st8" d="M210.44,6.1c-9.73,0-44.39,23.1-44.39,47.62c0,21.84,26.29,33.57,40.02,34.35c4.37,0.58,1.12-2.15,2.56-1.79
		c0,0,1.17,2,5.13,2c17.25,0,41.07-11.84,41.07-34.56C254.84,29.2,220.18,6.1,210.44,6.1z"/>
</g>
<g id="レイヤー_1">
	<g>
		<g>
			<path class="st9" d="M20.83,62.84c-0.59-3.35-0.95-5.44-1.09-6.25c-0.32-1.98-0.38-3.26-0.18-3.83c0.48-1.21,1.59-1.96,3.31-2.24
				c1.79-0.29,3.1,0.11,3.92,1.18c0.32,0.44,0.52,0.97,0.62,1.57c0.02,0.16,0.05,0.31,0.07,0.47c0.38,2.45,0.73,4.57,1.06,6.36
				c1.46-0.55,3.05-1.21,4.75-1.98c0.78-0.35,1.41-0.56,1.89-0.64c1.19-0.18,2.2,0.24,3.05,1.25c0.55,0.67,0.88,1.39,0.99,2.16
				c0.25,1.72-0.6,3.06-2.55,4.03c-1.64,0.8-3.95,1.75-6.93,2.85c0.16,0.9,0.49,2.85,0.98,5.85c0.26,1.52,0.45,2.63,0.58,3.31
				c4.66-2.03,9.28-3.37,13.83-4.02c4.75-0.68,8.71-0.22,11.87,1.35c3.72,1.86,5.86,5.04,6.43,9.53c0.57,4.51-0.63,8.23-3.57,11.15
				c-2.39,2.39-5.71,3.87-9.98,4.47c-1.86,0.26-3.25,0.32-4.16,0.15c-1.69-0.31-2.65-1.28-2.89-2.91c-0.18-1.19,0.22-2.08,1.21-2.65
				c0.48-0.28,1.58-0.55,3.3-0.8c2.79-0.4,4.89-1.35,6.31-2.87c1.37-1.45,1.9-3.29,1.6-5.53c-0.61-4.57-3.97-6.46-10.08-5.58
				c-3.88,0.56-8.16,1.95-12.8,4.19c0.05,0.33,0.1,0.67,0.16,1c0.67,4.18,1.34,8.36,2.01,12.53c0.25,1.61,0.05,3-0.59,4.17
				c-0.88,1.59-2.37,2.56-4.47,2.9c-2.4,0.39-5.07,0.12-8.03-0.8c-4.85-1.48-7.56-3.71-8.08-6.73c-0.82-4.71,2.66-9.91,10.62-15.5
				c-0.02-0.15-0.05-0.29-0.07-0.44c-0.49-2.9-1.02-5.95-1.59-9.16c-0.06-0.32-0.13-0.64-0.19-0.97c-4.24,1.38-7,2.19-8.3,2.41
				c-2.56,0.44-4.07-0.66-4.53-3.31c-0.36-2.06,0.74-3.45,3.29-4.14C15.22,64.69,17.96,63.84,20.83,62.84z M25.27,87.9
				c-3.29,2.74-4.76,5.06-4.44,6.94c0.12,0.71,0.65,1.35,1.6,1.92c1.19,0.72,2.29,1,3.31,0.84c0.53-0.09,0.83-0.3,0.91-0.63
				c0.07-0.27,0-1.03-0.21-2.28c-0.16-1-0.51-2.99-1.04-5.97C25.36,88.45,25.32,88.17,25.27,87.9z M46.65,51.09
				c1.74-0.24,4.39,0.43,7.93,2.03c1.81,0.81,3.37,1.68,4.67,2.63c1.06,0.76,1.66,1.71,1.8,2.84c0.14,1.13-0.22,2.16-1.08,3.08
				c-0.68,0.75-1.54,1.19-2.56,1.32c-1.18,0.15-2.4-0.3-3.65-1.37c-1.91-1.62-4.54-3.36-7.92-5.2c-1.07-0.6-1.67-1.37-1.81-2.31
				c-0.08-0.54,0.02-1.06,0.29-1.55C44.81,51.73,45.59,51.23,46.65,51.09z"/>
			<path class="st9" d="M91.67,63.96c-2.94,0.56-5.88,1.13-8.81,1.72c1.07,9.86,2.13,19.71,3.2,29.57c0.09,0.82-0.14,1.53-0.67,2.12
				c-0.65,0.75-1.57,1.19-2.78,1.33c-1.35,0.15-2.44-0.11-3.27-0.78c-0.57-0.47-0.9-1.07-0.98-1.8c-1.9-16.45-3.79-32.9-5.69-49.34
				c-0.14-1.18,0.36-2.12,1.5-2.82c0.67-0.4,1.42-0.64,2.25-0.73c1.64-0.18,2.88,0.21,3.71,1.19c3.75-0.77,7.5-1.52,11.25-2.25
				c0.26-0.05,0.62-0.09,1.06-0.14c3.25-0.32,5.02,1.17,5.33,4.43c0,0.04,0.01,0.15,0.03,0.32c0.29,5.18,0.59,10.36,0.89,15.54
				c0.05,1.91-1.07,2.97-3.36,3.19C93.54,65.65,92.32,65.15,91.67,63.96z M90.53,50.93c-0.04-0.55-0.09-1.1-0.13-1.65
				c-0.06-1.08-0.5-1.58-1.32-1.49c-0.16,0.02-0.27,0.03-0.33,0.03c-2.55,0.49-5.11,0.99-7.66,1.5c0.12,1.11,0.24,2.23,0.36,3.34
				C84.48,52.08,87.5,51.5,90.53,50.93z M90.89,55.49c-2.98,0.57-5.97,1.14-8.94,1.73c0.13,1.17,0.25,2.33,0.38,3.5
				c2.94-0.57,5.88-1.14,8.82-1.69C91.06,57.85,90.98,56.67,90.89,55.49z M114.97,79.54c0.88,0.46,1.37,1.27,1.46,2.43
				c0.15,1.86-0.75,2.91-2.69,3.18c-4.83,0.68-9.66,1.4-14.48,2.15c-0.19,1.42-1.28,2.23-3.29,2.42c-2.32,0.23-3.66-0.62-4.01-2.56
				c-0.94-5.06-1.88-10.12-2.83-15.18c-0.04-0.19-0.07-0.31-0.07-0.38c-0.13-1.26,0.55-2.2,2.05-2.79c0.59-0.23,1.19-0.38,1.8-0.44
				c1.43-0.14,2.49,0.26,3.18,1.22c4.23-0.76,8.47-1.5,12.71-2.21c0.24-0.04,0.53-0.08,0.88-0.11c3.63-0.31,5.57,1.04,5.8,4.01
				c0.03,0.36,0.02,0.78-0.03,1.28C115.29,74.88,115.12,77.21,114.97,79.54z M107.84,80.13c0.02-1.7,0.05-3.4,0.08-5.1
				c0-0.23,0-0.36,0-0.38c-0.02-0.74-0.42-1.05-1.19-0.92c-0.06,0.02-0.13,0.03-0.19,0.05c-3.06,0.51-6.12,1.04-9.17,1.58
				c0.35,2.09,0.71,4.18,1.06,6.28C101.56,81.12,104.7,80.62,107.84,80.13z M121.82,60.19c-3.42,0.44-6.84,0.9-10.25,1.37
				c-0.4,1.35-1.54,2.1-3.44,2.26c-1.57,0.13-2.7-0.23-3.39-1.11c-0.3-0.36-0.47-0.81-0.52-1.36c-0.56-6.28-1.12-12.56-1.68-18.84
				c-0.1-1.1,0.38-1.93,1.43-2.52c0.64-0.37,1.35-0.6,2.13-0.66c1.43-0.12,2.54,0.21,3.35,0.99c4.13-0.7,8.27-1.38,12.42-2.04
				c0.33-0.04,0.76-0.09,1.27-0.12c2.07-0.15,3.54,0.27,4.39,1.26c0.66,0.78,1.04,2.01,1.15,3.68c1.02,15.41,2.05,30.82,3.07,46.24
				c0.25,3.74-1.2,5.71-4.33,5.93c-2.37,0.17-5.48-0.35-9.33-1.53c-0.92-0.27-1.62-0.52-2.11-0.75c-1.09-0.51-1.67-1.23-1.75-2.18
				c-0.13-1.54,0.53-2.37,1.99-2.49c0.41-0.03,0.92,0.01,1.56,0.13c1.85,0.32,3.36,0.44,4.53,0.35c1.09-0.08,1.58-0.77,1.49-2.08
				C123.12,77.88,122.47,69.04,121.82,60.19z M120.87,47.25c-0.04-0.61-0.09-1.22-0.13-1.84c-0.07-0.99-0.58-1.45-1.51-1.38
				c-0.16,0.01-0.28,0.02-0.37,0.03c-2.82,0.46-5.64,0.92-8.46,1.4c0.09,1.1,0.18,2.19,0.27,3.29
				C114.07,48.23,117.47,47.73,120.87,47.25z M121.2,51.81c-3.39,0.46-6.78,0.94-10.16,1.43c0.09,1.15,0.19,2.3,0.28,3.45
				c3.37-0.48,6.75-0.94,10.13-1.39C121.38,54.13,121.29,52.97,121.2,51.81z"/>
			<path class="st9" d="M146.99,46.68c1.86-0.09,3.15,0.53,3.88,1.88c0.31,0.54,0.5,1.41,0.55,2.61c0.44,8.43,1.76,15.02,3.92,19.77
				c0.82,1.81,1.8,3.52,2.95,5.15c0.25,0.37,0.51,0.55,0.77,0.54c0.26-0.01,0.57-0.4,0.92-1.18c1.13-2.48,1.98-4.2,2.53-5.15
				c0.61-1.02,1.47-1.55,2.58-1.59c0.54-0.02,1.07,0.09,1.58,0.33c1.1,0.53,1.67,1.34,1.71,2.42c0.02,0.61-0.17,1.46-0.57,2.53
				c-1.31,3.62-2.34,6.66-3.11,9.13c-0.79,2.55-2.27,3.86-4.44,3.95c-2.97,0.12-6.05-2.36-9.31-7.43
				c-4.56-7.09-7.23-16.52-7.87-28.36c-0.1-1.75,0.43-3.02,1.59-3.8C145.35,46.98,146.13,46.72,146.99,46.68z M181.17,45.96
				c1.26-0.03,2.53,0.57,3.79,1.8c2.14,2.08,4.25,4.64,6.33,7.68c3.8,5.5,5.67,9.48,5.69,11.91c0.01,1.61-0.7,2.79-2.12,3.54
				c-0.82,0.45-1.65,0.68-2.49,0.69c-1.32,0.02-2.39-0.47-3.2-1.45c-0.33-0.4-0.73-1.29-1.21-2.68c-1.75-4.99-4.77-10.33-9.14-15.98
				c-0.61-0.81-0.93-1.6-0.95-2.36c-0.02-0.72,0.24-1.38,0.78-1.99C179.33,46.37,180.17,45.98,181.17,45.96z"/>
			<path class="st9" d="M249.26,57.2c0.09,0.43,0.13,0.82,0.12,1.18c-0.08,2.09-1.13,3.19-3.15,3.28c-6.5,0.3-13,0.66-19.49,1.08
				c-0.15,0.02-0.3,0.03-0.43,0.02c-0.98-0.02-1.74-0.39-2.27-1.12c-0.43-0.58-0.63-1.31-0.62-2.2c0.01-0.51,0.09-1.02,0.26-1.55
				c-3.88,2.96-7.46,5.3-10.76,7.02c-1.62,0.84-2.83,1.25-3.66,1.25c-0.85,0-1.53-0.32-2.05-0.96c-0.48-0.57-0.72-1.17-0.72-1.81
				c0-0.76,0.33-1.41,0.98-1.93c0.22-0.19,1.11-0.79,2.69-1.8c4.15-2.65,8.49-6.33,13.07-11.04c3.75-3.86,6.99-7.81,9.7-11.87
				c1.09-1.65,2.42-2.45,3.98-2.41c0.81,0.02,1.57,0.23,2.3,0.64c1.25,0.71,1.86,1.77,1.81,3.17c-0.01,0.3-0.05,0.61-0.13,0.95
				c2.26,2.7,5.48,5.84,9.63,9.45c5.67,4.93,10.83,8.76,15.56,11.49c1.77,1.03,2.62,1.89,2.59,2.59c-0.03,0.49-0.53,0.85-1.5,1.09
				c-3.44,0.89-5.9,1.31-7.4,1.24c-0.91-0.04-1.77-0.34-2.58-0.88C255.36,62.87,252.73,60.57,249.26,57.2z M253.4,83.22
				c1.13,0.58,1.66,1.74,1.58,3.47c-0.06,1.29-0.58,2.19-1.56,2.7c-0.42,0.24-0.88,0.35-1.39,0.35c-8.11,0.05-16.21,0.19-24.31,0.41
				c-0.44,1.62-1.81,2.41-4.13,2.37c-2.29-0.04-3.55-1.09-3.78-3.17c-0.7-6.29-1.42-12.59-2.16-18.88c0-0.11,0-0.22,0-0.35
				c0.12-1.4,0.91-2.33,2.38-2.8c0.61-0.2,1.26-0.3,1.96-0.29c1.69,0.03,2.88,0.52,3.56,1.49c7.83-0.49,15.68-0.9,23.54-1.23
				c0.35-0.01,0.77,0,1.27,0.02c3.85,0.16,5.7,1.84,5.55,5.03c-0.03,0.7-0.14,1.42-0.33,2.18C254.86,77.42,254.13,80.32,253.4,83.22
				z M246.88,54.82c-3.67-3.8-6.8-7.24-9.37-10.34c-2.9,3.64-6.7,7.46-11.39,11.48c6.64-0.46,13.28-0.86,19.94-1.21
				c0.04,0,0.15,0.01,0.33,0.01C246.43,54.77,246.59,54.79,246.88,54.82z M245.52,83.07c0.43-2.46,0.87-4.92,1.3-7.38
				c0.02-0.1,0.04-0.22,0.04-0.35c0.03-0.74-0.34-1.12-1.09-1.15c-0.02,0-0.12,0-0.29-0.01c-6.31,0.25-12.62,0.55-18.92,0.91
				c0.25,2.82,0.49,5.64,0.74,8.46C233.38,83.33,239.45,83.18,245.52,83.07z"/>
			<path class="st9" d="M289.18,51.52c0.53-4.52,0.99-7.65,1.36-9.38c0.47-2.13,1.83-3.11,4.08-2.94c2.7,0.21,3.94,1.63,3.73,4.24
				c-0.01,0.15-0.04,0.41-0.1,0.79c-0.31,1.93-0.57,3.83-0.76,5.7c0.72,0.16,1.31,0.44,1.77,0.81c0.93,0.8,1.35,1.8,1.25,3
				c-0.07,0.8-0.45,1.59-1.16,2.36c-0.46,0.51-1.15,1.35-2.06,2.51c-0.34,0.42-0.71,0.87-1.1,1.34c-0.03,0.25-0.06,0.5-0.09,0.76
				c-0.05,0.39-0.11,0.78-0.16,1.17c-0.05,0.39-0.11,0.78-0.16,1.16c-0.02,0.15-0.05,0.29-0.07,0.44c8.05-4.83,15.34-6.91,21.7-6.28
				c4.61,0.45,8.29,1.99,11.02,4.59c3.21,3.03,4.52,7.04,3.95,12c-0.55,4.88-2.63,8.83-6.19,11.89c-3.18,2.7-7.2,4.41-12.09,5.16
				c-1.09,0.17-1.92,0.23-2.5,0.17c-2-0.19-2.91-1.24-2.73-3.16c0.11-1.16,1.1-1.99,2.99-2.49c2.5-0.67,4.58-1.56,6.24-2.67
				c3.62-2.4,5.66-5.56,6.08-9.52c0.23-2.19-0.22-4.09-1.38-5.7c-1.5-2.07-3.76-3.26-6.77-3.56c-5.36-0.52-12.49,1.86-21.19,7.26
				c-0.05,0.44-0.09,0.88-0.14,1.33c-1.05,10.19-1.6,15.72-1.64,16.59c-0.03,0.59-0.04,0.92-0.05,0.98
				c-0.25,3.08-1.62,4.52-4.12,4.33c-1.46-0.11-2.48-0.66-3.05-1.66c-0.4-0.69-0.54-1.86-0.42-3.53c0.43-5.87,0.74-9.9,0.94-12.09
				c-2.06,1.55-3.73,2.88-5.02,4c-1.37,1.18-2.56,1.74-3.57,1.67c-0.92-0.06-1.76-0.54-2.53-1.43c-0.76-0.92-1.11-1.86-1.05-2.83
				c0.07-1.06,0.64-2,1.73-2.82c1.41-1.08,2.73-2.31,3.95-3.69c1.74-1.94,4.39-5.34,8.02-10.16c0.15-1.16,0.27-2.24,0.37-3.25
				c-4.34,1.3-7.2,1.91-8.6,1.82c-1.49-0.1-2.47-0.85-2.95-2.26c-0.2-0.63-0.28-1.25-0.25-1.86c0.11-1.73,1.42-2.8,3.94-3.18
				C282.77,52.76,285.69,52.22,289.18,51.52z"/>
			<path class="st9" d="M380.8,64.21c0.37-1.98,0.67-3.67,0.89-5.1c0.31-2.05,0.61-4.1,0.92-6.15c0.34-2.22,1.89-3.11,4.63-2.68
				c1.75,0.28,2.86,0.98,3.33,2.11c0.23,0.55,0.23,1.55-0.01,2.99c-0.3,1.82-0.86,4.77-1.68,8.86c0.22,0,0.45,0.01,0.67,0.01
				c1.64,0.03,3.29,0.07,4.93,0.11c2.69,0.06,4.16,0.12,4.42,0.17c1.42,0.24,2.33,1.01,2.74,2.31c0.22,0.68,0.26,1.4,0.13,2.15
				c-0.34,1.96-1.73,2.89-4.14,2.79c-1.11-0.04-3.39-0.09-6.85-0.12c-1.02-0.02-2.17-0.04-3.44-0.05
				c-1.22,5.31-2.32,9.07-3.31,11.26c-0.65,1.46-1.62,2.59-2.89,3.4c-1.24,0.79-2.48,1.09-3.7,0.9c-1.07-0.17-1.98-0.84-2.75-2.03
				c-1.28-1.99-2.52-3.59-3.73-4.8c-0.69-0.68-0.98-1.39-0.88-2.12c0.06-0.4,0.24-0.78,0.53-1.14c0.51-0.63,1.22-0.88,2.13-0.74
				c0.5,0.07,0.98,0.27,1.44,0.57c0.36,0.23,1.38,0.94,3.05,2.14c0.57-1.39,1.26-3.89,2.09-7.51c-0.49,0.01-0.98,0.02-1.47,0.03
				c-1.48,0.01-2.96,0.02-4.43,0.03c-1.51,0.01-3.02,0.02-4.53,0.04c-1.51,0.02-3.02,0.03-4.53,0.06c-0.42,0-0.84,0.01-1.26,0.01
				c-0.48,4.83-0.93,8.78-1.34,11.86c-0.29,2.22-0.07,3.9,0.67,5.03c0.89,1.39,3.1,2.33,6.61,2.85c6.1,0.91,10.76,1.5,14,1.72
				c0.39,0.02,0.7,0.05,0.94,0.09c2.34,0.38,3.31,1.82,2.89,4.3c-0.31,1.9-1.44,2.92-3.38,3.08c-1.21,0.11-6.01-0.54-14.42-1.8
				c-4.3-0.64-7.41-1.43-9.33-2.38c-3.4-1.65-5.38-4.2-5.94-7.67c-0.24-1.44-0.22-3.32,0.07-5.63c0.36-2.85,0.73-6.61,1.11-11.25
				c-2.04,0.05-5.23,0.16-9.57,0.36c-0.57,0.01-1.03,0-1.38-0.04c-1.47-0.18-2.47-0.9-3-2.16c-0.28-0.63-0.37-1.29-0.29-1.98
				c0.25-2.1,1.75-3.19,4.51-3.25c0.33,0,1.89-0.07,4.68-0.18c0.96-0.03,2.84-0.07,5.64-0.13c0.02-0.25,0.04-0.51,0.07-0.76
				c0.34-4.72,0.52-7.56,0.56-8.54c0.01-0.27,0.03-0.5,0.05-0.66c0.17-1.3,0.97-2.18,2.4-2.63c0.73-0.22,1.51-0.28,2.35-0.16
				c2.36,0.32,3.53,1.49,3.49,3.49c-0.03,1.34-0.26,4.37-0.7,9.07c0.43-0.01,0.85-0.03,1.28-0.04c1.62-0.02,3.23-0.03,4.85-0.04
				c1.61-0.02,3.22-0.04,4.83-0.06c1.59,0,3.17,0.01,4.76,0.02C379.97,64.21,380.39,64.21,380.8,64.21z"/>
		</g>
		<g>
			<path class="st10" d="M20.83,62.84c-0.59-3.35-0.95-5.44-1.09-6.25c-0.32-1.98-0.38-3.26-0.18-3.83
				c0.48-1.21,1.59-1.96,3.31-2.24c1.79-0.29,3.1,0.11,3.92,1.18c0.32,0.44,0.52,0.97,0.62,1.57c0.02,0.16,0.05,0.31,0.07,0.47
				c0.38,2.45,0.73,4.57,1.06,6.36c1.46-0.55,3.05-1.21,4.75-1.98c0.78-0.35,1.41-0.56,1.89-0.64c1.19-0.18,2.2,0.24,3.05,1.25
				c0.55,0.67,0.88,1.39,0.99,2.16c0.25,1.72-0.6,3.06-2.55,4.03c-1.64,0.8-3.95,1.75-6.93,2.85c0.16,0.9,0.49,2.85,0.98,5.85
				c0.26,1.52,0.45,2.63,0.58,3.31c4.66-2.03,9.28-3.37,13.83-4.02c4.75-0.68,8.71-0.22,11.87,1.35c3.72,1.86,5.86,5.04,6.43,9.53
				c0.57,4.51-0.63,8.23-3.57,11.15c-2.39,2.39-5.71,3.87-9.98,4.47c-1.86,0.26-3.25,0.32-4.16,0.15c-1.69-0.31-2.65-1.28-2.89-2.91
				c-0.18-1.19,0.22-2.08,1.21-2.65c0.48-0.28,1.58-0.55,3.3-0.8c2.79-0.4,4.89-1.35,6.31-2.87c1.37-1.45,1.9-3.29,1.6-5.53
				c-0.61-4.57-3.97-6.46-10.08-5.58c-3.88,0.56-8.16,1.95-12.8,4.19c0.05,0.33,0.1,0.67,0.16,1c0.67,4.18,1.34,8.36,2.01,12.53
				c0.25,1.61,0.05,3-0.59,4.17c-0.88,1.59-2.37,2.56-4.47,2.9c-2.4,0.39-5.07,0.12-8.03-0.8c-4.85-1.48-7.56-3.71-8.08-6.73
				c-0.82-4.71,2.66-9.91,10.62-15.5c-0.02-0.15-0.05-0.29-0.07-0.44c-0.49-2.9-1.02-5.95-1.59-9.16c-0.06-0.32-0.13-0.64-0.19-0.97
				c-4.24,1.38-7,2.19-8.3,2.41c-2.56,0.44-4.07-0.66-4.53-3.31c-0.36-2.06,0.74-3.45,3.29-4.14
				C15.22,64.69,17.96,63.84,20.83,62.84z M25.27,87.9c-3.29,2.74-4.76,5.06-4.44,6.94c0.12,0.71,0.65,1.35,1.6,1.92
				c1.19,0.72,2.29,1,3.31,0.84c0.53-0.09,0.83-0.3,0.91-0.63c0.07-0.27,0-1.03-0.21-2.28c-0.16-1-0.51-2.99-1.04-5.97
				C25.36,88.45,25.32,88.17,25.27,87.9z M46.65,51.09c1.74-0.24,4.39,0.43,7.93,2.03c1.81,0.81,3.37,1.68,4.67,2.63
				c1.06,0.76,1.66,1.71,1.8,2.84c0.14,1.13-0.22,2.16-1.08,3.08c-0.68,0.75-1.54,1.19-2.56,1.32c-1.18,0.15-2.4-0.3-3.65-1.37
				c-1.91-1.62-4.54-3.36-7.92-5.2c-1.07-0.6-1.67-1.37-1.81-2.31c-0.08-0.54,0.02-1.06,0.29-1.55
				C44.81,51.73,45.59,51.23,46.65,51.09z"/>
			<path class="st10" d="M91.67,63.96c-2.94,0.56-5.88,1.13-8.81,1.72c1.07,9.86,2.13,19.71,3.2,29.57
				c0.09,0.82-0.14,1.53-0.67,2.12c-0.65,0.75-1.57,1.19-2.78,1.33c-1.35,0.15-2.44-0.11-3.27-0.78c-0.57-0.47-0.9-1.07-0.98-1.8
				c-1.9-16.45-3.79-32.9-5.69-49.34c-0.14-1.18,0.36-2.12,1.5-2.82c0.67-0.4,1.42-0.64,2.25-0.73c1.64-0.18,2.88,0.21,3.71,1.19
				c3.75-0.77,7.5-1.52,11.25-2.25c0.26-0.05,0.62-0.09,1.06-0.14c3.25-0.32,5.02,1.17,5.33,4.43c0,0.04,0.01,0.15,0.03,0.32
				c0.29,5.18,0.59,10.36,0.89,15.54c0.05,1.91-1.07,2.97-3.36,3.19C93.54,65.65,92.32,65.15,91.67,63.96z M90.53,50.93
				c-0.04-0.55-0.09-1.1-0.13-1.65c-0.06-1.08-0.5-1.58-1.32-1.49c-0.16,0.02-0.27,0.03-0.33,0.03c-2.55,0.49-5.11,0.99-7.66,1.5
				c0.12,1.11,0.24,2.23,0.36,3.34C84.48,52.08,87.5,51.5,90.53,50.93z M90.89,55.49c-2.98,0.57-5.97,1.14-8.94,1.73
				c0.13,1.17,0.25,2.33,0.38,3.5c2.94-0.57,5.88-1.14,8.82-1.69C91.06,57.85,90.98,56.67,90.89,55.49z M114.97,79.54
				c0.88,0.46,1.37,1.27,1.46,2.43c0.15,1.86-0.75,2.91-2.69,3.18c-4.83,0.68-9.66,1.4-14.48,2.15c-0.19,1.42-1.28,2.23-3.29,2.42
				c-2.32,0.23-3.66-0.62-4.01-2.56c-0.94-5.06-1.88-10.12-2.83-15.18c-0.04-0.19-0.07-0.31-0.07-0.38
				c-0.13-1.26,0.55-2.2,2.05-2.79c0.59-0.23,1.19-0.38,1.8-0.44c1.43-0.14,2.49,0.26,3.18,1.22c4.23-0.76,8.47-1.5,12.71-2.21
				c0.24-0.04,0.53-0.08,0.88-0.11c3.63-0.31,5.57,1.04,5.8,4.01c0.03,0.36,0.02,0.78-0.03,1.28
				C115.29,74.88,115.12,77.21,114.97,79.54z M107.84,80.13c0.02-1.7,0.05-3.4,0.08-5.1c0-0.23,0-0.36,0-0.38
				c-0.02-0.74-0.42-1.05-1.19-0.92c-0.06,0.02-0.13,0.03-0.19,0.05c-3.06,0.51-6.12,1.04-9.17,1.58c0.35,2.09,0.71,4.18,1.06,6.28
				C101.56,81.12,104.7,80.62,107.84,80.13z M121.82,60.19c-3.42,0.44-6.84,0.9-10.25,1.37c-0.4,1.35-1.54,2.1-3.44,2.26
				c-1.57,0.13-2.7-0.23-3.39-1.11c-0.3-0.36-0.47-0.81-0.52-1.36c-0.56-6.28-1.12-12.56-1.68-18.84c-0.1-1.1,0.38-1.93,1.43-2.52
				c0.64-0.37,1.35-0.6,2.13-0.66c1.43-0.12,2.54,0.21,3.35,0.99c4.13-0.7,8.27-1.38,12.42-2.04c0.33-0.04,0.76-0.09,1.27-0.12
				c2.07-0.15,3.54,0.27,4.39,1.26c0.66,0.78,1.04,2.01,1.15,3.68c1.02,15.41,2.05,30.82,3.07,46.24c0.25,3.74-1.2,5.71-4.33,5.93
				c-2.37,0.17-5.48-0.35-9.33-1.53c-0.92-0.27-1.62-0.52-2.11-0.75c-1.09-0.51-1.67-1.23-1.75-2.18c-0.13-1.54,0.53-2.37,1.99-2.49
				c0.41-0.03,0.92,0.01,1.56,0.13c1.85,0.32,3.36,0.44,4.53,0.35c1.09-0.08,1.58-0.77,1.49-2.08
				C123.12,77.88,122.47,69.04,121.82,60.19z M120.87,47.25c-0.04-0.61-0.09-1.22-0.13-1.84c-0.07-0.99-0.58-1.45-1.51-1.38
				c-0.16,0.01-0.28,0.02-0.37,0.03c-2.82,0.46-5.64,0.92-8.46,1.4c0.09,1.1,0.18,2.19,0.27,3.29
				C114.07,48.23,117.47,47.73,120.87,47.25z M121.2,51.81c-3.39,0.46-6.78,0.94-10.16,1.43c0.09,1.15,0.19,2.3,0.28,3.45
				c3.37-0.48,6.75-0.94,10.13-1.39C121.38,54.13,121.29,52.97,121.2,51.81z"/>
			<path class="st10" d="M146.99,46.68c1.86-0.09,3.15,0.53,3.88,1.88c0.31,0.54,0.5,1.41,0.55,2.61
				c0.44,8.43,1.76,15.02,3.92,19.77c0.82,1.81,1.8,3.52,2.95,5.15c0.25,0.37,0.51,0.55,0.77,0.54c0.26-0.01,0.57-0.4,0.92-1.18
				c1.13-2.48,1.98-4.2,2.53-5.15c0.61-1.02,1.47-1.55,2.58-1.59c0.54-0.02,1.07,0.09,1.58,0.33c1.1,0.53,1.67,1.34,1.71,2.42
				c0.02,0.61-0.17,1.46-0.57,2.53c-1.31,3.62-2.34,6.66-3.11,9.13c-0.79,2.55-2.27,3.86-4.44,3.95c-2.97,0.12-6.05-2.36-9.31-7.43
				c-4.56-7.09-7.23-16.52-7.87-28.36c-0.1-1.75,0.43-3.02,1.59-3.8C145.35,46.98,146.13,46.72,146.99,46.68z M181.17,45.96
				c1.26-0.03,2.53,0.57,3.79,1.8c2.14,2.08,4.25,4.64,6.33,7.68c3.8,5.5,5.67,9.48,5.69,11.91c0.01,1.61-0.7,2.79-2.12,3.54
				c-0.82,0.45-1.65,0.68-2.49,0.69c-1.32,0.02-2.39-0.47-3.2-1.45c-0.33-0.4-0.73-1.29-1.21-2.68c-1.75-4.99-4.77-10.33-9.14-15.98
				c-0.61-0.81-0.93-1.6-0.95-2.36c-0.02-0.72,0.24-1.38,0.78-1.99C179.33,46.37,180.17,45.98,181.17,45.96z"/>
			<path class="st10" d="M249.26,57.2c0.09,0.43,0.13,0.82,0.12,1.18c-0.08,2.09-1.13,3.19-3.15,3.28c-6.5,0.3-13,0.66-19.49,1.08
				c-0.15,0.02-0.3,0.03-0.43,0.02c-0.98-0.02-1.74-0.39-2.27-1.12c-0.43-0.58-0.63-1.31-0.62-2.2c0.01-0.51,0.09-1.02,0.26-1.55
				c-3.88,2.96-7.46,5.3-10.76,7.02c-1.62,0.84-2.83,1.25-3.66,1.25c-0.85,0-1.53-0.32-2.05-0.96c-0.48-0.57-0.72-1.17-0.72-1.81
				c0-0.76,0.33-1.41,0.98-1.93c0.22-0.19,1.11-0.79,2.69-1.8c4.15-2.65,8.49-6.33,13.07-11.04c3.75-3.86,6.99-7.81,9.7-11.87
				c1.09-1.65,2.42-2.45,3.98-2.41c0.81,0.02,1.57,0.23,2.3,0.64c1.25,0.71,1.86,1.77,1.81,3.17c-0.01,0.3-0.05,0.61-0.13,0.95
				c2.26,2.7,5.48,5.84,9.63,9.45c5.67,4.93,10.83,8.76,15.56,11.49c1.77,1.03,2.62,1.89,2.59,2.59c-0.03,0.49-0.53,0.85-1.5,1.09
				c-3.44,0.89-5.9,1.31-7.4,1.24c-0.91-0.04-1.77-0.34-2.58-0.88C255.36,62.87,252.73,60.57,249.26,57.2z M253.4,83.22
				c1.13,0.58,1.66,1.74,1.58,3.47c-0.06,1.29-0.58,2.19-1.56,2.7c-0.42,0.24-0.88,0.35-1.39,0.35c-8.11,0.05-16.21,0.19-24.31,0.41
				c-0.44,1.62-1.81,2.41-4.13,2.37c-2.29-0.04-3.55-1.09-3.78-3.17c-0.7-6.29-1.42-12.59-2.16-18.88c0-0.11,0-0.22,0-0.35
				c0.12-1.4,0.91-2.33,2.38-2.8c0.61-0.2,1.26-0.3,1.96-0.29c1.69,0.03,2.88,0.52,3.56,1.49c7.83-0.49,15.68-0.9,23.54-1.23
				c0.35-0.01,0.77,0,1.27,0.02c3.85,0.16,5.7,1.84,5.55,5.03c-0.03,0.7-0.14,1.42-0.33,2.18C254.86,77.42,254.13,80.32,253.4,83.22
				z M246.88,54.82c-3.67-3.8-6.8-7.24-9.37-10.34c-2.9,3.64-6.7,7.46-11.39,11.48c6.64-0.46,13.28-0.86,19.94-1.21
				c0.04,0,0.15,0.01,0.33,0.01C246.43,54.77,246.59,54.79,246.88,54.82z M245.52,83.07c0.43-2.46,0.87-4.92,1.3-7.38
				c0.02-0.1,0.04-0.22,0.04-0.35c0.03-0.74-0.34-1.12-1.09-1.15c-0.02,0-0.12,0-0.29-0.01c-6.31,0.25-12.62,0.55-18.92,0.91
				c0.25,2.82,0.49,5.64,0.74,8.46C233.38,83.33,239.45,83.18,245.52,83.07z"/>
			<path class="st10" d="M289.18,51.52c0.53-4.52,0.99-7.65,1.36-9.38c0.47-2.13,1.83-3.11,4.08-2.94c2.7,0.21,3.94,1.63,3.73,4.24
				c-0.01,0.15-0.04,0.41-0.1,0.79c-0.31,1.93-0.57,3.83-0.76,5.7c0.72,0.16,1.31,0.44,1.77,0.81c0.93,0.8,1.35,1.8,1.25,3
				c-0.07,0.8-0.45,1.59-1.16,2.36c-0.46,0.51-1.15,1.35-2.06,2.51c-0.34,0.42-0.71,0.87-1.1,1.34c-0.03,0.25-0.06,0.5-0.09,0.76
				c-0.05,0.39-0.11,0.78-0.16,1.17c-0.05,0.39-0.11,0.78-0.16,1.16c-0.02,0.15-0.05,0.29-0.07,0.44c8.05-4.83,15.34-6.91,21.7-6.28
				c4.61,0.45,8.29,1.99,11.02,4.59c3.21,3.03,4.52,7.04,3.95,12c-0.55,4.88-2.63,8.83-6.19,11.89c-3.18,2.7-7.2,4.41-12.09,5.16
				c-1.09,0.17-1.92,0.23-2.5,0.17c-2-0.19-2.91-1.24-2.73-3.16c0.11-1.16,1.1-1.99,2.99-2.49c2.5-0.67,4.58-1.56,6.24-2.67
				c3.62-2.4,5.66-5.56,6.08-9.52c0.23-2.19-0.22-4.09-1.38-5.7c-1.5-2.07-3.76-3.26-6.77-3.56c-5.36-0.52-12.49,1.86-21.19,7.26
				c-0.05,0.44-0.09,0.88-0.14,1.33c-1.05,10.19-1.6,15.72-1.64,16.59c-0.03,0.59-0.04,0.92-0.05,0.98
				c-0.25,3.08-1.62,4.52-4.12,4.33c-1.46-0.11-2.48-0.66-3.05-1.66c-0.4-0.69-0.54-1.86-0.42-3.53c0.43-5.87,0.74-9.9,0.94-12.09
				c-2.06,1.55-3.73,2.88-5.02,4c-1.37,1.18-2.56,1.74-3.57,1.67c-0.92-0.06-1.76-0.54-2.53-1.43c-0.76-0.92-1.11-1.86-1.05-2.83
				c0.07-1.06,0.64-2,1.73-2.82c1.41-1.08,2.73-2.31,3.95-3.69c1.74-1.94,4.39-5.34,8.02-10.16c0.15-1.16,0.27-2.24,0.37-3.25
				c-4.34,1.3-7.2,1.91-8.6,1.82c-1.49-0.1-2.47-0.85-2.95-2.26c-0.2-0.63-0.28-1.25-0.25-1.86c0.11-1.73,1.42-2.8,3.94-3.18
				C282.77,52.76,285.69,52.22,289.18,51.52z"/>
			<path class="st10" d="M380.8,64.21c0.37-1.98,0.67-3.67,0.89-5.1c0.31-2.05,0.61-4.1,0.92-6.15c0.34-2.22,1.89-3.11,4.63-2.68
				c1.75,0.28,2.86,0.98,3.33,2.11c0.23,0.55,0.23,1.55-0.01,2.99c-0.3,1.82-0.86,4.77-1.68,8.86c0.22,0,0.45,0.01,0.67,0.01
				c1.64,0.03,3.29,0.07,4.93,0.11c2.69,0.06,4.16,0.12,4.42,0.17c1.42,0.24,2.33,1.01,2.74,2.31c0.22,0.68,0.26,1.4,0.13,2.15
				c-0.34,1.96-1.73,2.89-4.14,2.79c-1.11-0.04-3.39-0.09-6.85-0.12c-1.02-0.02-2.17-0.04-3.44-0.05
				c-1.22,5.31-2.32,9.07-3.31,11.26c-0.65,1.46-1.62,2.59-2.89,3.4c-1.24,0.79-2.48,1.09-3.7,0.9c-1.07-0.17-1.98-0.84-2.75-2.03
				c-1.28-1.99-2.52-3.59-3.73-4.8c-0.69-0.68-0.98-1.39-0.88-2.12c0.06-0.4,0.24-0.78,0.53-1.14c0.51-0.63,1.22-0.88,2.13-0.74
				c0.5,0.07,0.98,0.27,1.44,0.57c0.36,0.23,1.38,0.94,3.05,2.14c0.57-1.39,1.26-3.89,2.09-7.51c-0.49,0.01-0.98,0.02-1.47,0.03
				c-1.48,0.01-2.96,0.02-4.43,0.03c-1.51,0.01-3.02,0.02-4.53,0.04c-1.51,0.02-3.02,0.03-4.53,0.06c-0.42,0-0.84,0.01-1.26,0.01
				c-0.48,4.83-0.93,8.78-1.34,11.86c-0.29,2.22-0.07,3.9,0.67,5.03c0.89,1.39,3.1,2.33,6.61,2.85c6.1,0.91,10.76,1.5,14,1.72
				c0.39,0.02,0.7,0.05,0.94,0.09c2.34,0.38,3.31,1.82,2.89,4.3c-0.31,1.9-1.44,2.92-3.38,3.08c-1.21,0.11-6.01-0.54-14.42-1.8
				c-4.3-0.64-7.41-1.43-9.33-2.38c-3.4-1.65-5.38-4.2-5.94-7.67c-0.24-1.44-0.22-3.32,0.07-5.63c0.36-2.85,0.73-6.61,1.11-11.25
				c-2.04,0.05-5.23,0.16-9.57,0.36c-0.57,0.01-1.03,0-1.38-0.04c-1.47-0.18-2.47-0.9-3-2.16c-0.28-0.63-0.37-1.29-0.29-1.98
				c0.25-2.1,1.75-3.19,4.51-3.25c0.33,0,1.89-0.07,4.68-0.18c0.96-0.03,2.84-0.07,5.64-0.13c0.02-0.25,0.04-0.51,0.07-0.76
				c0.34-4.72,0.52-7.56,0.56-8.54c0.01-0.27,0.03-0.5,0.05-0.66c0.17-1.3,0.97-2.18,2.4-2.63c0.73-0.22,1.51-0.28,2.35-0.16
				c2.36,0.32,3.53,1.49,3.49,3.49c-0.03,1.34-0.26,4.37-0.7,9.07c0.43-0.01,0.85-0.03,1.28-0.04c1.62-0.02,3.23-0.03,4.85-0.04
				c1.61-0.02,3.22-0.04,4.83-0.06c1.59,0,3.17,0.01,4.76,0.02C379.97,64.21,380.39,64.21,380.8,64.21z"/>
		</g>
		<g>
			<path class="st11" d="M20.83,62.84c-0.59-3.35-0.95-5.44-1.09-6.25c-0.32-1.98-0.38-3.26-0.18-3.83
				c0.48-1.21,1.59-1.96,3.31-2.24c1.79-0.29,3.1,0.11,3.92,1.18c0.32,0.44,0.52,0.97,0.62,1.57c0.02,0.16,0.05,0.31,0.07,0.47
				c0.38,2.45,0.73,4.57,1.06,6.36c1.46-0.55,3.05-1.21,4.75-1.98c0.78-0.35,1.41-0.56,1.89-0.64c1.19-0.18,2.2,0.24,3.05,1.25
				c0.55,0.67,0.88,1.39,0.99,2.16c0.25,1.72-0.6,3.06-2.55,4.03c-1.64,0.8-3.95,1.75-6.93,2.85c0.16,0.9,0.49,2.85,0.98,5.85
				c0.26,1.52,0.45,2.63,0.58,3.31c4.66-2.03,9.28-3.37,13.83-4.02c4.75-0.68,8.71-0.22,11.87,1.35c3.72,1.86,5.86,5.04,6.43,9.53
				c0.57,4.51-0.63,8.23-3.57,11.15c-2.39,2.39-5.71,3.87-9.98,4.47c-1.86,0.26-3.25,0.32-4.16,0.15c-1.69-0.31-2.65-1.28-2.89-2.91
				c-0.18-1.19,0.22-2.08,1.21-2.65c0.48-0.28,1.58-0.55,3.3-0.8c2.79-0.4,4.89-1.35,6.31-2.87c1.37-1.45,1.9-3.29,1.6-5.53
				c-0.61-4.57-3.97-6.46-10.08-5.58c-3.88,0.56-8.16,1.95-12.8,4.19c0.05,0.33,0.1,0.67,0.16,1c0.67,4.18,1.34,8.36,2.01,12.53
				c0.25,1.61,0.05,3-0.59,4.17c-0.88,1.59-2.37,2.56-4.47,2.9c-2.4,0.39-5.07,0.12-8.03-0.8c-4.85-1.48-7.56-3.71-8.08-6.73
				c-0.82-4.71,2.66-9.91,10.62-15.5c-0.02-0.15-0.05-0.29-0.07-0.44c-0.49-2.9-1.02-5.95-1.59-9.16c-0.06-0.32-0.13-0.64-0.19-0.97
				c-4.24,1.38-7,2.19-8.3,2.41c-2.56,0.44-4.07-0.66-4.53-3.31c-0.36-2.06,0.74-3.45,3.29-4.14
				C15.22,64.69,17.96,63.84,20.83,62.84z M25.27,87.9c-3.29,2.74-4.76,5.06-4.44,6.94c0.12,0.71,0.65,1.35,1.6,1.92
				c1.19,0.72,2.29,1,3.31,0.84c0.53-0.09,0.83-0.3,0.91-0.63c0.07-0.27,0-1.03-0.21-2.28c-0.16-1-0.51-2.99-1.04-5.97
				C25.36,88.45,25.32,88.17,25.27,87.9z M46.65,51.09c1.74-0.24,4.39,0.43,7.93,2.03c1.81,0.81,3.37,1.68,4.67,2.63
				c1.06,0.76,1.66,1.71,1.8,2.84c0.14,1.13-0.22,2.16-1.08,3.08c-0.68,0.75-1.54,1.19-2.56,1.32c-1.18,0.15-2.4-0.3-3.65-1.37
				c-1.91-1.62-4.54-3.36-7.92-5.2c-1.07-0.6-1.67-1.37-1.81-2.31c-0.08-0.54,0.02-1.06,0.29-1.55
				C44.81,51.73,45.59,51.23,46.65,51.09z"/>
			<path class="st11" d="M91.67,63.96c-2.94,0.56-5.88,1.13-8.81,1.72c1.07,9.86,2.13,19.71,3.2,29.57
				c0.09,0.82-0.14,1.53-0.67,2.12c-0.65,0.75-1.57,1.19-2.78,1.33c-1.35,0.15-2.44-0.11-3.27-0.78c-0.57-0.47-0.9-1.07-0.98-1.8
				c-1.9-16.45-3.79-32.9-5.69-49.34c-0.14-1.18,0.36-2.12,1.5-2.82c0.67-0.4,1.42-0.64,2.25-0.73c1.64-0.18,2.88,0.21,3.71,1.19
				c3.75-0.77,7.5-1.52,11.25-2.25c0.26-0.05,0.62-0.09,1.06-0.14c3.25-0.32,5.02,1.17,5.33,4.43c0,0.04,0.01,0.15,0.03,0.32
				c0.29,5.18,0.59,10.36,0.89,15.54c0.05,1.91-1.07,2.97-3.36,3.19C93.54,65.65,92.32,65.15,91.67,63.96z M90.53,50.93
				c-0.04-0.55-0.09-1.1-0.13-1.65c-0.06-1.08-0.5-1.58-1.32-1.49c-0.16,0.02-0.27,0.03-0.33,0.03c-2.55,0.49-5.11,0.99-7.66,1.5
				c0.12,1.11,0.24,2.23,0.36,3.34C84.48,52.08,87.5,51.5,90.53,50.93z M90.89,55.49c-2.98,0.57-5.97,1.14-8.94,1.73
				c0.13,1.17,0.25,2.33,0.38,3.5c2.94-0.57,5.88-1.14,8.82-1.69C91.06,57.85,90.98,56.67,90.89,55.49z M114.97,79.54
				c0.88,0.46,1.37,1.27,1.46,2.43c0.15,1.86-0.75,2.91-2.69,3.18c-4.83,0.68-9.66,1.4-14.48,2.15c-0.19,1.42-1.28,2.23-3.29,2.42
				c-2.32,0.23-3.66-0.62-4.01-2.56c-0.94-5.06-1.88-10.12-2.83-15.18c-0.04-0.19-0.07-0.31-0.07-0.38
				c-0.13-1.26,0.55-2.2,2.05-2.79c0.59-0.23,1.19-0.38,1.8-0.44c1.43-0.14,2.49,0.26,3.18,1.22c4.23-0.76,8.47-1.5,12.71-2.21
				c0.24-0.04,0.53-0.08,0.88-0.11c3.63-0.31,5.57,1.04,5.8,4.01c0.03,0.36,0.02,0.78-0.03,1.28
				C115.29,74.88,115.12,77.21,114.97,79.54z M107.84,80.13c0.02-1.7,0.05-3.4,0.08-5.1c0-0.23,0-0.36,0-0.38
				c-0.02-0.74-0.42-1.05-1.19-0.92c-0.06,0.02-0.13,0.03-0.19,0.05c-3.06,0.51-6.12,1.04-9.17,1.58c0.35,2.09,0.71,4.18,1.06,6.28
				C101.56,81.12,104.7,80.62,107.84,80.13z M121.82,60.19c-3.42,0.44-6.84,0.9-10.25,1.37c-0.4,1.35-1.54,2.1-3.44,2.26
				c-1.57,0.13-2.7-0.23-3.39-1.11c-0.3-0.36-0.47-0.81-0.52-1.36c-0.56-6.28-1.12-12.56-1.68-18.84c-0.1-1.1,0.38-1.93,1.43-2.52
				c0.64-0.37,1.35-0.6,2.13-0.66c1.43-0.12,2.54,0.21,3.35,0.99c4.13-0.7,8.27-1.38,12.42-2.04c0.33-0.04,0.76-0.09,1.27-0.12
				c2.07-0.15,3.54,0.27,4.39,1.26c0.66,0.78,1.04,2.01,1.15,3.68c1.02,15.41,2.05,30.82,3.07,46.24c0.25,3.74-1.2,5.71-4.33,5.93
				c-2.37,0.17-5.48-0.35-9.33-1.53c-0.92-0.27-1.62-0.52-2.11-0.75c-1.09-0.51-1.67-1.23-1.75-2.18c-0.13-1.54,0.53-2.37,1.99-2.49
				c0.41-0.03,0.92,0.01,1.56,0.13c1.85,0.32,3.36,0.44,4.53,0.35c1.09-0.08,1.58-0.77,1.49-2.08
				C123.12,77.88,122.47,69.04,121.82,60.19z M120.87,47.25c-0.04-0.61-0.09-1.22-0.13-1.84c-0.07-0.99-0.58-1.45-1.51-1.38
				c-0.16,0.01-0.28,0.02-0.37,0.03c-2.82,0.46-5.64,0.92-8.46,1.4c0.09,1.1,0.18,2.19,0.27,3.29
				C114.07,48.23,117.47,47.73,120.87,47.25z M121.2,51.81c-3.39,0.46-6.78,0.94-10.16,1.43c0.09,1.15,0.19,2.3,0.28,3.45
				c3.37-0.48,6.75-0.94,10.13-1.39C121.38,54.13,121.29,52.97,121.2,51.81z"/>
			<path class="st11" d="M146.99,46.68c1.86-0.09,3.15,0.53,3.88,1.88c0.31,0.54,0.5,1.41,0.55,2.61
				c0.44,8.43,1.76,15.02,3.92,19.77c0.82,1.81,1.8,3.52,2.95,5.15c0.25,0.37,0.51,0.55,0.77,0.54c0.26-0.01,0.57-0.4,0.92-1.18
				c1.13-2.48,1.98-4.2,2.53-5.15c0.61-1.02,1.47-1.55,2.58-1.59c0.54-0.02,1.07,0.09,1.58,0.33c1.1,0.53,1.67,1.34,1.71,2.42
				c0.02,0.61-0.17,1.46-0.57,2.53c-1.31,3.62-2.34,6.66-3.11,9.13c-0.79,2.55-2.27,3.86-4.44,3.95c-2.97,0.12-6.05-2.36-9.31-7.43
				c-4.56-7.09-7.23-16.52-7.87-28.36c-0.1-1.75,0.43-3.02,1.59-3.8C145.35,46.98,146.13,46.72,146.99,46.68z M181.17,45.96
				c1.26-0.03,2.53,0.57,3.79,1.8c2.14,2.08,4.25,4.64,6.33,7.68c3.8,5.5,5.67,9.48,5.69,11.91c0.01,1.61-0.7,2.79-2.12,3.54
				c-0.82,0.45-1.65,0.68-2.49,0.69c-1.32,0.02-2.39-0.47-3.2-1.45c-0.33-0.4-0.73-1.29-1.21-2.68c-1.75-4.99-4.77-10.33-9.14-15.98
				c-0.61-0.81-0.93-1.6-0.95-2.36c-0.02-0.72,0.24-1.38,0.78-1.99C179.33,46.37,180.17,45.98,181.17,45.96z"/>
			<path class="st11" d="M249.26,57.2c0.09,0.43,0.13,0.82,0.12,1.18c-0.08,2.09-1.13,3.19-3.15,3.28c-6.5,0.3-13,0.66-19.49,1.08
				c-0.15,0.02-0.3,0.03-0.43,0.02c-0.98-0.02-1.74-0.39-2.27-1.12c-0.43-0.58-0.63-1.31-0.62-2.2c0.01-0.51,0.09-1.02,0.26-1.55
				c-3.88,2.96-7.46,5.3-10.76,7.02c-1.62,0.84-2.83,1.25-3.66,1.25c-0.85,0-1.53-0.32-2.05-0.96c-0.48-0.57-0.72-1.17-0.72-1.81
				c0-0.76,0.33-1.41,0.98-1.93c0.22-0.19,1.11-0.79,2.69-1.8c4.15-2.65,8.49-6.33,13.07-11.04c3.75-3.86,6.99-7.81,9.7-11.87
				c1.09-1.65,2.42-2.45,3.98-2.41c0.81,0.02,1.57,0.23,2.3,0.64c1.25,0.71,1.86,1.77,1.81,3.17c-0.01,0.3-0.05,0.61-0.13,0.95
				c2.26,2.7,5.48,5.84,9.63,9.45c5.67,4.93,10.83,8.76,15.56,11.49c1.77,1.03,2.62,1.89,2.59,2.59c-0.03,0.49-0.53,0.85-1.5,1.09
				c-3.44,0.89-5.9,1.31-7.4,1.24c-0.91-0.04-1.77-0.34-2.58-0.88C255.36,62.87,252.73,60.57,249.26,57.2z M253.4,83.22
				c1.13,0.58,1.66,1.74,1.58,3.47c-0.06,1.29-0.58,2.19-1.56,2.7c-0.42,0.24-0.88,0.35-1.39,0.35c-8.11,0.05-16.21,0.19-24.31,0.41
				c-0.44,1.62-1.81,2.41-4.13,2.37c-2.29-0.04-3.55-1.09-3.78-3.17c-0.7-6.29-1.42-12.59-2.16-18.88c0-0.11,0-0.22,0-0.35
				c0.12-1.4,0.91-2.33,2.38-2.8c0.61-0.2,1.26-0.3,1.96-0.29c1.69,0.03,2.88,0.52,3.56,1.49c7.83-0.49,15.68-0.9,23.54-1.23
				c0.35-0.01,0.77,0,1.27,0.02c3.85,0.16,5.7,1.84,5.55,5.03c-0.03,0.7-0.14,1.42-0.33,2.18C254.86,77.42,254.13,80.32,253.4,83.22
				z M246.88,54.82c-3.67-3.8-6.8-7.24-9.37-10.34c-2.9,3.64-6.7,7.46-11.39,11.48c6.64-0.46,13.28-0.86,19.94-1.21
				c0.04,0,0.15,0.01,0.33,0.01C246.43,54.77,246.59,54.79,246.88,54.82z M245.52,83.07c0.43-2.46,0.87-4.92,1.3-7.38
				c0.02-0.1,0.04-0.22,0.04-0.35c0.03-0.74-0.34-1.12-1.09-1.15c-0.02,0-0.12,0-0.29-0.01c-6.31,0.25-12.62,0.55-18.92,0.91
				c0.25,2.82,0.49,5.64,0.74,8.46C233.38,83.33,239.45,83.18,245.52,83.07z"/>
			<path class="st11" d="M289.18,51.52c0.53-4.52,0.99-7.65,1.36-9.38c0.47-2.13,1.83-3.11,4.08-2.94c2.7,0.21,3.94,1.63,3.73,4.24
				c-0.01,0.15-0.04,0.41-0.1,0.79c-0.31,1.93-0.57,3.83-0.76,5.7c0.72,0.16,1.31,0.44,1.77,0.81c0.93,0.8,1.35,1.8,1.25,3
				c-0.07,0.8-0.45,1.59-1.16,2.36c-0.46,0.51-1.15,1.35-2.06,2.51c-0.34,0.42-0.71,0.87-1.1,1.34c-0.03,0.25-0.06,0.5-0.09,0.76
				c-0.05,0.39-0.11,0.78-0.16,1.17c-0.05,0.39-0.11,0.78-0.16,1.16c-0.02,0.15-0.05,0.29-0.07,0.44c8.05-4.83,15.34-6.91,21.7-6.28
				c4.61,0.45,8.29,1.99,11.02,4.59c3.21,3.03,4.52,7.04,3.95,12c-0.55,4.88-2.63,8.83-6.19,11.89c-3.18,2.7-7.2,4.41-12.09,5.16
				c-1.09,0.17-1.92,0.23-2.5,0.17c-2-0.19-2.91-1.24-2.73-3.16c0.11-1.16,1.1-1.99,2.99-2.49c2.5-0.67,4.58-1.56,6.24-2.67
				c3.62-2.4,5.66-5.56,6.08-9.52c0.23-2.19-0.22-4.09-1.38-5.7c-1.5-2.07-3.76-3.26-6.77-3.56c-5.36-0.52-12.49,1.86-21.19,7.26
				c-0.05,0.44-0.09,0.88-0.14,1.33c-1.05,10.19-1.6,15.72-1.64,16.59c-0.03,0.59-0.04,0.92-0.05,0.98
				c-0.25,3.08-1.62,4.52-4.12,4.33c-1.46-0.11-2.48-0.66-3.05-1.66c-0.4-0.69-0.54-1.86-0.42-3.53c0.43-5.87,0.74-9.9,0.94-12.09
				c-2.06,1.55-3.73,2.88-5.02,4c-1.37,1.18-2.56,1.74-3.57,1.67c-0.92-0.06-1.76-0.54-2.53-1.43c-0.76-0.92-1.11-1.86-1.05-2.83
				c0.07-1.06,0.64-2,1.73-2.82c1.41-1.08,2.73-2.31,3.95-3.69c1.74-1.94,4.39-5.34,8.02-10.16c0.15-1.16,0.27-2.24,0.37-3.25
				c-4.34,1.3-7.2,1.91-8.6,1.82c-1.49-0.1-2.47-0.85-2.95-2.26c-0.2-0.63-0.28-1.25-0.25-1.86c0.11-1.73,1.42-2.8,3.94-3.18
				C282.77,52.76,285.69,52.22,289.18,51.52z"/>
			<path class="st11" d="M380.8,64.21c0.37-1.98,0.67-3.67,0.89-5.1c0.31-2.05,0.61-4.1,0.92-6.15c0.34-2.22,1.89-3.11,4.63-2.68
				c1.75,0.28,2.86,0.98,3.33,2.11c0.23,0.55,0.23,1.55-0.01,2.99c-0.3,1.82-0.86,4.77-1.68,8.86c0.22,0,0.45,0.01,0.67,0.01
				c1.64,0.03,3.29,0.07,4.93,0.11c2.69,0.06,4.16,0.12,4.42,0.17c1.42,0.24,2.33,1.01,2.74,2.31c0.22,0.68,0.26,1.4,0.13,2.15
				c-0.34,1.96-1.73,2.89-4.14,2.79c-1.11-0.04-3.39-0.09-6.85-0.12c-1.02-0.02-2.17-0.04-3.44-0.05
				c-1.22,5.31-2.32,9.07-3.31,11.26c-0.65,1.46-1.62,2.59-2.89,3.4c-1.24,0.79-2.48,1.09-3.7,0.9c-1.07-0.17-1.98-0.84-2.75-2.03
				c-1.28-1.99-2.52-3.59-3.73-4.8c-0.69-0.68-0.98-1.39-0.88-2.12c0.06-0.4,0.24-0.78,0.53-1.14c0.51-0.63,1.22-0.88,2.13-0.74
				c0.5,0.07,0.98,0.27,1.44,0.57c0.36,0.23,1.38,0.94,3.05,2.14c0.57-1.39,1.26-3.89,2.09-7.51c-0.49,0.01-0.98,0.02-1.47,0.03
				c-1.48,0.01-2.96,0.02-4.43,0.03c-1.51,0.01-3.02,0.02-4.53,0.04c-1.51,0.02-3.02,0.03-4.53,0.06c-0.42,0-0.84,0.01-1.26,0.01
				c-0.48,4.83-0.93,8.78-1.34,11.86c-0.29,2.22-0.07,3.9,0.67,5.03c0.89,1.39,3.1,2.33,6.61,2.85c6.1,0.91,10.76,1.5,14,1.72
				c0.39,0.02,0.7,0.05,0.94,0.09c2.34,0.38,3.31,1.82,2.89,4.3c-0.31,1.9-1.44,2.92-3.38,3.08c-1.21,0.11-6.01-0.54-14.42-1.8
				c-4.3-0.64-7.41-1.43-9.33-2.38c-3.4-1.65-5.38-4.2-5.94-7.67c-0.24-1.44-0.22-3.32,0.07-5.63c0.36-2.85,0.73-6.61,1.11-11.25
				c-2.04,0.05-5.23,0.16-9.57,0.36c-0.57,0.01-1.03,0-1.38-0.04c-1.47-0.18-2.47-0.9-3-2.16c-0.28-0.63-0.37-1.29-0.29-1.98
				c0.25-2.1,1.75-3.19,4.51-3.25c0.33,0,1.89-0.07,4.68-0.18c0.96-0.03,2.84-0.07,5.64-0.13c0.02-0.25,0.04-0.51,0.07-0.76
				c0.34-4.72,0.52-7.56,0.56-8.54c0.01-0.27,0.03-0.5,0.05-0.66c0.17-1.3,0.97-2.18,2.4-2.63c0.73-0.22,1.51-0.28,2.35-0.16
				c2.36,0.32,3.53,1.49,3.49,3.49c-0.03,1.34-0.26,4.37-0.7,9.07c0.43-0.01,0.85-0.03,1.28-0.04c1.62-0.02,3.23-0.03,4.85-0.04
				c1.61-0.02,3.22-0.04,4.83-0.06c1.59,0,3.17,0.01,4.76,0.02C379.97,64.21,380.39,64.21,380.8,64.21z"/>
		</g>
		<g>
			<path class="st12" d="M20.83,62.84c-0.59-3.35-0.95-5.44-1.09-6.25c-0.32-1.98-0.38-3.26-0.18-3.83
				c0.48-1.21,1.59-1.96,3.31-2.24c1.79-0.29,3.1,0.11,3.92,1.18c0.32,0.44,0.52,0.97,0.62,1.57c0.02,0.16,0.05,0.31,0.07,0.47
				c0.38,2.45,0.73,4.57,1.06,6.36c1.46-0.55,3.05-1.21,4.75-1.98c0.78-0.35,1.41-0.56,1.89-0.64c1.19-0.18,2.2,0.24,3.05,1.25
				c0.55,0.67,0.88,1.39,0.99,2.16c0.25,1.72-0.6,3.06-2.55,4.03c-1.64,0.8-3.95,1.75-6.93,2.85c0.16,0.9,0.49,2.85,0.98,5.85
				c0.26,1.52,0.45,2.63,0.58,3.31c4.66-2.03,9.28-3.37,13.83-4.02c4.75-0.68,8.71-0.22,11.87,1.35c3.72,1.86,5.86,5.04,6.43,9.53
				c0.57,4.51-0.63,8.23-3.57,11.15c-2.39,2.39-5.71,3.87-9.98,4.47c-1.86,0.26-3.25,0.32-4.16,0.15c-1.69-0.31-2.65-1.28-2.89-2.91
				c-0.18-1.19,0.22-2.08,1.21-2.65c0.48-0.28,1.58-0.55,3.3-0.8c2.79-0.4,4.89-1.35,6.31-2.87c1.37-1.45,1.9-3.29,1.6-5.53
				c-0.61-4.57-3.97-6.46-10.08-5.58c-3.88,0.56-8.16,1.95-12.8,4.19c0.05,0.33,0.1,0.67,0.16,1c0.67,4.18,1.34,8.36,2.01,12.53
				c0.25,1.61,0.05,3-0.59,4.17c-0.88,1.59-2.37,2.56-4.47,2.9c-2.4,0.39-5.07,0.12-8.03-0.8c-4.85-1.48-7.56-3.71-8.08-6.73
				c-0.82-4.71,2.66-9.91,10.62-15.5c-0.02-0.15-0.05-0.29-0.07-0.44c-0.49-2.9-1.02-5.95-1.59-9.16c-0.06-0.32-0.13-0.64-0.19-0.97
				c-4.24,1.38-7,2.19-8.3,2.41c-2.56,0.44-4.07-0.66-4.53-3.31c-0.36-2.06,0.74-3.45,3.29-4.14
				C15.22,64.69,17.96,63.84,20.83,62.84z M25.27,87.9c-3.29,2.74-4.76,5.06-4.44,6.94c0.12,0.71,0.65,1.35,1.6,1.92
				c1.19,0.72,2.29,1,3.31,0.84c0.53-0.09,0.83-0.3,0.91-0.63c0.07-0.27,0-1.03-0.21-2.28c-0.16-1-0.51-2.99-1.04-5.97
				C25.36,88.45,25.32,88.17,25.27,87.9z M46.65,51.09c1.74-0.24,4.39,0.43,7.93,2.03c1.81,0.81,3.37,1.68,4.67,2.63
				c1.06,0.76,1.66,1.71,1.8,2.84c0.14,1.13-0.22,2.16-1.08,3.08c-0.68,0.75-1.54,1.19-2.56,1.32c-1.18,0.15-2.4-0.3-3.65-1.37
				c-1.91-1.62-4.54-3.36-7.92-5.2c-1.07-0.6-1.67-1.37-1.81-2.31c-0.08-0.54,0.02-1.06,0.29-1.55
				C44.81,51.73,45.59,51.23,46.65,51.09z"/>
			<path class="st12" d="M91.67,63.96c-2.94,0.56-5.88,1.13-8.81,1.72c1.07,9.86,2.13,19.71,3.2,29.57
				c0.09,0.82-0.14,1.53-0.67,2.12c-0.65,0.75-1.57,1.19-2.78,1.33c-1.35,0.15-2.44-0.11-3.27-0.78c-0.57-0.47-0.9-1.07-0.98-1.8
				c-1.9-16.45-3.79-32.9-5.69-49.34c-0.14-1.18,0.36-2.12,1.5-2.82c0.67-0.4,1.42-0.64,2.25-0.73c1.64-0.18,2.88,0.21,3.71,1.19
				c3.75-0.77,7.5-1.52,11.25-2.25c0.26-0.05,0.62-0.09,1.06-0.14c3.25-0.32,5.02,1.17,5.33,4.43c0,0.04,0.01,0.15,0.03,0.32
				c0.29,5.18,0.59,10.36,0.89,15.54c0.05,1.91-1.07,2.97-3.36,3.19C93.54,65.65,92.32,65.15,91.67,63.96z M90.53,50.93
				c-0.04-0.55-0.09-1.1-0.13-1.65c-0.06-1.08-0.5-1.58-1.32-1.49c-0.16,0.02-0.27,0.03-0.33,0.03c-2.55,0.49-5.11,0.99-7.66,1.5
				c0.12,1.11,0.24,2.23,0.36,3.34C84.48,52.08,87.5,51.5,90.53,50.93z M90.89,55.49c-2.98,0.57-5.97,1.14-8.94,1.73
				c0.13,1.17,0.25,2.33,0.38,3.5c2.94-0.57,5.88-1.14,8.82-1.69C91.06,57.85,90.98,56.67,90.89,55.49z M114.97,79.54
				c0.88,0.46,1.37,1.27,1.46,2.43c0.15,1.86-0.75,2.91-2.69,3.18c-4.83,0.68-9.66,1.4-14.48,2.15c-0.19,1.42-1.28,2.23-3.29,2.42
				c-2.32,0.23-3.66-0.62-4.01-2.56c-0.94-5.06-1.88-10.12-2.83-15.18c-0.04-0.19-0.07-0.31-0.07-0.38
				c-0.13-1.26,0.55-2.2,2.05-2.79c0.59-0.23,1.19-0.38,1.8-0.44c1.43-0.14,2.49,0.26,3.18,1.22c4.23-0.76,8.47-1.5,12.71-2.21
				c0.24-0.04,0.53-0.08,0.88-0.11c3.63-0.31,5.57,1.04,5.8,4.01c0.03,0.36,0.02,0.78-0.03,1.28
				C115.29,74.88,115.12,77.21,114.97,79.54z M107.84,80.13c0.02-1.7,0.05-3.4,0.08-5.1c0-0.23,0-0.36,0-0.38
				c-0.02-0.74-0.42-1.05-1.19-0.92c-0.06,0.02-0.13,0.03-0.19,0.05c-3.06,0.51-6.12,1.04-9.17,1.58c0.35,2.09,0.71,4.18,1.06,6.28
				C101.56,81.12,104.7,80.62,107.84,80.13z M121.82,60.19c-3.42,0.44-6.84,0.9-10.25,1.37c-0.4,1.35-1.54,2.1-3.44,2.26
				c-1.57,0.13-2.7-0.23-3.39-1.11c-0.3-0.36-0.47-0.81-0.52-1.36c-0.56-6.28-1.12-12.56-1.68-18.84c-0.1-1.1,0.38-1.93,1.43-2.52
				c0.64-0.37,1.35-0.6,2.13-0.66c1.43-0.12,2.54,0.21,3.35,0.99c4.13-0.7,8.27-1.38,12.42-2.04c0.33-0.04,0.76-0.09,1.27-0.12
				c2.07-0.15,3.54,0.27,4.39,1.26c0.66,0.78,1.04,2.01,1.15,3.68c1.02,15.41,2.05,30.82,3.07,46.24c0.25,3.74-1.2,5.71-4.33,5.93
				c-2.37,0.17-5.48-0.35-9.33-1.53c-0.92-0.27-1.62-0.52-2.11-0.75c-1.09-0.51-1.67-1.23-1.75-2.18c-0.13-1.54,0.53-2.37,1.99-2.49
				c0.41-0.03,0.92,0.01,1.56,0.13c1.85,0.32,3.36,0.44,4.53,0.35c1.09-0.08,1.58-0.77,1.49-2.08
				C123.12,77.88,122.47,69.04,121.82,60.19z M120.87,47.25c-0.04-0.61-0.09-1.22-0.13-1.84c-0.07-0.99-0.58-1.45-1.51-1.38
				c-0.16,0.01-0.28,0.02-0.37,0.03c-2.82,0.46-5.64,0.92-8.46,1.4c0.09,1.1,0.18,2.19,0.27,3.29
				C114.07,48.23,117.47,47.73,120.87,47.25z M121.2,51.81c-3.39,0.46-6.78,0.94-10.16,1.43c0.09,1.15,0.19,2.3,0.28,3.45
				c3.37-0.48,6.75-0.94,10.13-1.39C121.38,54.13,121.29,52.97,121.2,51.81z"/>
			<path class="st12" d="M146.99,46.68c1.86-0.09,3.15,0.53,3.88,1.88c0.31,0.54,0.5,1.41,0.55,2.61
				c0.44,8.43,1.76,15.02,3.92,19.77c0.82,1.81,1.8,3.52,2.95,5.15c0.25,0.37,0.51,0.55,0.77,0.54c0.26-0.01,0.57-0.4,0.92-1.18
				c1.13-2.48,1.98-4.2,2.53-5.15c0.61-1.02,1.47-1.55,2.58-1.59c0.54-0.02,1.07,0.09,1.58,0.33c1.1,0.53,1.67,1.34,1.71,2.42
				c0.02,0.61-0.17,1.46-0.57,2.53c-1.31,3.62-2.34,6.66-3.11,9.13c-0.79,2.55-2.27,3.86-4.44,3.95c-2.97,0.12-6.05-2.36-9.31-7.43
				c-4.56-7.09-7.23-16.52-7.87-28.36c-0.1-1.75,0.43-3.02,1.59-3.8C145.35,46.98,146.13,46.72,146.99,46.68z M181.17,45.96
				c1.26-0.03,2.53,0.57,3.79,1.8c2.14,2.08,4.25,4.64,6.33,7.68c3.8,5.5,5.67,9.48,5.69,11.91c0.01,1.61-0.7,2.79-2.12,3.54
				c-0.82,0.45-1.65,0.68-2.49,0.69c-1.32,0.02-2.39-0.47-3.2-1.45c-0.33-0.4-0.73-1.29-1.21-2.68c-1.75-4.99-4.77-10.33-9.14-15.98
				c-0.61-0.81-0.93-1.6-0.95-2.36c-0.02-0.72,0.24-1.38,0.78-1.99C179.33,46.37,180.17,45.98,181.17,45.96z"/>
			<path class="st12" d="M249.26,57.2c0.09,0.43,0.13,0.82,0.12,1.18c-0.08,2.09-1.13,3.19-3.15,3.28c-6.5,0.3-13,0.66-19.49,1.08
				c-0.15,0.02-0.3,0.03-0.43,0.02c-0.98-0.02-1.74-0.39-2.27-1.12c-0.43-0.58-0.63-1.31-0.62-2.2c0.01-0.51,0.09-1.02,0.26-1.55
				c-3.88,2.96-7.46,5.3-10.76,7.02c-1.62,0.84-2.83,1.25-3.66,1.25c-0.85,0-1.53-0.32-2.05-0.96c-0.48-0.57-0.72-1.17-0.72-1.81
				c0-0.76,0.33-1.41,0.98-1.93c0.22-0.19,1.11-0.79,2.69-1.8c4.15-2.65,8.49-6.33,13.07-11.04c3.75-3.86,6.99-7.81,9.7-11.87
				c1.09-1.65,2.42-2.45,3.98-2.41c0.81,0.02,1.57,0.23,2.3,0.64c1.25,0.71,1.86,1.77,1.81,3.17c-0.01,0.3-0.05,0.61-0.13,0.95
				c2.26,2.7,5.48,5.84,9.63,9.45c5.67,4.93,10.83,8.76,15.56,11.49c1.77,1.03,2.62,1.89,2.59,2.59c-0.03,0.49-0.53,0.85-1.5,1.09
				c-3.44,0.89-5.9,1.31-7.4,1.24c-0.91-0.04-1.77-0.34-2.58-0.88C255.36,62.87,252.73,60.57,249.26,57.2z M253.4,83.22
				c1.13,0.58,1.66,1.74,1.58,3.47c-0.06,1.29-0.58,2.19-1.56,2.7c-0.42,0.24-0.88,0.35-1.39,0.35c-8.11,0.05-16.21,0.19-24.31,0.41
				c-0.44,1.62-1.81,2.41-4.13,2.37c-2.29-0.04-3.55-1.09-3.78-3.17c-0.7-6.29-1.42-12.59-2.16-18.88c0-0.11,0-0.22,0-0.35
				c0.12-1.4,0.91-2.33,2.38-2.8c0.61-0.2,1.26-0.3,1.96-0.29c1.69,0.03,2.88,0.52,3.56,1.49c7.83-0.49,15.68-0.9,23.54-1.23
				c0.35-0.01,0.77,0,1.27,0.02c3.85,0.16,5.7,1.84,5.55,5.03c-0.03,0.7-0.14,1.42-0.33,2.18C254.86,77.42,254.13,80.32,253.4,83.22
				z M246.88,54.82c-3.67-3.8-6.8-7.24-9.37-10.34c-2.9,3.64-6.7,7.46-11.39,11.48c6.64-0.46,13.28-0.86,19.94-1.21
				c0.04,0,0.15,0.01,0.33,0.01C246.43,54.77,246.59,54.79,246.88,54.82z M245.52,83.07c0.43-2.46,0.87-4.92,1.3-7.38
				c0.02-0.1,0.04-0.22,0.04-0.35c0.03-0.74-0.34-1.12-1.09-1.15c-0.02,0-0.12,0-0.29-0.01c-6.31,0.25-12.62,0.55-18.92,0.91
				c0.25,2.82,0.49,5.64,0.74,8.46C233.38,83.33,239.45,83.18,245.52,83.07z"/>
			<path class="st12" d="M289.18,51.52c0.53-4.52,0.99-7.65,1.36-9.38c0.47-2.13,1.83-3.11,4.08-2.94c2.7,0.21,3.94,1.63,3.73,4.24
				c-0.01,0.15-0.04,0.41-0.1,0.79c-0.31,1.93-0.57,3.83-0.76,5.7c0.72,0.16,1.31,0.44,1.77,0.81c0.93,0.8,1.35,1.8,1.25,3
				c-0.07,0.8-0.45,1.59-1.16,2.36c-0.46,0.51-1.15,1.35-2.06,2.51c-0.34,0.42-0.71,0.87-1.1,1.34c-0.03,0.25-0.06,0.5-0.09,0.76
				c-0.05,0.39-0.11,0.78-0.16,1.17c-0.05,0.39-0.11,0.78-0.16,1.16c-0.02,0.15-0.05,0.29-0.07,0.44c8.05-4.83,15.34-6.91,21.7-6.28
				c4.61,0.45,8.29,1.99,11.02,4.59c3.21,3.03,4.52,7.04,3.95,12c-0.55,4.88-2.63,8.83-6.19,11.89c-3.18,2.7-7.2,4.41-12.09,5.16
				c-1.09,0.17-1.92,0.23-2.5,0.17c-2-0.19-2.91-1.24-2.73-3.16c0.11-1.16,1.1-1.99,2.99-2.49c2.5-0.67,4.58-1.56,6.24-2.67
				c3.62-2.4,5.66-5.56,6.08-9.52c0.23-2.19-0.22-4.09-1.38-5.7c-1.5-2.07-3.76-3.26-6.77-3.56c-5.36-0.52-12.49,1.86-21.19,7.26
				c-0.05,0.44-0.09,0.88-0.14,1.33c-1.05,10.19-1.6,15.72-1.64,16.59c-0.03,0.59-0.04,0.92-0.05,0.98
				c-0.25,3.08-1.62,4.52-4.12,4.33c-1.46-0.11-2.48-0.66-3.05-1.66c-0.4-0.69-0.54-1.86-0.42-3.53c0.43-5.87,0.74-9.9,0.94-12.09
				c-2.06,1.55-3.73,2.88-5.02,4c-1.37,1.18-2.56,1.74-3.57,1.67c-0.92-0.06-1.76-0.54-2.53-1.43c-0.76-0.92-1.11-1.86-1.05-2.83
				c0.07-1.06,0.64-2,1.73-2.82c1.41-1.08,2.73-2.31,3.95-3.69c1.74-1.94,4.39-5.34,8.02-10.16c0.15-1.16,0.27-2.24,0.37-3.25
				c-4.34,1.3-7.2,1.91-8.6,1.82c-1.49-0.1-2.47-0.85-2.95-2.26c-0.2-0.63-0.28-1.25-0.25-1.86c0.11-1.73,1.42-2.8,3.94-3.18
				C282.77,52.76,285.69,52.22,289.18,51.52z"/>
			<path class="st12" d="M380.8,64.21c0.37-1.98,0.67-3.67,0.89-5.1c0.31-2.05,0.61-4.1,0.92-6.15c0.34-2.22,1.89-3.11,4.63-2.68
				c1.75,0.28,2.86,0.98,3.33,2.11c0.23,0.55,0.23,1.55-0.01,2.99c-0.3,1.82-0.86,4.77-1.68,8.86c0.22,0,0.45,0.01,0.67,0.01
				c1.64,0.03,3.29,0.07,4.93,0.11c2.69,0.06,4.16,0.12,4.42,0.17c1.42,0.24,2.33,1.01,2.74,2.31c0.22,0.68,0.26,1.4,0.13,2.15
				c-0.34,1.96-1.73,2.89-4.14,2.79c-1.11-0.04-3.39-0.09-6.85-0.12c-1.02-0.02-2.17-0.04-3.44-0.05
				c-1.22,5.31-2.32,9.07-3.31,11.26c-0.65,1.46-1.62,2.59-2.89,3.4c-1.24,0.79-2.48,1.09-3.7,0.9c-1.07-0.17-1.98-0.84-2.75-2.03
				c-1.28-1.99-2.52-3.59-3.73-4.8c-0.69-0.68-0.98-1.39-0.88-2.12c0.06-0.4,0.24-0.78,0.53-1.14c0.51-0.63,1.22-0.88,2.13-0.74
				c0.5,0.07,0.98,0.27,1.44,0.57c0.36,0.23,1.38,0.94,3.05,2.14c0.57-1.39,1.26-3.89,2.09-7.51c-0.49,0.01-0.98,0.02-1.47,0.03
				c-1.48,0.01-2.96,0.02-4.43,0.03c-1.51,0.01-3.02,0.02-4.53,0.04c-1.51,0.02-3.02,0.03-4.53,0.06c-0.42,0-0.84,0.01-1.26,0.01
				c-0.48,4.83-0.93,8.78-1.34,11.86c-0.29,2.22-0.07,3.9,0.67,5.03c0.89,1.39,3.1,2.33,6.61,2.85c6.1,0.91,10.76,1.5,14,1.72
				c0.39,0.02,0.7,0.05,0.94,0.09c2.34,0.38,3.31,1.82,2.89,4.3c-0.31,1.9-1.44,2.92-3.38,3.08c-1.21,0.11-6.01-0.54-14.42-1.8
				c-4.3-0.64-7.41-1.43-9.33-2.38c-3.4-1.65-5.38-4.2-5.94-7.67c-0.24-1.44-0.22-3.32,0.07-5.63c0.36-2.85,0.73-6.61,1.11-11.25
				c-2.04,0.05-5.23,0.16-9.57,0.36c-0.57,0.01-1.03,0-1.38-0.04c-1.47-0.18-2.47-0.9-3-2.16c-0.28-0.63-0.37-1.29-0.29-1.98
				c0.25-2.1,1.75-3.19,4.51-3.25c0.33,0,1.89-0.07,4.68-0.18c0.96-0.03,2.84-0.07,5.64-0.13c0.02-0.25,0.04-0.51,0.07-0.76
				c0.34-4.72,0.52-7.56,0.56-8.54c0.01-0.27,0.03-0.5,0.05-0.66c0.17-1.3,0.97-2.18,2.4-2.63c0.73-0.22,1.51-0.28,2.35-0.16
				c2.36,0.32,3.53,1.49,3.49,3.49c-0.03,1.34-0.26,4.37-0.7,9.07c0.43-0.01,0.85-0.03,1.28-0.04c1.62-0.02,3.23-0.03,4.85-0.04
				c1.61-0.02,3.22-0.04,4.83-0.06c1.59,0,3.17,0.01,4.76,0.02C379.97,64.21,380.39,64.21,380.8,64.21z"/>
		</g>
	</g>
</g>
<g id="レイヤー_6">
	<path class="st13" d="M369.71,120.43c-3.74,7.54-10.26,5.32-17.79,1.58c-7.54-3.74-13.24-7.59-9.5-15.13
		c3.74-7.54,12.88-10.61,20.42-6.87C370.37,103.76,373.45,112.9,369.71,120.43z"/>
	
		<radialGradient id="SVGID_1_" cx="342.6516" cy="81.4402" r="10.1994" gradientTransform="matrix(0.9975 0.4951 -0.549 1.106 64.5276 -157.9113)" gradientUnits="userSpaceOnUse">
		<stop  offset="0.4514" style="stop-color:#FFF5CE;stop-opacity:0.5"/>
		<stop  offset="1" style="stop-color:#FCFDFD;stop-opacity:0"/>
	</radialGradient>
	<path class="st14" d="M348.35,102.63c1.88-3.78,8.58-5.15,14.55-2.18s8.93,9.12,7.06,12.91s-8.23,4.45-14.2,1.49
		S346.48,106.41,348.35,102.63z"/>
	<path class="st15" d="M368.27,110.99c-0.13-0.19-0.28-0.36-0.45-0.5c1.36-1.06,1.62-3.12,0.55-4.72c-1.11-1.66-3.25-2.17-4.76-1.15
		c-1.51,1.02-1.84,3.19-0.72,4.84c0.49,0.72,1.16,1.23,1.9,1.48c-0.37,0.67-0.34,1.56,0.15,2.29c0.68,1.01,1.97,1.32,2.89,0.7
		C368.76,113.31,368.95,111.99,368.27,110.99z"/>
	<g>
		<path class="st13" d="M395.91,111.08c-0.32,4.24-3.79,4.44-8.03,4.11c-4.24-0.32-7.64-1.05-7.31-5.29
			c0.32-4.24,4.02-7.41,8.26-7.09C393.06,103.14,396.23,106.84,395.91,111.08z"/>
		
			<radialGradient id="SVGID_2_" cx="362.1763" cy="76.3431" r="5.1532" gradientTransform="matrix(1.1104 0.0848 -0.0941 1.2312 -6.3819 -20.8273)" gradientUnits="userSpaceOnUse">
			<stop  offset="0.4514" style="stop-color:#FFF5CE;stop-opacity:0.5"/>
			<stop  offset="1" style="stop-color:#FCFDFD;stop-opacity:0"/>
		</radialGradient>
		<path class="st16" d="M382.53,106.79c0.16-2.13,3.04-4.04,6.4-3.78s5.91,2.58,5.75,4.71c-0.16,2.13-3.01,3.64-6.37,3.39
			S382.37,108.91,382.53,106.79z"/>
		<path class="st15" d="M393.44,106.92c-0.1-0.07-0.2-0.12-0.31-0.15c0.44-0.76,0.17-1.77-0.63-2.31c-0.84-0.56-1.93-0.4-2.45,0.36
			c-0.52,0.76-0.26,1.84,0.58,2.4c0.36,0.25,0.78,0.35,1.17,0.33c-0.04,0.38,0.14,0.79,0.51,1.04c0.51,0.34,1.17,0.24,1.49-0.22
			C394.11,107.92,393.95,107.27,393.44,106.92z"/>
	</g>
</g>
</svg>
