<?xml version="1.0" encoding="utf-8"?>
<!-- Generator: Adobe Illustrator 25.1.0, SVG Export Plug-In . SVG Version: 6.00 Build 0)  -->
<svg version="1.1" xmlns="http://www.w3.org/2000/svg" xmlns:xlink="http://www.w3.org/1999/xlink" x="0px" y="0px"
	 viewBox="0 0 406.55 127.76" style="enable-background:new 0 0 406.55 127.76;" xml:space="preserve">
<style type="text/css">
	.st0{display:none;}
	.st1{display:inline;fill:none;stroke:#2EA7E0;stroke-width:3;stroke-linecap:round;}
	.st2{fill:#FBE2DC;stroke:#727171;stroke-width:2;}
	.st3{fill:#FCFCE5;stroke:#727171;stroke-width:2;}
	.st4{fill:#D5EAD1;stroke:#727171;stroke-width:2;}
	.st5{fill:#C2E3DB;stroke:#727171;stroke-width:2;}
	.st6{fill:none;stroke:#727171;stroke-width:2;}
	.st7{display:inline;fill:#6BBF8E;}
	.st8{display:inline;fill:#F9D4E3;}
	.st9{fill:#EFD376;}
	.st10{fill:none;stroke:#F5CE1E;stroke-width:8;}
	.st11{fill:none;stroke:#E47A21;stroke-width:3;}
	.st12{fill:#FFFFFF;}
	.st13{fill:#FEF8EE;stroke:#FBDAB7;stroke-width:3;stroke-miterlimit:10;}
	.st14{fill:url(#SVGID_1_);}
	.st15{fill:#FFFEF8;}
	.st16{fill:url(#SVGID_2_);}
</style>
<g id="レイヤー_3" class="st0">
	<path class="st1" d="M31,82.36c0,0,0-13.61,92.15-13.61c35.93,0,97.28,6.13,125.13,8.43c21.2,1.75,84.88-9.21,110.47-8.43
		c39.48,1.21,38.22,13.61,38.22,13.61"/>
</g>
<g id="レイヤー_4" class="st0">
	<path class="st1" d="M40.95,1.97h338.99c9.79,0,17.72,7.94,17.72,17.72v49.13c0,9.79-7.94,17.72-17.72,17.72H40.95
		c-9.79,0-17.72-7.94-17.72-17.72V19.7C23.23,9.91,31.16,1.97,40.95,1.97z"/>
</g>
<g id="レイヤー_8">
</g>
<g id="レイヤー_7">
	<g>
		<path class="st2" d="M41.96,55.3c0,0-9.14,0.87-20.33,0.14s-16.93-2.4-16.93-2.4L20.4,85.77L41.96,55.3z"/>
		<path class="st3" d="M82.26,46.93c0,0-8.53,3.38-19.49,5.8c-10.95,2.41-16.93,2.41-16.93,2.41L70.03,82.2L82.26,46.93z"/>
		<path class="st4" d="M120.09,30.51c0,0-7.66,5.06-17.88,9.68s-16.07,5.84-16.07,5.84l29.24,21.52L120.09,30.51z"/>
		<path class="st5" d="M148.38,6.96c0,0-6.03,6.92-14.65,14.1c-8.62,7.17-13.93,9.91-13.93,9.91l33.92,12.94L148.38,6.96z"/>
		<path class="st6" d="M0,51.41c0,0,39.2,10.69,88.93-7.51S151.08,0,151.08,0"/>
	</g>
	<g>
		<path class="st2" d="M360.72,55.3c0,0,9.14,0.87,20.33,0.14c11.19-0.73,16.93-2.4,16.93-2.4l-15.69,32.73L360.72,55.3z"/>
		<path class="st3" d="M320.43,46.93c0,0,8.53,3.38,19.49,5.8c10.95,2.41,16.93,2.41,16.93,2.41L332.65,82.2L320.43,46.93z"/>
		<path class="st4" d="M282.6,30.51c0,0,7.66,5.06,17.88,9.68c10.22,4.61,16.07,5.84,16.07,5.84l-29.24,21.52L282.6,30.51z"/>
		<path class="st5" d="M254.3,6.96c0,0,6.03,6.92,14.65,14.1c8.62,7.17,13.93,9.91,13.93,9.91L248.97,43.9L254.3,6.96z"/>
		<path class="st6" d="M402.69,51.41c0,0-39.2,10.69-88.93-7.51S251.61,0,251.61,0"/>
	</g>
</g>
<g id="レイヤー_2" class="st0">
	<path class="st7" d="M238.93,79.85c0,0,33.69-31.54,32.9-12.27c-0.21,5.18-8.16,11.78-11.67,13.81
		C250.63,86.91,238.93,79.85,238.93,79.85z"/>
	<path class="st8" d="M210.44,6.1c-9.73,0-44.39,23.1-44.39,47.62c0,21.84,26.29,33.57,40.02,34.35c4.37,0.58,1.12-2.15,2.56-1.79
		c0,0,1.17,2,5.13,2c17.25,0,41.07-11.84,41.07-34.56C254.84,29.2,220.18,6.1,210.44,6.1z"/>
</g>
<g id="レイヤー_1">
	<g>
		<g>
			<path class="st9" d="M26.77,62.15c-0.96-2.53-1.92-5.05-2.88-7.58c-0.16-0.45-0.27-0.87-0.34-1.26c-0.23-1.46,0.2-2.59,1.3-3.39
				c0.65-0.49,1.44-0.8,2.37-0.95c2.28-0.35,3.82,0.56,4.62,2.73c0.96,2.55,1.92,5.1,2.87,7.66c5.25-1.9,8.95-3.23,11.05-4.03
				c0.55-0.23,1.07-0.37,1.55-0.44c1.61-0.22,2.84,0.24,3.68,1.39c0.41,0.56,0.66,1.19,0.76,1.88c0.24,1.82-0.7,3.16-2.84,4
				c-1.52,0.59-5.05,1.83-10.55,3.78c-0.37,0.13-0.74,0.26-1.11,0.39c1.07,2.87,2.14,5.74,3.2,8.61c2.69-0.95,8.25-2.95,16.75-5.88
				c0.61-0.21,1.12-0.34,1.51-0.39c1.65-0.21,2.88,0.32,3.68,1.58c0.33,0.53,0.54,1.14,0.62,1.81c0.2,1.57-0.48,2.78-2.01,3.61
				c-0.33,0.17-1.05,0.44-2.16,0.82c-2.94,0.98-7.73,2.62-14.32,5c-0.49,0.18-0.98,0.35-1.47,0.53c1.83,5.08,3.65,10.16,5.45,15.25
				c0.14,0.37,0.24,0.78,0.31,1.24c0.22,1.57-0.23,2.76-1.37,3.56c-0.62,0.45-1.39,0.75-2.29,0.88c-2.11,0.31-3.58-0.68-4.42-2.97
				c-1.81-5.03-3.64-10.07-5.48-15.09c-0.42,0.16-0.85,0.32-1.27,0.48c-3.53,1.32-7.06,2.67-10.58,4.03
				c-4.45,1.72-6.88,2.63-7.31,2.7c-1.56,0.27-2.76-0.22-3.61-1.47c-0.36-0.54-0.6-1.17-0.73-1.9c-0.28-1.6,0.41-2.85,2.06-3.74
				c0.25-0.12,3.88-1.57,10.95-4.24c2.13-0.81,4.27-1.6,6.41-2.4c0.48-0.18,0.96-0.36,1.44-0.54c-1.05-2.89-2.11-5.78-3.17-8.66
				c-0.32,0.11-0.63,0.23-0.95,0.34c-7.65,2.64-11.92,4.09-12.87,4.25c-2.43,0.41-3.86-0.65-4.29-3.2
				c-0.36-2.06,0.89-3.55,3.75-4.44C18.45,65.02,22.35,63.7,26.77,62.15z"/>
			<path class="st9" d="M93.82,65.27c-0.06-0.17-0.12-0.35-0.18-0.52c-0.39-1.11-0.79-2.22-1.18-3.33c-1.03-2.83-1.56-4.43-1.6-4.79
				c-0.11-1.12,0.29-2,1.2-2.64c0.71-0.49,1.5-0.78,2.38-0.87c1.85-0.18,3.11,0.74,3.78,2.74c0.13,0.41,0.34,1.05,0.64,1.92
				c0.53,1.4,1.09,2.96,1.69,4.69c0.07,0.2,0.15,0.39,0.22,0.59c0.4-0.12,0.79-0.24,1.19-0.36c7.8-2.52,12.77-4.06,14.83-4.73
				c0.69-0.22,1.3-0.35,1.82-0.39c1.21-0.09,2.26,0.14,3.16,0.69c1.22,0.76,1.88,1.88,1.99,3.36c0.17,2.41-1.38,5.97-4.6,10.71
				c-2.33,3.42-4.2,5.19-5.64,5.31c-0.69,0.06-1.3-0.15-1.84-0.61c-0.56-0.51-0.87-1.06-0.92-1.68c-0.05-0.61,0.25-1.4,0.91-2.37
				c1.48-2.16,2.59-4.31,3.35-6.44c0.16-0.44,0.24-0.74,0.22-0.91c-0.02-0.23-0.16-0.34-0.42-0.32c-0.35,0.03-3.99,1.14-10.88,3.42
				c-0.36,0.12-0.72,0.23-1.08,0.35c0.18,0.5,0.35,1.01,0.53,1.51c4.03,11.47,6.17,17.75,6.57,18.8c0.22,0.55,0.35,1.04,0.38,1.47
				c0.12,1.41-0.43,2.47-1.66,3.17c-0.53,0.32-1.16,0.52-1.9,0.58c-1.46,0.13-2.54-0.51-3.25-1.91c-0.08-0.18-1.52-4.35-4.38-12.47
				c-0.84-2.39-1.69-4.77-2.54-7.16c-0.19-0.56-0.39-1.11-0.59-1.67c-1.06,0.36-2.34,0.81-3.83,1.36c-4.3,1.53-6.76,2.35-7.38,2.42
				c-0.99,0.11-1.79-0.11-2.39-0.64c-0.68-0.59-1.07-1.39-1.18-2.43c-0.2-1.79,0.88-3.06,3.24-3.8
				C87.3,67.46,90.41,66.43,93.82,65.27z"/>
			<path class="st9" d="M186.43,53.3c2.51-0.04,4.32,0.79,5.43,2.48c0.62,0.97,0.94,2.11,0.95,3.42c0.02,1.9-0.63,4.37-1.93,7.41
				c-2.84,6.72-7.58,12.54-14.16,17.54c-3.49,2.64-7.13,4.73-10.93,6.28c-0.94,0.39-1.76,0.6-2.44,0.62
				c-0.94,0.03-1.67-0.32-2.21-1.06c-0.45-0.6-0.69-1.24-0.71-1.94c-0.04-0.95,0.38-1.77,1.25-2.46c0.19-0.13,1.11-0.67,2.77-1.59
				c4.14-2.3,8.05-5.47,11.75-9.52c3.07-3.37,5.35-6.8,6.81-10.3c0.5-1.17,0.75-1.99,0.74-2.46c-0.01-0.51-0.41-0.76-1.19-0.74
				c-0.35,0.01-4.28,0.29-11.77,0.97c-4.66,0.45-9.32,0.93-13.97,1.43c-5.32,0.6-8.07,0.93-8.24,0.94
				c-1.33,0.06-2.37-0.36-3.14-1.27c-0.47-0.59-0.72-1.32-0.77-2.19c-0.12-2.26,0.93-3.6,3.16-4c1.4-0.23,11.97-1.51,31.84-3.06
				c1.58-0.12,2.8-0.21,3.66-0.29C185.06,53.37,186.1,53.3,186.43,53.3z M180.91,38.82c1.16-0.02,2.08,0.4,2.76,1.25
				c0.52,0.67,0.79,1.46,0.8,2.37c0.03,2.14-1,3.38-3.1,3.74c-1.65,0.26-4.09,0.57-7.31,0.92c-0.86,0.09-4.47,0.37-10.82,0.93
				c-3.88,0.35-6.48,0.56-7.81,0.61c-2.78,0.12-4.23-1.06-4.34-3.53c-0.09-1.88,0.68-3.09,2.31-3.63c0.42-0.12,1.38-0.23,2.89-0.31
				c6.13-0.33,13.29-1.01,21.51-1.97c0.29-0.05,1-0.15,2.13-0.3C180.37,38.85,180.69,38.82,180.91,38.82z"/>
			<path class="st9" d="M240.19,41.66c4.01-0.01,8.03-0.01,12.05,0.02c4.43,0.03,6.56,1.85,6.38,5.45
				c-0.11,2.18-1.17,5.39-3.15,9.63c-5.33,11.44-13.69,20.62-24.95,27.73c-5.33,3.36-8.93,5.04-10.89,5.01
				c-1.04-0.02-1.86-0.47-2.44-1.37c-0.38-0.6-0.56-1.17-0.55-1.72c0.01-0.87,0.5-1.66,1.48-2.39c0.28-0.21,1.13-0.7,2.56-1.48
				c4.84-2.65,9.57-6.19,14.2-10.63c5.79-5.59,10.09-11.74,12.83-18.51c0.88-2.17,1.33-3.48,1.35-3.95c0.02-0.51-0.3-0.75-0.96-0.74
				c-0.06,0-0.11,0-0.17-0.01c-3.81,0.05-7.61,0.11-11.41,0.2c-4.29,5.23-9.21,9.63-14.77,13.24c-1.19,0.76-2.25,1.14-3.19,1.12
				c-0.83-0.01-1.49-0.32-1.98-0.92c-0.45-0.58-0.67-1.17-0.66-1.79c0.01-0.85,0.38-1.64,1.11-2.37c0.24-0.25,0.89-0.8,1.93-1.65
				c3.31-2.72,6.54-6.34,9.73-10.86c1.19-1.69,2.17-3.26,2.94-4.72c0.93-1.77,2.34-2.64,4.21-2.58c0.76,0.02,1.46,0.18,2.09,0.48
				C239.16,39.44,239.92,40.38,240.19,41.66z"/>
			<path class="st9" d="M308.12,45.57c4.21,0.24,8.43,0.51,12.64,0.8c0.18,0.01,0.36,0.02,0.53,0.02c4.1,0.43,5.96,2.32,5.6,5.65
				c-0.11,1.01-0.53,2.38-1.25,4.11c-5.97,14.21-15.93,24.9-29.71,32.4c-5.4,2.93-9.01,4.36-10.88,4.22
				c-0.98-0.07-1.71-0.55-2.2-1.44c-0.34-0.62-0.49-1.19-0.45-1.72c0.06-0.84,0.52-1.58,1.39-2.22c0.29-0.21,1.1-0.65,2.42-1.31
				c6.57-3.32,12.43-7.3,17.59-11.99c-2.82-3.4-5.45-6.2-7.85-8.4c-1.12-1.01-1.65-1.95-1.57-2.84c0.05-0.55,0.27-1.05,0.69-1.5
				c0.68-0.73,1.52-1.05,2.52-0.97c0.83,0.07,1.83,0.42,2.98,1.05c3.34,1.8,6.31,3.96,8.9,6.46c3.12-3.99,5.51-7.93,7.13-11.83
				c0.47-1.12,0.72-1.82,0.75-2.09c0.05-0.46-0.28-0.73-0.99-0.8c-0.07-0.01-0.13-0.01-0.2-0.02c-4.1-0.21-8.21-0.4-12.31-0.57
				c-5.1,5.43-10.13,9.5-15.11,12.21c-1.6,0.87-2.9,1.27-3.9,1.2c-0.91-0.07-1.58-0.47-2.01-1.2c-0.29-0.49-0.42-1.01-0.38-1.55
				c0.05-0.74,0.42-1.47,1.11-2.18c0.24-0.24,0.96-0.81,2.17-1.72c4.03-3.05,7.8-6.84,11.32-11.36c0.95-1.24,1.8-2.44,2.55-3.61
				c1.08-1.71,2.56-2.49,4.43-2.32c1.33,0.12,2.41,0.65,3.21,1.6C307.69,44.17,307.99,44.81,308.12,45.57z"/>
			<path class="st9" d="M391.34,72.72c1.37,0.23,2.37,0.83,3.01,1.77c0.55,0.78,0.73,1.74,0.54,2.86c-0.37,2.11-1.61,3.18-3.72,3.22
				c-0.56,0.05-7.89-0.91-21.99-2.46c-6.49-0.7-13.36-1.36-20.62-1.93c-0.26-0.01-0.51-0.04-0.75-0.07
				c-1.21-0.16-2.18-0.64-2.91-1.44c-0.75-0.84-1.05-1.86-0.89-3.06c0.22-1.72,1.16-2.81,2.83-3.25c0.68-0.17,2.25-0.13,4.7,0.11
				c2.16,0.23,7.64,0.71,16.43,1.59c3.74,0.37,8.86,0.91,15.35,1.69c2.18,0.27,3.91,0.47,5.18,0.6
				C390.09,72.55,391.04,72.66,391.34,72.72z"/>
		</g>
		<g>
			<path class="st10" d="M26.77,62.15c-0.96-2.53-1.92-5.05-2.88-7.58c-0.16-0.45-0.27-0.87-0.34-1.26c-0.23-1.46,0.2-2.59,1.3-3.39
				c0.65-0.49,1.44-0.8,2.37-0.95c2.28-0.35,3.82,0.56,4.62,2.73c0.96,2.55,1.92,5.1,2.87,7.66c5.25-1.9,8.95-3.23,11.05-4.03
				c0.55-0.23,1.07-0.37,1.55-0.44c1.61-0.22,2.84,0.24,3.68,1.39c0.41,0.56,0.66,1.19,0.76,1.88c0.24,1.82-0.7,3.16-2.84,4
				c-1.52,0.59-5.05,1.83-10.55,3.78c-0.37,0.13-0.74,0.26-1.11,0.39c1.07,2.87,2.14,5.74,3.2,8.61c2.69-0.95,8.25-2.95,16.75-5.88
				c0.61-0.21,1.12-0.34,1.51-0.39c1.65-0.21,2.88,0.32,3.68,1.58c0.33,0.53,0.54,1.14,0.62,1.81c0.2,1.57-0.48,2.78-2.01,3.61
				c-0.33,0.17-1.05,0.44-2.16,0.82c-2.94,0.98-7.73,2.62-14.32,5c-0.49,0.18-0.98,0.35-1.47,0.53c1.83,5.08,3.65,10.16,5.45,15.25
				c0.14,0.37,0.24,0.78,0.31,1.24c0.22,1.57-0.23,2.76-1.37,3.56c-0.62,0.45-1.39,0.75-2.29,0.88c-2.11,0.31-3.58-0.68-4.42-2.97
				c-1.81-5.03-3.64-10.07-5.48-15.09c-0.42,0.16-0.85,0.32-1.27,0.48c-3.53,1.32-7.06,2.67-10.58,4.03
				c-4.45,1.72-6.88,2.63-7.31,2.7c-1.56,0.27-2.76-0.22-3.61-1.47c-0.36-0.54-0.6-1.17-0.73-1.9c-0.28-1.6,0.41-2.85,2.06-3.74
				c0.25-0.12,3.88-1.57,10.95-4.24c2.13-0.81,4.27-1.6,6.41-2.4c0.48-0.18,0.96-0.36,1.44-0.54c-1.05-2.89-2.11-5.78-3.17-8.66
				c-0.32,0.11-0.63,0.23-0.95,0.34c-7.65,2.64-11.92,4.09-12.87,4.25c-2.43,0.41-3.86-0.65-4.29-3.2
				c-0.36-2.06,0.89-3.55,3.75-4.44C18.45,65.02,22.35,63.7,26.77,62.15z"/>
			<path class="st10" d="M93.82,65.27c-0.06-0.17-0.12-0.35-0.18-0.52c-0.39-1.11-0.79-2.22-1.18-3.33
				c-1.03-2.83-1.56-4.43-1.6-4.79c-0.11-1.12,0.29-2,1.2-2.64c0.71-0.49,1.5-0.78,2.38-0.87c1.85-0.18,3.11,0.74,3.78,2.74
				c0.13,0.41,0.34,1.05,0.64,1.92c0.53,1.4,1.09,2.96,1.69,4.69c0.07,0.2,0.15,0.39,0.22,0.59c0.4-0.12,0.79-0.24,1.19-0.36
				c7.8-2.52,12.77-4.06,14.83-4.73c0.69-0.22,1.3-0.35,1.82-0.39c1.21-0.09,2.26,0.14,3.16,0.69c1.22,0.76,1.88,1.88,1.99,3.36
				c0.17,2.41-1.38,5.97-4.6,10.71c-2.33,3.42-4.2,5.19-5.64,5.31c-0.69,0.06-1.3-0.15-1.84-0.61c-0.56-0.51-0.87-1.06-0.92-1.68
				c-0.05-0.61,0.25-1.4,0.91-2.37c1.48-2.16,2.59-4.31,3.35-6.44c0.16-0.44,0.24-0.74,0.22-0.91c-0.02-0.23-0.16-0.34-0.42-0.32
				c-0.35,0.03-3.99,1.14-10.88,3.42c-0.36,0.12-0.72,0.23-1.08,0.35c0.18,0.5,0.35,1.01,0.53,1.51c4.03,11.47,6.17,17.75,6.57,18.8
				c0.22,0.55,0.35,1.04,0.38,1.47c0.12,1.41-0.43,2.47-1.66,3.17c-0.53,0.32-1.16,0.52-1.9,0.58c-1.46,0.13-2.54-0.51-3.25-1.91
				c-0.08-0.18-1.52-4.35-4.38-12.47c-0.84-2.39-1.69-4.77-2.54-7.16c-0.19-0.56-0.39-1.11-0.59-1.67
				c-1.06,0.36-2.34,0.81-3.83,1.36c-4.3,1.53-6.76,2.35-7.38,2.42c-0.99,0.11-1.79-0.11-2.39-0.64c-0.68-0.59-1.07-1.39-1.18-2.43
				c-0.2-1.79,0.88-3.06,3.24-3.8C87.3,67.46,90.41,66.43,93.82,65.27z"/>
			<path class="st10" d="M186.43,53.3c2.51-0.04,4.32,0.79,5.43,2.48c0.62,0.97,0.94,2.11,0.95,3.42c0.02,1.9-0.63,4.37-1.93,7.41
				c-2.84,6.72-7.58,12.54-14.16,17.54c-3.49,2.64-7.13,4.73-10.93,6.28c-0.94,0.39-1.76,0.6-2.44,0.62
				c-0.94,0.03-1.67-0.32-2.21-1.06c-0.45-0.6-0.69-1.24-0.71-1.94c-0.04-0.95,0.38-1.77,1.25-2.46c0.19-0.13,1.11-0.67,2.77-1.59
				c4.14-2.3,8.05-5.47,11.75-9.52c3.07-3.37,5.35-6.8,6.81-10.3c0.5-1.17,0.75-1.99,0.74-2.46c-0.01-0.51-0.41-0.76-1.19-0.74
				c-0.35,0.01-4.28,0.29-11.77,0.97c-4.66,0.45-9.32,0.93-13.97,1.43c-5.32,0.6-8.07,0.93-8.24,0.94
				c-1.33,0.06-2.37-0.36-3.14-1.27c-0.47-0.59-0.72-1.32-0.77-2.19c-0.12-2.26,0.93-3.6,3.16-4c1.4-0.23,11.97-1.51,31.84-3.06
				c1.58-0.12,2.8-0.21,3.66-0.29C185.06,53.37,186.1,53.3,186.43,53.3z M180.91,38.82c1.16-0.02,2.08,0.4,2.76,1.25
				c0.52,0.67,0.79,1.46,0.8,2.37c0.03,2.14-1,3.38-3.1,3.74c-1.65,0.26-4.09,0.57-7.31,0.92c-0.86,0.09-4.47,0.37-10.82,0.93
				c-3.88,0.35-6.48,0.56-7.81,0.61c-2.78,0.12-4.23-1.06-4.34-3.53c-0.09-1.88,0.68-3.09,2.31-3.63c0.42-0.12,1.38-0.23,2.89-0.31
				c6.13-0.33,13.29-1.01,21.51-1.97c0.29-0.05,1-0.15,2.13-0.3C180.37,38.85,180.69,38.82,180.91,38.82z"/>
			<path class="st10" d="M240.19,41.66c4.01-0.01,8.03-0.01,12.05,0.02c4.43,0.03,6.56,1.85,6.38,5.45
				c-0.11,2.18-1.17,5.39-3.15,9.63c-5.33,11.44-13.69,20.62-24.95,27.73c-5.33,3.36-8.93,5.04-10.89,5.01
				c-1.04-0.02-1.86-0.47-2.44-1.37c-0.38-0.6-0.56-1.17-0.55-1.72c0.01-0.87,0.5-1.66,1.48-2.39c0.28-0.21,1.13-0.7,2.56-1.48
				c4.84-2.65,9.57-6.19,14.2-10.63c5.79-5.59,10.09-11.74,12.83-18.51c0.88-2.17,1.33-3.48,1.35-3.95c0.02-0.51-0.3-0.75-0.96-0.74
				c-0.06,0-0.11,0-0.17-0.01c-3.81,0.05-7.61,0.11-11.41,0.2c-4.29,5.23-9.21,9.63-14.77,13.24c-1.19,0.76-2.25,1.14-3.19,1.12
				c-0.83-0.01-1.49-0.32-1.98-0.92c-0.45-0.58-0.67-1.17-0.66-1.79c0.01-0.85,0.38-1.64,1.11-2.37c0.24-0.25,0.89-0.8,1.93-1.65
				c3.31-2.72,6.54-6.34,9.73-10.86c1.19-1.69,2.17-3.26,2.94-4.72c0.93-1.77,2.34-2.64,4.21-2.58c0.76,0.02,1.46,0.18,2.09,0.48
				C239.16,39.44,239.92,40.38,240.19,41.66z"/>
			<path class="st10" d="M308.12,45.57c4.21,0.24,8.43,0.51,12.64,0.8c0.18,0.01,0.36,0.02,0.53,0.02c4.1,0.43,5.96,2.32,5.6,5.65
				c-0.11,1.01-0.53,2.38-1.25,4.11c-5.97,14.21-15.93,24.9-29.71,32.4c-5.4,2.93-9.01,4.36-10.88,4.22
				c-0.98-0.07-1.71-0.55-2.2-1.44c-0.34-0.62-0.49-1.19-0.45-1.72c0.06-0.84,0.52-1.58,1.39-2.22c0.29-0.21,1.1-0.65,2.42-1.31
				c6.57-3.32,12.43-7.3,17.59-11.99c-2.82-3.4-5.45-6.2-7.85-8.4c-1.12-1.01-1.65-1.95-1.57-2.84c0.05-0.55,0.27-1.05,0.69-1.5
				c0.68-0.73,1.52-1.05,2.52-0.97c0.83,0.07,1.83,0.42,2.98,1.05c3.34,1.8,6.31,3.96,8.9,6.46c3.12-3.99,5.51-7.93,7.13-11.83
				c0.47-1.12,0.72-1.82,0.75-2.09c0.05-0.46-0.28-0.73-0.99-0.8c-0.07-0.01-0.13-0.01-0.2-0.02c-4.1-0.21-8.21-0.4-12.31-0.57
				c-5.1,5.43-10.13,9.5-15.11,12.21c-1.6,0.87-2.9,1.27-3.9,1.2c-0.91-0.07-1.58-0.47-2.01-1.2c-0.29-0.49-0.42-1.01-0.38-1.55
				c0.05-0.74,0.42-1.47,1.11-2.18c0.24-0.24,0.96-0.81,2.17-1.72c4.03-3.05,7.8-6.84,11.32-11.36c0.95-1.24,1.8-2.44,2.55-3.61
				c1.08-1.71,2.56-2.49,4.43-2.32c1.33,0.12,2.41,0.65,3.21,1.6C307.69,44.17,307.99,44.81,308.12,45.57z"/>
			<path class="st10" d="M391.34,72.72c1.37,0.23,2.37,0.83,3.01,1.77c0.55,0.78,0.73,1.74,0.54,2.86
				c-0.37,2.11-1.61,3.18-3.72,3.22c-0.56,0.05-7.89-0.91-21.99-2.46c-6.49-0.7-13.36-1.36-20.62-1.93
				c-0.26-0.01-0.51-0.04-0.75-0.07c-1.21-0.16-2.18-0.64-2.91-1.44c-0.75-0.84-1.05-1.86-0.89-3.06c0.22-1.72,1.16-2.81,2.83-3.25
				c0.68-0.17,2.25-0.13,4.7,0.11c2.16,0.23,7.64,0.71,16.43,1.59c3.74,0.37,8.86,0.91,15.35,1.69c2.18,0.27,3.91,0.47,5.18,0.6
				C390.09,72.55,391.04,72.66,391.34,72.72z"/>
		</g>
		<g>
			<path class="st11" d="M26.77,62.15c-0.96-2.53-1.92-5.05-2.88-7.58c-0.16-0.45-0.27-0.87-0.34-1.26c-0.23-1.46,0.2-2.59,1.3-3.39
				c0.65-0.49,1.44-0.8,2.37-0.95c2.28-0.35,3.82,0.56,4.62,2.73c0.96,2.55,1.92,5.1,2.87,7.66c5.25-1.9,8.95-3.23,11.05-4.03
				c0.55-0.23,1.07-0.37,1.55-0.44c1.61-0.22,2.84,0.24,3.68,1.39c0.41,0.56,0.66,1.19,0.76,1.88c0.24,1.82-0.7,3.16-2.84,4
				c-1.52,0.59-5.05,1.83-10.55,3.78c-0.37,0.13-0.74,0.26-1.11,0.39c1.07,2.87,2.14,5.74,3.2,8.61c2.69-0.95,8.25-2.95,16.75-5.88
				c0.61-0.21,1.12-0.34,1.51-0.39c1.65-0.21,2.88,0.32,3.68,1.58c0.33,0.53,0.54,1.14,0.62,1.81c0.2,1.57-0.48,2.78-2.01,3.61
				c-0.33,0.17-1.05,0.44-2.16,0.82c-2.94,0.98-7.73,2.62-14.32,5c-0.49,0.18-0.98,0.35-1.47,0.53c1.83,5.08,3.65,10.16,5.45,15.25
				c0.14,0.37,0.24,0.78,0.31,1.24c0.22,1.57-0.23,2.76-1.37,3.56c-0.62,0.45-1.39,0.75-2.29,0.88c-2.11,0.31-3.58-0.68-4.42-2.97
				c-1.81-5.03-3.64-10.07-5.48-15.09c-0.42,0.16-0.85,0.32-1.27,0.48c-3.53,1.32-7.06,2.67-10.58,4.03
				c-4.45,1.72-6.88,2.63-7.31,2.7c-1.56,0.27-2.76-0.22-3.61-1.47c-0.36-0.54-0.6-1.17-0.73-1.9c-0.28-1.6,0.41-2.85,2.06-3.74
				c0.25-0.12,3.88-1.57,10.95-4.24c2.13-0.81,4.27-1.6,6.41-2.4c0.48-0.18,0.96-0.36,1.44-0.54c-1.05-2.89-2.11-5.78-3.17-8.66
				c-0.32,0.11-0.63,0.23-0.95,0.34c-7.65,2.64-11.92,4.09-12.87,4.25c-2.43,0.41-3.86-0.65-4.29-3.2
				c-0.36-2.06,0.89-3.55,3.75-4.44C18.45,65.02,22.35,63.7,26.77,62.15z"/>
			<path class="st11" d="M93.82,65.27c-0.06-0.17-0.12-0.35-0.18-0.52c-0.39-1.11-0.79-2.22-1.18-3.33
				c-1.03-2.83-1.56-4.43-1.6-4.79c-0.11-1.12,0.29-2,1.2-2.64c0.71-0.49,1.5-0.78,2.38-0.87c1.85-0.18,3.11,0.74,3.78,2.74
				c0.13,0.41,0.34,1.05,0.64,1.92c0.53,1.4,1.09,2.96,1.69,4.69c0.07,0.2,0.15,0.39,0.22,0.59c0.4-0.12,0.79-0.24,1.19-0.36
				c7.8-2.52,12.77-4.06,14.83-4.73c0.69-0.22,1.3-0.35,1.82-0.39c1.21-0.09,2.26,0.14,3.16,0.69c1.22,0.76,1.88,1.88,1.99,3.36
				c0.17,2.41-1.38,5.97-4.6,10.71c-2.33,3.42-4.2,5.19-5.64,5.31c-0.69,0.06-1.3-0.15-1.84-0.61c-0.56-0.51-0.87-1.06-0.92-1.68
				c-0.05-0.61,0.25-1.4,0.91-2.37c1.48-2.16,2.59-4.31,3.35-6.44c0.16-0.44,0.24-0.74,0.22-0.91c-0.02-0.23-0.16-0.34-0.42-0.32
				c-0.35,0.03-3.99,1.14-10.88,3.42c-0.36,0.12-0.72,0.23-1.08,0.35c0.18,0.5,0.35,1.01,0.53,1.51c4.03,11.47,6.17,17.75,6.57,18.8
				c0.22,0.55,0.35,1.04,0.38,1.47c0.12,1.41-0.43,2.47-1.66,3.17c-0.53,0.32-1.16,0.52-1.9,0.58c-1.46,0.13-2.54-0.51-3.25-1.91
				c-0.08-0.18-1.52-4.35-4.38-12.47c-0.84-2.39-1.69-4.77-2.54-7.16c-0.19-0.56-0.39-1.11-0.59-1.67
				c-1.06,0.36-2.34,0.81-3.83,1.36c-4.3,1.53-6.76,2.35-7.38,2.42c-0.99,0.11-1.79-0.11-2.39-0.64c-0.68-0.59-1.07-1.39-1.18-2.43
				c-0.2-1.79,0.88-3.06,3.24-3.8C87.3,67.46,90.41,66.43,93.82,65.27z"/>
			<path class="st11" d="M186.43,53.3c2.51-0.04,4.32,0.79,5.43,2.48c0.62,0.97,0.94,2.11,0.95,3.42c0.02,1.9-0.63,4.37-1.93,7.41
				c-2.84,6.72-7.58,12.54-14.16,17.54c-3.49,2.64-7.13,4.73-10.93,6.28c-0.94,0.39-1.76,0.6-2.44,0.62
				c-0.94,0.03-1.67-0.32-2.21-1.06c-0.45-0.6-0.69-1.24-0.71-1.94c-0.04-0.95,0.38-1.77,1.25-2.46c0.19-0.13,1.11-0.67,2.77-1.59
				c4.14-2.3,8.05-5.47,11.75-9.52c3.07-3.37,5.35-6.8,6.81-10.3c0.5-1.17,0.75-1.99,0.74-2.46c-0.01-0.51-0.41-0.76-1.19-0.74
				c-0.35,0.01-4.28,0.29-11.77,0.97c-4.66,0.45-9.32,0.93-13.97,1.43c-5.32,0.6-8.07,0.93-8.24,0.94
				c-1.33,0.06-2.37-0.36-3.14-1.27c-0.47-0.59-0.72-1.32-0.77-2.19c-0.12-2.26,0.93-3.6,3.16-4c1.4-0.23,11.97-1.51,31.84-3.06
				c1.58-0.12,2.8-0.21,3.66-0.29C185.06,53.37,186.1,53.3,186.43,53.3z M180.91,38.82c1.16-0.02,2.08,0.4,2.76,1.25
				c0.52,0.67,0.79,1.46,0.8,2.37c0.03,2.14-1,3.38-3.1,3.74c-1.65,0.26-4.09,0.57-7.31,0.92c-0.86,0.09-4.47,0.37-10.82,0.93
				c-3.88,0.35-6.48,0.56-7.81,0.61c-2.78,0.12-4.23-1.06-4.34-3.53c-0.09-1.88,0.68-3.09,2.31-3.63c0.42-0.12,1.38-0.23,2.89-0.31
				c6.13-0.33,13.29-1.01,21.51-1.97c0.29-0.05,1-0.15,2.13-0.3C180.37,38.85,180.69,38.82,180.91,38.82z"/>
			<path class="st11" d="M240.19,41.66c4.01-0.01,8.03-0.01,12.05,0.02c4.43,0.03,6.56,1.85,6.38,5.45
				c-0.11,2.18-1.17,5.39-3.15,9.63c-5.33,11.44-13.69,20.62-24.95,27.73c-5.33,3.36-8.93,5.04-10.89,5.01
				c-1.04-0.02-1.86-0.47-2.44-1.37c-0.38-0.6-0.56-1.17-0.55-1.72c0.01-0.87,0.5-1.66,1.48-2.39c0.28-0.21,1.13-0.7,2.56-1.48
				c4.84-2.65,9.57-6.19,14.2-10.63c5.79-5.59,10.09-11.74,12.83-18.51c0.88-2.17,1.33-3.48,1.35-3.95c0.02-0.51-0.3-0.75-0.96-0.74
				c-0.06,0-0.11,0-0.17-0.01c-3.81,0.05-7.61,0.11-11.41,0.2c-4.29,5.23-9.21,9.63-14.77,13.24c-1.19,0.76-2.25,1.14-3.19,1.12
				c-0.83-0.01-1.49-0.32-1.98-0.92c-0.45-0.58-0.67-1.17-0.66-1.79c0.01-0.85,0.38-1.64,1.11-2.37c0.24-0.25,0.89-0.8,1.93-1.65
				c3.31-2.72,6.54-6.34,9.73-10.86c1.19-1.69,2.17-3.26,2.94-4.72c0.93-1.77,2.34-2.64,4.21-2.58c0.76,0.02,1.46,0.18,2.09,0.48
				C239.16,39.44,239.92,40.38,240.19,41.66z"/>
			<path class="st11" d="M308.12,45.57c4.21,0.24,8.43,0.51,12.64,0.8c0.18,0.01,0.36,0.02,0.53,0.02c4.1,0.43,5.96,2.32,5.6,5.65
				c-0.11,1.01-0.53,2.38-1.25,4.11c-5.97,14.21-15.93,24.9-29.71,32.4c-5.4,2.93-9.01,4.36-10.88,4.22
				c-0.98-0.07-1.71-0.55-2.2-1.44c-0.34-0.62-0.49-1.19-0.45-1.72c0.06-0.84,0.52-1.58,1.39-2.22c0.29-0.21,1.1-0.65,2.42-1.31
				c6.57-3.32,12.43-7.3,17.59-11.99c-2.82-3.4-5.45-6.2-7.85-8.4c-1.12-1.01-1.65-1.95-1.57-2.84c0.05-0.55,0.27-1.05,0.69-1.5
				c0.68-0.73,1.52-1.05,2.52-0.97c0.83,0.07,1.83,0.42,2.98,1.05c3.34,1.8,6.31,3.96,8.9,6.46c3.12-3.99,5.51-7.93,7.13-11.83
				c0.47-1.12,0.72-1.82,0.75-2.09c0.05-0.46-0.28-0.73-0.99-0.8c-0.07-0.01-0.13-0.01-0.2-0.02c-4.1-0.21-8.21-0.4-12.31-0.57
				c-5.1,5.43-10.13,9.5-15.11,12.21c-1.6,0.87-2.9,1.27-3.9,1.2c-0.91-0.07-1.58-0.47-2.01-1.2c-0.29-0.49-0.42-1.01-0.38-1.55
				c0.05-0.74,0.42-1.47,1.11-2.18c0.24-0.24,0.96-0.81,2.17-1.72c4.03-3.05,7.8-6.84,11.32-11.36c0.95-1.24,1.8-2.44,2.55-3.61
				c1.08-1.71,2.56-2.49,4.43-2.32c1.33,0.12,2.41,0.65,3.21,1.6C307.69,44.17,307.99,44.81,308.12,45.57z"/>
			<path class="st11" d="M391.34,72.72c1.37,0.23,2.37,0.83,3.01,1.77c0.55,0.78,0.73,1.74,0.54,2.86
				c-0.37,2.11-1.61,3.18-3.72,3.22c-0.56,0.05-7.89-0.91-21.99-2.46c-6.49-0.7-13.36-1.36-20.62-1.93
				c-0.26-0.01-0.51-0.04-0.75-0.07c-1.21-0.16-2.18-0.64-2.91-1.44c-0.75-0.84-1.05-1.86-0.89-3.06c0.22-1.72,1.16-2.81,2.83-3.25
				c0.68-0.17,2.25-0.13,4.7,0.11c2.16,0.23,7.64,0.71,16.43,1.59c3.74,0.37,8.86,0.91,15.35,1.69c2.18,0.27,3.91,0.47,5.18,0.6
				C390.09,72.55,391.04,72.66,391.34,72.72z"/>
		</g>
		<g>
			<path class="st12" d="M26.77,62.15c-0.96-2.53-1.92-5.05-2.88-7.58c-0.16-0.45-0.27-0.87-0.34-1.26c-0.23-1.46,0.2-2.59,1.3-3.39
				c0.65-0.49,1.44-0.8,2.37-0.95c2.28-0.35,3.82,0.56,4.62,2.73c0.96,2.55,1.92,5.1,2.87,7.66c5.25-1.9,8.95-3.23,11.05-4.03
				c0.55-0.23,1.07-0.37,1.55-0.44c1.61-0.22,2.84,0.24,3.68,1.39c0.41,0.56,0.66,1.19,0.76,1.88c0.24,1.82-0.7,3.16-2.84,4
				c-1.52,0.59-5.05,1.83-10.55,3.78c-0.37,0.13-0.74,0.26-1.11,0.39c1.07,2.87,2.14,5.74,3.2,8.61c2.69-0.95,8.25-2.95,16.75-5.88
				c0.61-0.21,1.12-0.34,1.51-0.39c1.65-0.21,2.88,0.32,3.68,1.58c0.33,0.53,0.54,1.14,0.62,1.81c0.2,1.57-0.48,2.78-2.01,3.61
				c-0.33,0.17-1.05,0.44-2.16,0.82c-2.94,0.98-7.73,2.62-14.32,5c-0.49,0.18-0.98,0.35-1.47,0.53c1.83,5.08,3.65,10.16,5.45,15.25
				c0.14,0.37,0.24,0.78,0.31,1.24c0.22,1.57-0.23,2.76-1.37,3.56c-0.62,0.45-1.39,0.75-2.29,0.88c-2.11,0.31-3.58-0.68-4.42-2.97
				c-1.81-5.03-3.64-10.07-5.48-15.09c-0.42,0.16-0.85,0.32-1.27,0.48c-3.53,1.32-7.06,2.67-10.58,4.03
				c-4.45,1.72-6.88,2.63-7.31,2.7c-1.56,0.27-2.76-0.22-3.61-1.47c-0.36-0.54-0.6-1.17-0.73-1.9c-0.28-1.6,0.41-2.85,2.06-3.74
				c0.25-0.12,3.88-1.57,10.95-4.24c2.13-0.81,4.27-1.6,6.41-2.4c0.48-0.18,0.96-0.36,1.44-0.54c-1.05-2.89-2.11-5.78-3.17-8.66
				c-0.32,0.11-0.63,0.23-0.95,0.34c-7.65,2.64-11.92,4.09-12.87,4.25c-2.43,0.41-3.86-0.65-4.29-3.2
				c-0.36-2.06,0.89-3.55,3.75-4.44C18.45,65.02,22.35,63.7,26.77,62.15z"/>
			<path class="st12" d="M93.82,65.27c-0.06-0.17-0.12-0.35-0.18-0.52c-0.39-1.11-0.79-2.22-1.18-3.33
				c-1.03-2.83-1.56-4.43-1.6-4.79c-0.11-1.12,0.29-2,1.2-2.64c0.71-0.49,1.5-0.78,2.38-0.87c1.85-0.18,3.11,0.74,3.78,2.74
				c0.13,0.41,0.34,1.05,0.64,1.92c0.53,1.4,1.09,2.96,1.69,4.69c0.07,0.2,0.15,0.39,0.22,0.59c0.4-0.12,0.79-0.24,1.19-0.36
				c7.8-2.52,12.77-4.06,14.83-4.73c0.69-0.22,1.3-0.35,1.82-0.39c1.21-0.09,2.26,0.14,3.16,0.69c1.22,0.76,1.88,1.88,1.99,3.36
				c0.17,2.41-1.38,5.97-4.6,10.71c-2.33,3.42-4.2,5.19-5.64,5.31c-0.69,0.06-1.3-0.15-1.84-0.61c-0.56-0.51-0.87-1.06-0.92-1.68
				c-0.05-0.61,0.25-1.4,0.91-2.37c1.48-2.16,2.59-4.31,3.35-6.44c0.16-0.44,0.24-0.74,0.22-0.91c-0.02-0.23-0.16-0.34-0.42-0.32
				c-0.35,0.03-3.99,1.14-10.88,3.42c-0.36,0.12-0.72,0.23-1.08,0.35c0.18,0.5,0.35,1.01,0.53,1.51c4.03,11.47,6.17,17.75,6.57,18.8
				c0.22,0.55,0.35,1.04,0.38,1.47c0.12,1.41-0.43,2.47-1.66,3.17c-0.53,0.32-1.16,0.52-1.9,0.58c-1.46,0.13-2.54-0.51-3.25-1.91
				c-0.08-0.18-1.52-4.35-4.38-12.47c-0.84-2.39-1.69-4.77-2.54-7.16c-0.19-0.56-0.39-1.11-0.59-1.67
				c-1.06,0.36-2.34,0.81-3.83,1.36c-4.3,1.53-6.76,2.35-7.38,2.42c-0.99,0.11-1.79-0.11-2.39-0.64c-0.68-0.59-1.07-1.39-1.18-2.43
				c-0.2-1.79,0.88-3.06,3.24-3.8C87.3,67.46,90.41,66.43,93.82,65.27z"/>
			<path class="st12" d="M186.43,53.3c2.51-0.04,4.32,0.79,5.43,2.48c0.62,0.97,0.94,2.11,0.95,3.42c0.02,1.9-0.63,4.37-1.93,7.41
				c-2.84,6.72-7.58,12.54-14.16,17.54c-3.49,2.64-7.13,4.73-10.93,6.28c-0.94,0.39-1.76,0.6-2.44,0.62
				c-0.94,0.03-1.67-0.32-2.21-1.06c-0.45-0.6-0.69-1.24-0.71-1.94c-0.04-0.95,0.38-1.77,1.25-2.46c0.19-0.13,1.11-0.67,2.77-1.59
				c4.14-2.3,8.05-5.47,11.75-9.52c3.07-3.37,5.35-6.8,6.81-10.3c0.5-1.17,0.75-1.99,0.74-2.46c-0.01-0.51-0.41-0.76-1.19-0.74
				c-0.35,0.01-4.28,0.29-11.77,0.97c-4.66,0.45-9.32,0.93-13.97,1.43c-5.32,0.6-8.07,0.93-8.24,0.94
				c-1.33,0.06-2.37-0.36-3.14-1.27c-0.47-0.59-0.72-1.32-0.77-2.19c-0.12-2.26,0.93-3.6,3.16-4c1.4-0.23,11.97-1.51,31.84-3.06
				c1.58-0.12,2.8-0.21,3.66-0.29C185.06,53.37,186.1,53.3,186.43,53.3z M180.91,38.82c1.16-0.02,2.08,0.4,2.76,1.25
				c0.52,0.67,0.79,1.46,0.8,2.37c0.03,2.14-1,3.38-3.1,3.74c-1.65,0.26-4.09,0.57-7.31,0.92c-0.86,0.09-4.47,0.37-10.82,0.93
				c-3.88,0.35-6.48,0.56-7.81,0.61c-2.78,0.12-4.23-1.06-4.34-3.53c-0.09-1.88,0.68-3.09,2.31-3.63c0.42-0.12,1.38-0.23,2.89-0.31
				c6.13-0.33,13.29-1.01,21.51-1.97c0.29-0.05,1-0.15,2.13-0.3C180.37,38.85,180.69,38.82,180.91,38.82z"/>
			<path class="st12" d="M240.19,41.66c4.01-0.01,8.03-0.01,12.05,0.02c4.43,0.03,6.56,1.85,6.38,5.45
				c-0.11,2.18-1.17,5.39-3.15,9.63c-5.33,11.44-13.69,20.62-24.95,27.73c-5.33,3.36-8.93,5.04-10.89,5.01
				c-1.04-0.02-1.86-0.47-2.44-1.37c-0.38-0.6-0.56-1.17-0.55-1.72c0.01-0.87,0.5-1.66,1.48-2.39c0.28-0.21,1.13-0.7,2.56-1.48
				c4.84-2.65,9.57-6.19,14.2-10.63c5.79-5.59,10.09-11.74,12.83-18.51c0.88-2.17,1.33-3.48,1.35-3.95c0.02-0.51-0.3-0.75-0.96-0.74
				c-0.06,0-0.11,0-0.17-0.01c-3.81,0.05-7.61,0.11-11.41,0.2c-4.29,5.23-9.21,9.63-14.77,13.24c-1.19,0.76-2.25,1.14-3.19,1.12
				c-0.83-0.01-1.49-0.32-1.98-0.92c-0.45-0.58-0.67-1.17-0.66-1.79c0.01-0.85,0.38-1.64,1.11-2.37c0.24-0.25,0.89-0.8,1.93-1.65
				c3.31-2.72,6.54-6.34,9.73-10.86c1.19-1.69,2.17-3.26,2.94-4.72c0.93-1.77,2.34-2.64,4.21-2.58c0.76,0.02,1.46,0.18,2.09,0.48
				C239.16,39.44,239.92,40.38,240.19,41.66z"/>
			<path class="st12" d="M308.12,45.57c4.21,0.24,8.43,0.51,12.64,0.8c0.18,0.01,0.36,0.02,0.53,0.02c4.1,0.43,5.96,2.32,5.6,5.65
				c-0.11,1.01-0.53,2.38-1.25,4.11c-5.97,14.21-15.93,24.9-29.71,32.4c-5.4,2.93-9.01,4.36-10.88,4.22
				c-0.98-0.07-1.71-0.55-2.2-1.44c-0.34-0.62-0.49-1.19-0.45-1.72c0.06-0.84,0.52-1.58,1.39-2.22c0.29-0.21,1.1-0.65,2.42-1.31
				c6.57-3.32,12.43-7.3,17.59-11.99c-2.82-3.4-5.45-6.2-7.85-8.4c-1.12-1.01-1.65-1.95-1.57-2.84c0.05-0.55,0.27-1.05,0.69-1.5
				c0.68-0.73,1.52-1.05,2.52-0.97c0.83,0.07,1.83,0.42,2.98,1.05c3.34,1.8,6.31,3.96,8.9,6.46c3.12-3.99,5.51-7.93,7.13-11.83
				c0.47-1.12,0.72-1.82,0.75-2.09c0.05-0.46-0.28-0.73-0.99-0.8c-0.07-0.01-0.13-0.01-0.2-0.02c-4.1-0.21-8.21-0.4-12.31-0.57
				c-5.1,5.43-10.13,9.5-15.11,12.21c-1.6,0.87-2.9,1.27-3.9,1.2c-0.91-0.07-1.58-0.47-2.01-1.2c-0.29-0.49-0.42-1.01-0.38-1.55
				c0.05-0.74,0.42-1.47,1.11-2.18c0.24-0.24,0.96-0.81,2.17-1.72c4.03-3.05,7.8-6.84,11.32-11.36c0.95-1.24,1.8-2.44,2.55-3.61
				c1.08-1.71,2.56-2.49,4.43-2.32c1.33,0.12,2.41,0.65,3.21,1.6C307.69,44.17,307.99,44.81,308.12,45.57z"/>
			<path class="st12" d="M391.34,72.72c1.37,0.23,2.37,0.83,3.01,1.77c0.55,0.78,0.73,1.74,0.54,2.86
				c-0.37,2.11-1.61,3.18-3.72,3.22c-0.56,0.05-7.89-0.91-21.99-2.46c-6.49-0.7-13.36-1.36-20.62-1.93
				c-0.26-0.01-0.51-0.04-0.75-0.07c-1.21-0.16-2.18-0.64-2.91-1.44c-0.75-0.84-1.05-1.86-0.89-3.06c0.22-1.72,1.16-2.81,2.83-3.25
				c0.68-0.17,2.25-0.13,4.7,0.11c2.16,0.23,7.64,0.71,16.43,1.59c3.74,0.37,8.86,0.91,15.35,1.69c2.18,0.27,3.91,0.47,5.18,0.6
				C390.09,72.55,391.04,72.66,391.34,72.72z"/>
		</g>
	</g>
</g>
<g id="レイヤー_6">
	<path class="st13" d="M377.71,120.43c-3.74,7.54-10.26,5.32-17.79,1.58c-7.54-3.74-13.24-7.59-9.5-15.13
		c3.74-7.54,12.88-10.61,20.42-6.87C378.37,103.76,381.45,112.9,377.71,120.43z"/>
	
		<radialGradient id="SVGID_1_" cx="349.0865" cy="78.5596" r="10.1994" gradientTransform="matrix(0.9975 0.4951 -0.549 1.106 64.5276 -157.9113)" gradientUnits="userSpaceOnUse">
		<stop  offset="0.4514" style="stop-color:#FFF5CE;stop-opacity:0.5"/>
		<stop  offset="1" style="stop-color:#FCFDFD;stop-opacity:0"/>
	</radialGradient>
	<path class="st14" d="M356.35,102.63c1.88-3.78,8.58-5.15,14.55-2.18s8.93,9.12,7.06,12.91s-8.23,4.45-14.2,1.49
		S354.48,106.41,356.35,102.63z"/>
	<path class="st15" d="M376.27,110.99c-0.13-0.19-0.28-0.36-0.45-0.5c1.36-1.06,1.62-3.12,0.55-4.72c-1.11-1.66-3.25-2.17-4.76-1.15
		c-1.51,1.02-1.84,3.19-0.72,4.84c0.49,0.72,1.16,1.23,1.9,1.48c-0.37,0.67-0.34,1.56,0.15,2.29c0.68,1.01,1.97,1.32,2.89,0.7
		C376.76,113.31,376.95,111.99,376.27,110.99z"/>
	<g>
		<path class="st13" d="M403.91,111.08c-0.32,4.24-3.79,4.44-8.03,4.11c-4.24-0.32-7.64-1.05-7.31-5.29
			c0.32-4.24,4.02-7.41,8.26-7.09C401.06,103.14,404.23,106.84,403.91,111.08z"/>
		
			<radialGradient id="SVGID_2_" cx="369.3394" cy="75.8495" r="5.1532" gradientTransform="matrix(1.1104 0.0848 -0.0941 1.2312 -6.3819 -20.8273)" gradientUnits="userSpaceOnUse">
			<stop  offset="0.4514" style="stop-color:#FFF5CE;stop-opacity:0.5"/>
			<stop  offset="1" style="stop-color:#FCFDFD;stop-opacity:0"/>
		</radialGradient>
		<path class="st16" d="M390.53,106.79c0.16-2.13,3.04-4.04,6.4-3.78s5.91,2.58,5.75,4.71c-0.16,2.13-3.01,3.64-6.37,3.39
			S390.37,108.91,390.53,106.79z"/>
		<path class="st15" d="M401.44,106.92c-0.1-0.07-0.2-0.12-0.31-0.15c0.44-0.76,0.17-1.77-0.63-2.31c-0.84-0.56-1.93-0.4-2.45,0.36
			c-0.52,0.76-0.26,1.84,0.58,2.4c0.36,0.25,0.78,0.35,1.17,0.33c-0.04,0.38,0.14,0.79,0.51,1.04c0.51,0.34,1.17,0.24,1.49-0.22
			C402.11,107.92,401.95,107.27,401.44,106.92z"/>
	</g>
</g>
</svg>
